G04 #@! TF.GenerationSoftware,KiCad,Pcbnew,(6.0.2)*
G04 #@! TF.CreationDate,2022-02-25T11:46:36+09:00*
G04 #@! TF.ProjectId,RoSoR,526f536f-522e-46b6-9963-61645f706362,rev?*
G04 #@! TF.SameCoordinates,Original*
G04 #@! TF.FileFunction,Copper,L2,Bot*
G04 #@! TF.FilePolarity,Positive*
%FSLAX46Y46*%
G04 Gerber Fmt 4.6, Leading zero omitted, Abs format (unit mm)*
G04 Created by KiCad (PCBNEW (6.0.2)) date 2022-02-25 11:46:36*
%MOMM*%
%LPD*%
G01*
G04 APERTURE LIST*
G04 Aperture macros list*
%AMHorizOval*
0 Thick line with rounded ends*
0 $1 width*
0 $2 $3 position (X,Y) of the first rounded end (center of the circle)*
0 $4 $5 position (X,Y) of the second rounded end (center of the circle)*
0 Add line between two ends*
20,1,$1,$2,$3,$4,$5,0*
0 Add two circle primitives to create the rounded ends*
1,1,$1,$2,$3*
1,1,$1,$4,$5*%
G04 Aperture macros list end*
G04 #@! TA.AperFunction,ComponentPad*
%ADD10O,2.000000X15.900000*%
G04 #@! TD*
G04 #@! TA.AperFunction,ComponentPad*
%ADD11O,15.900000X2.000000*%
G04 #@! TD*
G04 #@! TA.AperFunction,ComponentPad*
%ADD12HorizOval,2.000000X4.914392X4.914392X-4.914392X-4.914392X0*%
G04 #@! TD*
G04 #@! TA.AperFunction,ComponentPad*
%ADD13HorizOval,2.000000X-4.914392X4.914392X4.914392X-4.914392X0*%
G04 #@! TD*
G04 APERTURE END LIST*
D10*
X245462500Y-47625000D03*
X259362500Y-47625000D03*
D11*
X252412500Y-40675000D03*
X252412500Y-54575000D03*
D12*
X180005993Y-49037243D03*
X189834777Y-58866027D03*
D13*
X189834777Y-49037243D03*
X180005993Y-58866027D03*
D10*
X45437500Y-47625000D03*
D11*
X52387500Y-54575000D03*
X52387500Y-40675000D03*
D10*
X59337500Y-47625000D03*
D11*
X290512500Y-54575000D03*
D10*
X297462500Y-47625000D03*
D11*
X290512500Y-40675000D03*
D10*
X283562500Y-47625000D03*
D11*
X214312500Y-78775000D03*
X214312500Y-92675000D03*
D10*
X207362500Y-85725000D03*
X221262500Y-85725000D03*
X102587500Y-85725000D03*
D11*
X109537500Y-78775000D03*
D10*
X116487500Y-85725000D03*
D11*
X109537500Y-92675000D03*
D10*
X40287500Y-85725000D03*
X26387500Y-85725000D03*
D11*
X33337500Y-78775000D03*
X33337500Y-92675000D03*
D10*
X278412500Y-85725000D03*
D11*
X271462500Y-92675000D03*
D10*
X264512500Y-85725000D03*
D11*
X271462500Y-78775000D03*
X252412500Y-78775000D03*
X252412500Y-92675000D03*
D10*
X259362500Y-85725000D03*
X245462500Y-85725000D03*
D11*
X71437500Y-59725000D03*
X71437500Y-73625000D03*
D10*
X78387500Y-66675000D03*
X64487500Y-66675000D03*
D11*
X252412500Y-97825000D03*
X252412500Y-111725000D03*
D10*
X245462500Y-104775000D03*
X259362500Y-104775000D03*
X135537500Y-66675000D03*
X121637500Y-66675000D03*
D11*
X128587500Y-59725000D03*
X128587500Y-73625000D03*
X90487500Y-111725000D03*
X90487500Y-97825000D03*
D10*
X97437500Y-104775000D03*
X83537500Y-104775000D03*
X297462500Y-85725000D03*
X283562500Y-85725000D03*
D11*
X290512500Y-92675000D03*
X290512500Y-78775000D03*
D10*
X78387500Y-47625000D03*
D11*
X71437500Y-54575000D03*
D10*
X64487500Y-47625000D03*
D11*
X71437500Y-40675000D03*
D10*
X226412500Y-47625000D03*
D11*
X233362500Y-40675000D03*
D10*
X240312500Y-47625000D03*
D11*
X233362500Y-54575000D03*
X309562500Y-78775000D03*
D10*
X316512500Y-85725000D03*
X302612500Y-85725000D03*
D11*
X309562500Y-92675000D03*
X309562500Y-97825000D03*
X309562500Y-111725000D03*
D10*
X316512500Y-104775000D03*
X302612500Y-104775000D03*
D11*
X233362500Y-73625000D03*
D10*
X240312500Y-66675000D03*
X226412500Y-66675000D03*
D11*
X233362500Y-59725000D03*
X233362500Y-97825000D03*
D10*
X226412500Y-104775000D03*
D11*
X233362500Y-111725000D03*
D10*
X240312500Y-104775000D03*
X26387500Y-47625000D03*
D11*
X33337500Y-40675000D03*
X33337500Y-54575000D03*
D10*
X40287500Y-47625000D03*
X59337500Y-85725000D03*
D11*
X52387500Y-92675000D03*
D10*
X45437500Y-85725000D03*
D11*
X52387500Y-78775000D03*
X271462500Y-54575000D03*
X271462500Y-40675000D03*
D10*
X264512500Y-47625000D03*
X278412500Y-47625000D03*
D11*
X309562500Y-73625000D03*
X309562500Y-59725000D03*
D10*
X302612500Y-66675000D03*
X316512500Y-66675000D03*
D13*
X166535608Y-45395642D03*
D12*
X176364392Y-45395642D03*
D13*
X176364392Y-35566858D03*
D12*
X166535608Y-35566858D03*
D11*
X128587500Y-40675000D03*
D10*
X121637500Y-47625000D03*
D11*
X128587500Y-54575000D03*
D10*
X135537500Y-47625000D03*
D11*
X109537500Y-111725000D03*
X109537500Y-97825000D03*
D10*
X102587500Y-104775000D03*
X116487500Y-104775000D03*
D11*
X52387500Y-73625000D03*
D10*
X45437500Y-66675000D03*
D11*
X52387500Y-59725000D03*
D10*
X59337500Y-66675000D03*
D11*
X109537500Y-73625000D03*
D10*
X102587500Y-66675000D03*
X116487500Y-66675000D03*
D11*
X109537500Y-59725000D03*
D13*
X162894008Y-49037243D03*
D12*
X153065224Y-49037243D03*
X162894008Y-58866027D03*
D13*
X153065224Y-58866027D03*
D10*
X221262500Y-47625000D03*
D11*
X214312500Y-40675000D03*
D10*
X207362500Y-47625000D03*
D11*
X214312500Y-54575000D03*
D10*
X64487500Y-85725000D03*
D11*
X71437500Y-78775000D03*
D10*
X78387500Y-85725000D03*
D11*
X71437500Y-92675000D03*
D10*
X245462500Y-66675000D03*
D11*
X252412500Y-59725000D03*
X252412500Y-73625000D03*
D10*
X259362500Y-66675000D03*
D11*
X271462500Y-97825000D03*
D10*
X278412500Y-104775000D03*
X264512500Y-104775000D03*
D11*
X271462500Y-111725000D03*
X290512500Y-59725000D03*
X290512500Y-73625000D03*
D10*
X283562500Y-66675000D03*
X297462500Y-66675000D03*
X297462500Y-104775000D03*
X283562500Y-104775000D03*
D11*
X290512500Y-97825000D03*
X290512500Y-111725000D03*
D10*
X78387500Y-104775000D03*
D11*
X71437500Y-111725000D03*
X71437500Y-97825000D03*
D10*
X64487500Y-104775000D03*
D11*
X214312500Y-111725000D03*
X214312500Y-97825000D03*
D10*
X221262500Y-104775000D03*
X207362500Y-104775000D03*
X302612500Y-47625000D03*
D11*
X309562500Y-54575000D03*
D10*
X316512500Y-47625000D03*
D11*
X309562500Y-40675000D03*
X90487500Y-59725000D03*
D10*
X83537500Y-66675000D03*
X97437500Y-66675000D03*
D11*
X90487500Y-73625000D03*
D10*
X207362500Y-66675000D03*
D11*
X214312500Y-59725000D03*
D10*
X221262500Y-66675000D03*
D11*
X214312500Y-73625000D03*
X109537500Y-40675000D03*
X109537500Y-54575000D03*
D10*
X102587500Y-47625000D03*
X116487500Y-47625000D03*
D11*
X90487500Y-92675000D03*
X90487500Y-78775000D03*
D10*
X97437500Y-85725000D03*
X83537500Y-85725000D03*
D11*
X128587500Y-78775000D03*
X128587500Y-92675000D03*
D10*
X121637500Y-85725000D03*
X135537500Y-85725000D03*
D11*
X33337500Y-59725000D03*
D10*
X26387500Y-66675000D03*
D11*
X33337500Y-73625000D03*
D10*
X40287500Y-66675000D03*
X121637500Y-104775000D03*
D11*
X128587500Y-97825000D03*
D10*
X135537500Y-104775000D03*
D11*
X128587500Y-111725000D03*
D10*
X40287500Y-104775000D03*
D11*
X33337500Y-97825000D03*
D10*
X26387500Y-104775000D03*
D11*
X33337500Y-111725000D03*
X90487500Y-54575000D03*
X90487500Y-40675000D03*
D10*
X83537500Y-47625000D03*
X97437500Y-47625000D03*
D11*
X52387500Y-97825000D03*
D10*
X59337500Y-104775000D03*
X45437500Y-104775000D03*
D11*
X52387500Y-111725000D03*
D13*
X176364392Y-62507627D03*
D12*
X176364392Y-72336411D03*
X166535608Y-62507627D03*
D13*
X166535608Y-72336411D03*
D10*
X240312500Y-85725000D03*
D11*
X233362500Y-92675000D03*
X233362500Y-78775000D03*
D10*
X226412500Y-85725000D03*
X278412500Y-66675000D03*
D11*
X271462500Y-73625000D03*
X271462500Y-59725000D03*
D10*
X264512500Y-66675000D03*
M02*
