M48
; DRILL file {KiCad (6.0.2)} date Thu Feb 24 22:30:56 2022
; FORMAT={-:-/ absolute / metric / decimal}
; #@! TF.CreationDate,2022-02-24T22:30:56+09:00
; #@! TF.GenerationSoftware,Kicad,Pcbnew,(6.0.2)
; #@! TF.FileFunction,Plated,1,2,PTH
FMAT,2
METRIC
; #@! TA.AperFunction,Plated,PTH,ComponentDrill
T1C0.300
%
G90
G05
T1
G00X26.387Y-40.675
M15
G01X26.387Y-54.575
M16
G05
G00X26.387Y-59.725
M15
G01X26.387Y-73.625
M16
G05
G00X26.387Y-78.775
M15
G01X26.387Y-92.675
M16
G05
G00X26.387Y-97.825
M15
G01X26.387Y-111.725
M16
G05
G00X26.387Y-40.675
M15
G01X40.288Y-40.675
M16
G05
G00X26.387Y-54.575
M15
G01X40.288Y-54.575
M16
G05
G00X26.387Y-59.725
M15
G01X40.288Y-59.725
M16
G05
G00X26.387Y-73.625
M15
G01X40.288Y-73.625
M16
G05
G00X26.387Y-78.775
M15
G01X40.288Y-78.775
M16
G05
G00X26.387Y-92.675
M15
G01X40.288Y-92.675
M16
G05
G00X26.387Y-97.825
M15
G01X40.288Y-97.825
M16
G05
G00X26.387Y-111.725
M15
G01X40.288Y-111.725
M16
G05
G00X40.288Y-40.675
M15
G01X40.288Y-54.575
M16
G05
G00X40.288Y-59.725
M15
G01X40.288Y-73.625
M16
G05
G00X40.288Y-78.775
M15
G01X40.288Y-92.675
M16
G05
G00X40.288Y-97.825
M15
G01X40.288Y-111.725
M16
G05
G00X45.438Y-40.675
M15
G01X45.438Y-54.575
M16
G05
G00X45.438Y-59.725
M15
G01X45.438Y-73.625
M16
G05
G00X45.438Y-78.775
M15
G01X45.438Y-92.675
M16
G05
G00X45.438Y-97.825
M15
G01X45.438Y-111.725
M16
G05
G00X45.438Y-40.675
M15
G01X59.337Y-40.675
M16
G05
G00X45.438Y-54.575
M15
G01X59.337Y-54.575
M16
G05
G00X45.438Y-59.725
M15
G01X59.337Y-59.725
M16
G05
G00X45.438Y-73.625
M15
G01X59.337Y-73.625
M16
G05
G00X45.438Y-78.775
M15
G01X59.337Y-78.775
M16
G05
G00X45.438Y-92.675
M15
G01X59.337Y-92.675
M16
G05
G00X45.438Y-97.825
M15
G01X59.337Y-97.825
M16
G05
G00X45.438Y-111.725
M15
G01X59.337Y-111.725
M16
G05
G00X59.337Y-40.675
M15
G01X59.337Y-54.575
M16
G05
G00X59.337Y-59.725
M15
G01X59.337Y-73.625
M16
G05
G00X59.337Y-78.775
M15
G01X59.337Y-92.675
M16
G05
G00X59.337Y-97.825
M15
G01X59.337Y-111.725
M16
G05
G00X64.487Y-40.675
M15
G01X64.487Y-54.575
M16
G05
G00X64.487Y-59.725
M15
G01X64.487Y-73.625
M16
G05
G00X64.487Y-78.775
M15
G01X64.487Y-92.675
M16
G05
G00X64.487Y-97.825
M15
G01X64.487Y-111.725
M16
G05
G00X64.487Y-40.675
M15
G01X78.388Y-40.675
M16
G05
G00X64.487Y-54.575
M15
G01X78.388Y-54.575
M16
G05
G00X64.487Y-59.725
M15
G01X78.388Y-59.725
M16
G05
G00X64.487Y-73.625
M15
G01X78.388Y-73.625
M16
G05
G00X64.487Y-78.775
M15
G01X78.388Y-78.775
M16
G05
G00X64.487Y-92.675
M15
G01X78.388Y-92.675
M16
G05
G00X64.487Y-97.825
M15
G01X78.388Y-97.825
M16
G05
G00X64.487Y-111.725
M15
G01X78.388Y-111.725
M16
G05
G00X78.388Y-40.675
M15
G01X78.388Y-54.575
M16
G05
G00X78.388Y-59.725
M15
G01X78.388Y-73.625
M16
G05
G00X78.388Y-78.775
M15
G01X78.388Y-92.675
M16
G05
G00X78.388Y-97.825
M15
G01X78.388Y-111.725
M16
G05
G00X83.537Y-40.675
M15
G01X83.537Y-54.575
M16
G05
G00X83.537Y-59.725
M15
G01X83.537Y-73.625
M16
G05
G00X83.537Y-78.775
M15
G01X83.537Y-92.675
M16
G05
G00X83.537Y-97.825
M15
G01X83.537Y-111.725
M16
G05
G00X83.537Y-40.675
M15
G01X97.438Y-40.675
M16
G05
G00X83.537Y-54.575
M15
G01X97.438Y-54.575
M16
G05
G00X83.537Y-59.725
M15
G01X97.438Y-59.725
M16
G05
G00X83.537Y-73.625
M15
G01X97.438Y-73.625
M16
G05
G00X83.537Y-78.775
M15
G01X97.438Y-78.775
M16
G05
G00X83.537Y-92.675
M15
G01X97.438Y-92.675
M16
G05
G00X83.537Y-97.825
M15
G01X97.438Y-97.825
M16
G05
G00X83.537Y-111.725
M15
G01X97.438Y-111.725
M16
G05
G00X97.438Y-40.675
M15
G01X97.438Y-54.575
M16
G05
G00X97.438Y-59.725
M15
G01X97.438Y-73.625
M16
G05
G00X97.438Y-78.775
M15
G01X97.438Y-92.675
M16
G05
G00X97.438Y-97.825
M15
G01X97.438Y-111.725
M16
G05
G00X102.587Y-40.675
M15
G01X102.587Y-54.575
M16
G05
G00X102.587Y-59.725
M15
G01X102.587Y-73.625
M16
G05
G00X102.587Y-78.775
M15
G01X102.587Y-92.675
M16
G05
G00X102.587Y-97.825
M15
G01X102.587Y-111.725
M16
G05
G00X102.587Y-40.675
M15
G01X116.487Y-40.675
M16
G05
G00X102.587Y-54.575
M15
G01X116.487Y-54.575
M16
G05
G00X102.587Y-59.725
M15
G01X116.487Y-59.725
M16
G05
G00X102.587Y-73.625
M15
G01X116.487Y-73.625
M16
G05
G00X102.587Y-78.775
M15
G01X116.487Y-78.775
M16
G05
G00X102.587Y-92.675
M15
G01X116.487Y-92.675
M16
G05
G00X102.587Y-97.825
M15
G01X116.487Y-97.825
M16
G05
G00X102.587Y-111.725
M15
G01X116.487Y-111.725
M16
G05
G00X116.487Y-40.675
M15
G01X116.487Y-54.575
M16
G05
G00X116.487Y-59.725
M15
G01X116.487Y-73.625
M16
G05
G00X116.487Y-78.775
M15
G01X116.487Y-92.675
M16
G05
G00X116.487Y-97.825
M15
G01X116.487Y-111.725
M16
G05
G00X121.637Y-40.675
M15
G01X121.637Y-54.575
M16
G05
G00X121.637Y-59.725
M15
G01X121.637Y-73.625
M16
G05
G00X121.637Y-78.775
M15
G01X121.637Y-92.675
M16
G05
G00X121.637Y-97.825
M15
G01X121.637Y-111.725
M16
G05
G00X121.637Y-40.675
M15
G01X135.537Y-40.675
M16
G05
G00X121.637Y-54.575
M15
G01X135.537Y-54.575
M16
G05
G00X121.637Y-59.725
M15
G01X135.537Y-59.725
M16
G05
G00X121.637Y-73.625
M15
G01X135.537Y-73.625
M16
G05
G00X121.637Y-78.775
M15
G01X135.537Y-78.775
M16
G05
G00X121.637Y-92.675
M15
G01X135.537Y-92.675
M16
G05
G00X121.637Y-97.825
M15
G01X135.537Y-97.825
M16
G05
G00X121.637Y-111.725
M15
G01X135.537Y-111.725
M16
G05
G00X135.537Y-40.675
M15
G01X135.537Y-54.575
M16
G05
G00X135.537Y-59.725
M15
G01X135.537Y-73.625
M16
G05
G00X135.537Y-78.775
M15
G01X135.537Y-92.675
M16
G05
G00X135.537Y-97.825
M15
G01X135.537Y-111.725
M16
G05
G00X148.151Y-53.952
M15
G01X157.98Y-44.123
M16
G05
G00X148.151Y-53.952
M15
G01X157.98Y-63.78
M16
G05
G00X157.98Y-44.123
M15
G01X167.808Y-53.952
M16
G05
G00X157.98Y-63.78
M15
G01X167.808Y-53.952
M16
G05
G00X161.621Y-40.481
M15
G01X171.45Y-30.652
M16
G05
G00X161.621Y-40.481
M15
G01X171.45Y-50.31
M16
G05
G00X161.621Y-67.422
M15
G01X171.45Y-57.593
M16
G05
G00X161.621Y-67.422
M15
G01X171.45Y-77.251
M16
G05
G00X171.45Y-30.652
M15
G01X181.279Y-40.481
M16
G05
G00X171.45Y-50.31
M15
G01X181.279Y-40.481
M16
G05
G00X171.45Y-57.593
M15
G01X181.279Y-67.422
M16
G05
G00X171.45Y-77.251
M15
G01X181.279Y-67.422
M16
G05
G00X175.092Y-53.952
M15
G01X184.92Y-44.123
M16
G05
G00X175.092Y-53.952
M15
G01X184.92Y-63.78
M16
G05
G00X184.92Y-44.123
M15
G01X194.749Y-53.952
M16
G05
G00X184.92Y-63.78
M15
G01X194.749Y-53.952
M16
G05
G00X207.362Y-40.675
M15
G01X207.362Y-54.575
M16
G05
G00X207.362Y-59.725
M15
G01X207.362Y-73.625
M16
G05
G00X207.362Y-78.775
M15
G01X207.362Y-92.675
M16
G05
G00X207.362Y-97.825
M15
G01X207.362Y-111.725
M16
G05
G00X207.362Y-40.675
M15
G01X221.262Y-40.675
M16
G05
G00X207.362Y-54.575
M15
G01X221.262Y-54.575
M16
G05
G00X207.362Y-59.725
M15
G01X221.262Y-59.725
M16
G05
G00X207.362Y-73.625
M15
G01X221.262Y-73.625
M16
G05
G00X207.362Y-78.775
M15
G01X221.262Y-78.775
M16
G05
G00X207.362Y-92.675
M15
G01X221.262Y-92.675
M16
G05
G00X207.362Y-97.825
M15
G01X221.262Y-97.825
M16
G05
G00X207.362Y-111.725
M15
G01X221.262Y-111.725
M16
G05
G00X221.262Y-40.675
M15
G01X221.262Y-54.575
M16
G05
G00X221.262Y-59.725
M15
G01X221.262Y-73.625
M16
G05
G00X221.262Y-78.775
M15
G01X221.262Y-92.675
M16
G05
G00X221.262Y-97.825
M15
G01X221.262Y-111.725
M16
G05
G00X226.412Y-40.675
M15
G01X226.412Y-54.575
M16
G05
G00X226.412Y-59.725
M15
G01X226.412Y-73.625
M16
G05
G00X226.412Y-78.775
M15
G01X226.412Y-92.675
M16
G05
G00X226.412Y-97.825
M15
G01X226.412Y-111.725
M16
G05
G00X226.412Y-40.675
M15
G01X240.312Y-40.675
M16
G05
G00X226.412Y-54.575
M15
G01X240.312Y-54.575
M16
G05
G00X226.412Y-59.725
M15
G01X240.312Y-59.725
M16
G05
G00X226.412Y-73.625
M15
G01X240.312Y-73.625
M16
G05
G00X226.412Y-78.775
M15
G01X240.312Y-78.775
M16
G05
G00X226.412Y-92.675
M15
G01X240.312Y-92.675
M16
G05
G00X226.412Y-97.825
M15
G01X240.312Y-97.825
M16
G05
G00X226.412Y-111.725
M15
G01X240.312Y-111.725
M16
G05
G00X240.312Y-40.675
M15
G01X240.312Y-54.575
M16
G05
G00X240.312Y-59.725
M15
G01X240.312Y-73.625
M16
G05
G00X240.312Y-78.775
M15
G01X240.312Y-92.675
M16
G05
G00X240.312Y-97.825
M15
G01X240.312Y-111.725
M16
G05
G00X245.462Y-40.675
M15
G01X245.462Y-54.575
M16
G05
G00X245.462Y-59.725
M15
G01X245.462Y-73.625
M16
G05
G00X245.462Y-78.775
M15
G01X245.462Y-92.675
M16
G05
G00X245.462Y-97.825
M15
G01X245.462Y-111.725
M16
G05
G00X245.462Y-40.675
M15
G01X259.363Y-40.675
M16
G05
G00X245.462Y-54.575
M15
G01X259.363Y-54.575
M16
G05
G00X245.462Y-59.725
M15
G01X259.363Y-59.725
M16
G05
G00X245.462Y-73.625
M15
G01X259.363Y-73.625
M16
G05
G00X245.462Y-78.775
M15
G01X259.363Y-78.775
M16
G05
G00X245.462Y-92.675
M15
G01X259.363Y-92.675
M16
G05
G00X245.462Y-97.825
M15
G01X259.363Y-97.825
M16
G05
G00X245.462Y-111.725
M15
G01X259.363Y-111.725
M16
G05
G00X259.363Y-40.675
M15
G01X259.363Y-54.575
M16
G05
G00X259.363Y-59.725
M15
G01X259.363Y-73.625
M16
G05
G00X259.363Y-78.775
M15
G01X259.363Y-92.675
M16
G05
G00X259.363Y-97.825
M15
G01X259.363Y-111.725
M16
G05
G00X264.512Y-40.675
M15
G01X264.512Y-54.575
M16
G05
G00X264.512Y-59.725
M15
G01X264.512Y-73.625
M16
G05
G00X264.512Y-78.775
M15
G01X264.512Y-92.675
M16
G05
G00X264.512Y-97.825
M15
G01X264.512Y-111.725
M16
G05
G00X264.512Y-40.675
M15
G01X278.412Y-40.675
M16
G05
G00X264.512Y-54.575
M15
G01X278.412Y-54.575
M16
G05
G00X264.512Y-59.725
M15
G01X278.412Y-59.725
M16
G05
G00X264.512Y-73.625
M15
G01X278.412Y-73.625
M16
G05
G00X264.512Y-78.775
M15
G01X278.412Y-78.775
M16
G05
G00X264.512Y-92.675
M15
G01X278.412Y-92.675
M16
G05
G00X264.512Y-97.825
M15
G01X278.412Y-97.825
M16
G05
G00X264.512Y-111.725
M15
G01X278.412Y-111.725
M16
G05
G00X278.412Y-40.675
M15
G01X278.412Y-54.575
M16
G05
G00X278.412Y-59.725
M15
G01X278.412Y-73.625
M16
G05
G00X278.412Y-78.775
M15
G01X278.412Y-92.675
M16
G05
G00X278.412Y-97.825
M15
G01X278.412Y-111.725
M16
G05
G00X283.562Y-40.675
M15
G01X283.562Y-54.575
M16
G05
G00X283.562Y-59.725
M15
G01X283.562Y-73.625
M16
G05
G00X283.562Y-78.775
M15
G01X283.562Y-92.675
M16
G05
G00X283.562Y-97.825
M15
G01X283.562Y-111.725
M16
G05
G00X283.562Y-40.675
M15
G01X297.462Y-40.675
M16
G05
G00X283.562Y-54.575
M15
G01X297.462Y-54.575
M16
G05
G00X283.562Y-59.725
M15
G01X297.462Y-59.725
M16
G05
G00X283.562Y-73.625
M15
G01X297.462Y-73.625
M16
G05
G00X283.562Y-78.775
M15
G01X297.462Y-78.775
M16
G05
G00X283.562Y-92.675
M15
G01X297.462Y-92.675
M16
G05
G00X283.562Y-97.825
M15
G01X297.462Y-97.825
M16
G05
G00X283.562Y-111.725
M15
G01X297.462Y-111.725
M16
G05
G00X297.462Y-40.675
M15
G01X297.462Y-54.575
M16
G05
G00X297.462Y-59.725
M15
G01X297.462Y-73.625
M16
G05
G00X297.462Y-78.775
M15
G01X297.462Y-92.675
M16
G05
G00X297.462Y-97.825
M15
G01X297.462Y-111.725
M16
G05
G00X302.613Y-40.675
M15
G01X302.613Y-54.575
M16
G05
G00X302.613Y-59.725
M15
G01X302.613Y-73.625
M16
G05
G00X302.613Y-78.775
M15
G01X302.613Y-92.675
M16
G05
G00X302.613Y-97.825
M15
G01X302.613Y-111.725
M16
G05
G00X302.613Y-40.675
M15
G01X316.512Y-40.675
M16
G05
G00X302.613Y-54.575
M15
G01X316.512Y-54.575
M16
G05
G00X302.613Y-59.725
M15
G01X316.512Y-59.725
M16
G05
G00X302.613Y-73.625
M15
G01X316.512Y-73.625
M16
G05
G00X302.613Y-78.775
M15
G01X316.512Y-78.775
M16
G05
G00X302.613Y-92.675
M15
G01X316.512Y-92.675
M16
G05
G00X302.613Y-97.825
M15
G01X316.512Y-97.825
M16
G05
G00X302.613Y-111.725
M15
G01X316.512Y-111.725
M16
G05
G00X316.512Y-40.675
M15
G01X316.512Y-54.575
M16
G05
G00X316.512Y-59.725
M15
G01X316.512Y-73.625
M16
G05
G00X316.512Y-78.775
M15
G01X316.512Y-92.675
M16
G05
G00X316.512Y-97.825
M15
G01X316.512Y-111.725
M16
G05
T0
M30
