G04 #@! TF.GenerationSoftware,KiCad,Pcbnew,(6.0.2)*
G04 #@! TF.CreationDate,2022-02-24T22:30:45+09:00*
G04 #@! TF.ProjectId,RoSoR,526f536f-522e-46b6-9963-61645f706362,rev?*
G04 #@! TF.SameCoordinates,Original*
G04 #@! TF.FileFunction,Profile,NP*
%FSLAX46Y46*%
G04 Gerber Fmt 4.6, Leading zero omitted, Abs format (unit mm)*
G04 Created by KiCad (PCBNEW (6.0.2)) date 2022-02-24 22:30:45*
%MOMM*%
%LPD*%
G01*
G04 APERTURE LIST*
G04 #@! TA.AperFunction,Profile*
%ADD10C,0.100000*%
G04 #@! TD*
G04 #@! TA.AperFunction,Profile*
%ADD11C,0.200000*%
G04 #@! TD*
G04 #@! TA.AperFunction,Profile*
%ADD12C,0.010000*%
G04 #@! TD*
G04 #@! TA.AperFunction,Profile*
%ADD13C,0.120000*%
G04 #@! TD*
G04 #@! TA.AperFunction,Profile*
%ADD14C,0.150000*%
G04 #@! TD*
G04 APERTURE END LIST*
D10*
X328625000Y-20250000D02*
G75*
G03*
X325625000Y-17250000I-3000001J-1D01*
G01*
X17275000Y-17250000D02*
G75*
G03*
X14275000Y-20250000I1J-3000001D01*
G01*
X14275000Y-113050000D02*
G75*
G03*
X17275000Y-116050000I3000001J1D01*
G01*
D11*
X119062500Y-33337500D02*
G75*
G03*
X119062500Y-33337500I-1190625J0D01*
G01*
X142875000Y-33337500D02*
G75*
G03*
X142875000Y-33337500I-1190625J0D01*
G01*
X264318750Y-33337500D02*
G75*
G03*
X264318750Y-33337500I-1190625J0D01*
G01*
X276225000Y-26193750D02*
G75*
G03*
X276225000Y-26193750I-1190625J0D01*
G01*
X216693750Y-23812500D02*
G75*
G03*
X216693750Y-23812500I-1190625J0D01*
G01*
X145256250Y-30956250D02*
G75*
G03*
X145256250Y-30956250I-1190625J0D01*
G01*
X109537500Y-23812500D02*
G75*
G03*
X109537500Y-23812500I-1190625J0D01*
G01*
X211931250Y-23812500D02*
G75*
G03*
X211931250Y-23812500I-1190625J0D01*
G01*
X123825000Y-33337500D02*
G75*
G03*
X123825000Y-33337500I-1190625J0D01*
G01*
X154781250Y-26193750D02*
G75*
G03*
X154781250Y-26193750I-1190625J0D01*
G01*
X228600000Y-30956250D02*
G75*
G03*
X228600000Y-30956250I-1190625J0D01*
G01*
X280987500Y-26193750D02*
G75*
G03*
X280987500Y-26193750I-1190625J0D01*
G01*
X119062500Y-23812500D02*
G75*
G03*
X119062500Y-23812500I-1190625J0D01*
G01*
X230981250Y-33337500D02*
G75*
G03*
X230981250Y-33337500I-1190625J0D01*
G01*
X83343750Y-30956250D02*
G75*
G03*
X83343750Y-30956250I-1190625J0D01*
G01*
X250031250Y-33337500D02*
G75*
G03*
X250031250Y-33337500I-1190625J0D01*
G01*
X259556250Y-28575000D02*
G75*
G03*
X259556250Y-28575000I-1190625J0D01*
G01*
X197643750Y-33337500D02*
G75*
G03*
X197643750Y-33337500I-1190625J0D01*
G01*
X233362500Y-26193750D02*
G75*
G03*
X233362500Y-26193750I-1190625J0D01*
G01*
X121443750Y-26193750D02*
G75*
G03*
X121443750Y-26193750I-1190625J0D01*
G01*
D10*
X325625000Y-17250000D02*
X17275000Y-17250000D01*
D11*
X128587500Y-33337500D02*
G75*
G03*
X128587500Y-33337500I-1190625J0D01*
G01*
X195262500Y-26193750D02*
G75*
G03*
X195262500Y-26193750I-1190625J0D01*
G01*
X80962500Y-33337500D02*
G75*
G03*
X80962500Y-33337500I-1190625J0D01*
G01*
X142875000Y-28575000D02*
G75*
G03*
X142875000Y-28575000I-1190625J0D01*
G01*
X219075000Y-30956250D02*
G75*
G03*
X219075000Y-30956250I-1190625J0D01*
G01*
X238125000Y-30956250D02*
G75*
G03*
X238125000Y-30956250I-1190625J0D01*
G01*
X200025000Y-26193750D02*
G75*
G03*
X200025000Y-26193750I-1190625J0D01*
G01*
X235743750Y-28575000D02*
G75*
G03*
X235743750Y-28575000I-1190625J0D01*
G01*
X269081250Y-28575000D02*
G75*
G03*
X269081250Y-28575000I-1190625J0D01*
G01*
X76200000Y-33337500D02*
G75*
G03*
X76200000Y-33337500I-1190625J0D01*
G01*
X90487500Y-33337500D02*
G75*
G03*
X90487500Y-33337500I-1190625J0D01*
G01*
X61912500Y-28575000D02*
G75*
G03*
X61912500Y-28575000I-1190625J0D01*
G01*
X133350000Y-23812500D02*
G75*
G03*
X133350000Y-23812500I-1190625J0D01*
G01*
X102393750Y-26193750D02*
G75*
G03*
X102393750Y-26193750I-1190625J0D01*
G01*
X197643750Y-28575000D02*
G75*
G03*
X197643750Y-28575000I-1190625J0D01*
G01*
X271462500Y-26193750D02*
G75*
G03*
X271462500Y-26193750I-1190625J0D01*
G01*
X264318750Y-23812500D02*
G75*
G03*
X264318750Y-23812500I-1190625J0D01*
G01*
X114300000Y-33337500D02*
G75*
G03*
X114300000Y-33337500I-1190625J0D01*
G01*
X200025000Y-30956250D02*
G75*
G03*
X200025000Y-30956250I-1190625J0D01*
G01*
X242887500Y-30956250D02*
G75*
G03*
X242887500Y-30956250I-1190625J0D01*
G01*
X104775000Y-23812500D02*
G75*
G03*
X104775000Y-23812500I-1190625J0D01*
G01*
X130968750Y-26193750D02*
G75*
G03*
X130968750Y-26193750I-1190625J0D01*
G01*
X114300000Y-28575000D02*
G75*
G03*
X114300000Y-28575000I-1190625J0D01*
G01*
X80962500Y-23812500D02*
G75*
G03*
X80962500Y-23812500I-1190625J0D01*
G01*
X109537500Y-28575000D02*
G75*
G03*
X109537500Y-28575000I-1190625J0D01*
G01*
X107156250Y-26193750D02*
G75*
G03*
X107156250Y-26193750I-1190625J0D01*
G01*
X121443750Y-30956250D02*
G75*
G03*
X121443750Y-30956250I-1190625J0D01*
G01*
X202406250Y-33337500D02*
G75*
G03*
X202406250Y-33337500I-1190625J0D01*
G01*
X190500000Y-30956250D02*
G75*
G03*
X190500000Y-30956250I-1190625J0D01*
G01*
X250031250Y-28575000D02*
G75*
G03*
X250031250Y-28575000I-1190625J0D01*
G01*
X66675000Y-33337500D02*
G75*
G03*
X66675000Y-33337500I-1190625J0D01*
G01*
X138112500Y-33337500D02*
G75*
G03*
X138112500Y-33337500I-1190625J0D01*
G01*
X280987500Y-30956250D02*
G75*
G03*
X280987500Y-30956250I-1190625J0D01*
G01*
X214312500Y-26193750D02*
G75*
G03*
X214312500Y-26193750I-1190625J0D01*
G01*
X245268750Y-33337500D02*
G75*
G03*
X245268750Y-33337500I-1190625J0D01*
G01*
X71437500Y-23812500D02*
G75*
G03*
X71437500Y-23812500I-1190625J0D01*
G01*
X207168750Y-23812500D02*
G75*
G03*
X207168750Y-23812500I-1190625J0D01*
G01*
X276225000Y-30956250D02*
G75*
G03*
X276225000Y-30956250I-1190625J0D01*
G01*
X266700000Y-26193750D02*
G75*
G03*
X266700000Y-26193750I-1190625J0D01*
G01*
X266700000Y-30956250D02*
G75*
G03*
X266700000Y-30956250I-1190625J0D01*
G01*
X126206250Y-30956250D02*
G75*
G03*
X126206250Y-30956250I-1190625J0D01*
G01*
X240506250Y-28575000D02*
G75*
G03*
X240506250Y-28575000I-1190625J0D01*
G01*
X138112500Y-23812500D02*
G75*
G03*
X138112500Y-23812500I-1190625J0D01*
G01*
X216693750Y-33337500D02*
G75*
G03*
X216693750Y-33337500I-1190625J0D01*
G01*
X109537500Y-33337500D02*
G75*
G03*
X109537500Y-33337500I-1190625J0D01*
G01*
X92868750Y-26193750D02*
G75*
G03*
X92868750Y-26193750I-1190625J0D01*
G01*
X154781250Y-30956250D02*
G75*
G03*
X154781250Y-30956250I-1190625J0D01*
G01*
D10*
X328625000Y-113050000D02*
X328625000Y-20250000D01*
D11*
X111918750Y-26193750D02*
G75*
G03*
X111918750Y-26193750I-1190625J0D01*
G01*
X116681250Y-30956250D02*
G75*
G03*
X116681250Y-30956250I-1190625J0D01*
G01*
X140493750Y-26193750D02*
G75*
G03*
X140493750Y-26193750I-1190625J0D01*
G01*
X76200000Y-28575000D02*
G75*
G03*
X76200000Y-28575000I-1190625J0D01*
G01*
X261937500Y-26193750D02*
G75*
G03*
X261937500Y-26193750I-1190625J0D01*
G01*
X97631250Y-26193750D02*
G75*
G03*
X97631250Y-26193750I-1190625J0D01*
G01*
X88106250Y-30956250D02*
G75*
G03*
X88106250Y-30956250I-1190625J0D01*
G01*
X92868750Y-30956250D02*
G75*
G03*
X92868750Y-30956250I-1190625J0D01*
G01*
X278606250Y-28575000D02*
G75*
G03*
X278606250Y-28575000I-1190625J0D01*
G01*
X130968750Y-30956250D02*
G75*
G03*
X130968750Y-30956250I-1190625J0D01*
G01*
X235743750Y-33337500D02*
G75*
G03*
X235743750Y-33337500I-1190625J0D01*
G01*
X254793750Y-23812500D02*
G75*
G03*
X254793750Y-23812500I-1190625J0D01*
G01*
X245268750Y-23812500D02*
G75*
G03*
X245268750Y-23812500I-1190625J0D01*
G01*
X250031250Y-23812500D02*
G75*
G03*
X250031250Y-23812500I-1190625J0D01*
G01*
X88106250Y-26193750D02*
G75*
G03*
X88106250Y-26193750I-1190625J0D01*
G01*
X226218750Y-23812500D02*
G75*
G03*
X226218750Y-23812500I-1190625J0D01*
G01*
X152400000Y-23812500D02*
G75*
G03*
X152400000Y-23812500I-1190625J0D01*
G01*
X111918750Y-30956250D02*
G75*
G03*
X111918750Y-30956250I-1190625J0D01*
G01*
X209550000Y-30956250D02*
G75*
G03*
X209550000Y-30956250I-1190625J0D01*
G01*
X73818750Y-30956250D02*
G75*
G03*
X73818750Y-30956250I-1190625J0D01*
G01*
X192881250Y-33337500D02*
G75*
G03*
X192881250Y-33337500I-1190625J0D01*
G01*
X64293750Y-30956250D02*
G75*
G03*
X64293750Y-30956250I-1190625J0D01*
G01*
X100012500Y-33337500D02*
G75*
G03*
X100012500Y-33337500I-1190625J0D01*
G01*
X204787500Y-26193750D02*
G75*
G03*
X204787500Y-26193750I-1190625J0D01*
G01*
X104775000Y-28575000D02*
G75*
G03*
X104775000Y-28575000I-1190625J0D01*
G01*
X221456250Y-28575000D02*
G75*
G03*
X221456250Y-28575000I-1190625J0D01*
G01*
X278606250Y-23812500D02*
G75*
G03*
X278606250Y-23812500I-1190625J0D01*
G01*
X195262500Y-30956250D02*
G75*
G03*
X195262500Y-30956250I-1190625J0D01*
G01*
X273843750Y-33337500D02*
G75*
G03*
X273843750Y-33337500I-1190625J0D01*
G01*
X150018750Y-30956250D02*
G75*
G03*
X150018750Y-30956250I-1190625J0D01*
G01*
X95250000Y-28575000D02*
G75*
G03*
X95250000Y-28575000I-1190625J0D01*
G01*
X254793750Y-33337500D02*
G75*
G03*
X254793750Y-33337500I-1190625J0D01*
G01*
X190500000Y-26193750D02*
G75*
G03*
X190500000Y-26193750I-1190625J0D01*
G01*
X219075000Y-26193750D02*
G75*
G03*
X219075000Y-26193750I-1190625J0D01*
G01*
X259556250Y-23812500D02*
G75*
G03*
X259556250Y-23812500I-1190625J0D01*
G01*
X235743750Y-23812500D02*
G75*
G03*
X235743750Y-23812500I-1190625J0D01*
G01*
X83343750Y-26193750D02*
G75*
G03*
X83343750Y-26193750I-1190625J0D01*
G01*
X133350000Y-28575000D02*
G75*
G03*
X133350000Y-28575000I-1190625J0D01*
G01*
X242887500Y-26193750D02*
G75*
G03*
X242887500Y-26193750I-1190625J0D01*
G01*
X142875000Y-23812500D02*
G75*
G03*
X142875000Y-23812500I-1190625J0D01*
G01*
X209550000Y-26193750D02*
G75*
G03*
X209550000Y-26193750I-1190625J0D01*
G01*
X207168750Y-28575000D02*
G75*
G03*
X207168750Y-28575000I-1190625J0D01*
G01*
X97631250Y-30956250D02*
G75*
G03*
X97631250Y-30956250I-1190625J0D01*
G01*
X226218750Y-28575000D02*
G75*
G03*
X226218750Y-28575000I-1190625J0D01*
G01*
X216693750Y-28575000D02*
G75*
G03*
X216693750Y-28575000I-1190625J0D01*
G01*
X204787500Y-30956250D02*
G75*
G03*
X204787500Y-30956250I-1190625J0D01*
G01*
X100012500Y-23812500D02*
G75*
G03*
X100012500Y-23812500I-1190625J0D01*
G01*
X264318750Y-28575000D02*
G75*
G03*
X264318750Y-28575000I-1190625J0D01*
G01*
X273843750Y-23812500D02*
G75*
G03*
X273843750Y-23812500I-1190625J0D01*
G01*
X78581250Y-26193750D02*
G75*
G03*
X78581250Y-26193750I-1190625J0D01*
G01*
X228600000Y-26193750D02*
G75*
G03*
X228600000Y-26193750I-1190625J0D01*
G01*
X104775000Y-33337500D02*
G75*
G03*
X104775000Y-33337500I-1190625J0D01*
G01*
X254793750Y-28575000D02*
G75*
G03*
X254793750Y-28575000I-1190625J0D01*
G01*
X152400000Y-33337500D02*
G75*
G03*
X152400000Y-33337500I-1190625J0D01*
G01*
X69056250Y-30956250D02*
G75*
G03*
X69056250Y-30956250I-1190625J0D01*
G01*
X123825000Y-23812500D02*
G75*
G03*
X123825000Y-23812500I-1190625J0D01*
G01*
X85725000Y-28575000D02*
G75*
G03*
X85725000Y-28575000I-1190625J0D01*
G01*
X271462500Y-30956250D02*
G75*
G03*
X271462500Y-30956250I-1190625J0D01*
G01*
X95250000Y-33337500D02*
G75*
G03*
X95250000Y-33337500I-1190625J0D01*
G01*
X207168750Y-33337500D02*
G75*
G03*
X207168750Y-33337500I-1190625J0D01*
G01*
X188118750Y-28575000D02*
G75*
G03*
X188118750Y-28575000I-1190625J0D01*
G01*
X71437500Y-33337500D02*
G75*
G03*
X71437500Y-33337500I-1190625J0D01*
G01*
X283368750Y-28575000D02*
G75*
G03*
X283368750Y-28575000I-1190625J0D01*
G01*
X245268750Y-28575000D02*
G75*
G03*
X245268750Y-28575000I-1190625J0D01*
G01*
X247650000Y-30956250D02*
G75*
G03*
X247650000Y-30956250I-1190625J0D01*
G01*
X269081250Y-23812500D02*
G75*
G03*
X269081250Y-23812500I-1190625J0D01*
G01*
X95250000Y-23812500D02*
G75*
G03*
X95250000Y-23812500I-1190625J0D01*
G01*
X119062500Y-28575000D02*
G75*
G03*
X119062500Y-28575000I-1190625J0D01*
G01*
X150018750Y-26193750D02*
G75*
G03*
X150018750Y-26193750I-1190625J0D01*
G01*
X64293750Y-26193750D02*
G75*
G03*
X64293750Y-26193750I-1190625J0D01*
G01*
X147637500Y-33337500D02*
G75*
G03*
X147637500Y-33337500I-1190625J0D01*
G01*
X211931250Y-28575000D02*
G75*
G03*
X211931250Y-28575000I-1190625J0D01*
G01*
X240506250Y-23812500D02*
G75*
G03*
X240506250Y-23812500I-1190625J0D01*
G01*
X102393750Y-30956250D02*
G75*
G03*
X102393750Y-30956250I-1190625J0D01*
G01*
X221456250Y-23812500D02*
G75*
G03*
X221456250Y-23812500I-1190625J0D01*
G01*
X135731250Y-30956250D02*
G75*
G03*
X135731250Y-30956250I-1190625J0D01*
G01*
X135731250Y-26193750D02*
G75*
G03*
X135731250Y-26193750I-1190625J0D01*
G01*
X123825000Y-28575000D02*
G75*
G03*
X123825000Y-28575000I-1190625J0D01*
G01*
X147637500Y-28575000D02*
G75*
G03*
X147637500Y-28575000I-1190625J0D01*
G01*
X214312500Y-30956250D02*
G75*
G03*
X214312500Y-30956250I-1190625J0D01*
G01*
X128587500Y-23812500D02*
G75*
G03*
X128587500Y-23812500I-1190625J0D01*
G01*
X230981250Y-28575000D02*
G75*
G03*
X230981250Y-28575000I-1190625J0D01*
G01*
X85725000Y-33337500D02*
G75*
G03*
X85725000Y-33337500I-1190625J0D01*
G01*
X257175000Y-30956250D02*
G75*
G03*
X257175000Y-30956250I-1190625J0D01*
G01*
X192881250Y-28575000D02*
G75*
G03*
X192881250Y-28575000I-1190625J0D01*
G01*
X107156250Y-30956250D02*
G75*
G03*
X107156250Y-30956250I-1190625J0D01*
G01*
X278606250Y-33337500D02*
G75*
G03*
X278606250Y-33337500I-1190625J0D01*
G01*
X223837500Y-30956250D02*
G75*
G03*
X223837500Y-30956250I-1190625J0D01*
G01*
X90487500Y-28575000D02*
G75*
G03*
X90487500Y-28575000I-1190625J0D01*
G01*
X133350000Y-33337500D02*
G75*
G03*
X133350000Y-33337500I-1190625J0D01*
G01*
X261937500Y-30956250D02*
G75*
G03*
X261937500Y-30956250I-1190625J0D01*
G01*
X85725000Y-23812500D02*
G75*
G03*
X85725000Y-23812500I-1190625J0D01*
G01*
X226218750Y-33337500D02*
G75*
G03*
X226218750Y-33337500I-1190625J0D01*
G01*
X73818750Y-26193750D02*
G75*
G03*
X73818750Y-26193750I-1190625J0D01*
G01*
X197643750Y-23812500D02*
G75*
G03*
X197643750Y-23812500I-1190625J0D01*
G01*
X116681250Y-26193750D02*
G75*
G03*
X116681250Y-26193750I-1190625J0D01*
G01*
X69056250Y-26193750D02*
G75*
G03*
X69056250Y-26193750I-1190625J0D01*
G01*
D10*
X325625000Y-116050000D02*
G75*
G03*
X328625000Y-113050000I-1J3000001D01*
G01*
D11*
X100012500Y-28575000D02*
G75*
G03*
X100012500Y-28575000I-1190625J0D01*
G01*
X145256250Y-26193750D02*
G75*
G03*
X145256250Y-26193750I-1190625J0D01*
G01*
X152400000Y-28575000D02*
G75*
G03*
X152400000Y-28575000I-1190625J0D01*
G01*
X66675000Y-23812500D02*
G75*
G03*
X66675000Y-23812500I-1190625J0D01*
G01*
X269081250Y-33337500D02*
G75*
G03*
X269081250Y-33337500I-1190625J0D01*
G01*
X147637500Y-23812500D02*
G75*
G03*
X147637500Y-23812500I-1190625J0D01*
G01*
X273843750Y-28575000D02*
G75*
G03*
X273843750Y-28575000I-1190625J0D01*
G01*
X259556250Y-33337500D02*
G75*
G03*
X259556250Y-33337500I-1190625J0D01*
G01*
X221456250Y-33337500D02*
G75*
G03*
X221456250Y-33337500I-1190625J0D01*
G01*
X138112500Y-28575000D02*
G75*
G03*
X138112500Y-28575000I-1190625J0D01*
G01*
X192881250Y-23812500D02*
G75*
G03*
X192881250Y-23812500I-1190625J0D01*
G01*
X257175000Y-26193750D02*
G75*
G03*
X257175000Y-26193750I-1190625J0D01*
G01*
X114300000Y-23812500D02*
G75*
G03*
X114300000Y-23812500I-1190625J0D01*
G01*
X233362500Y-30956250D02*
G75*
G03*
X233362500Y-30956250I-1190625J0D01*
G01*
X78581250Y-30956250D02*
G75*
G03*
X78581250Y-30956250I-1190625J0D01*
G01*
X252412500Y-26193750D02*
G75*
G03*
X252412500Y-26193750I-1190625J0D01*
G01*
X76200000Y-23812500D02*
G75*
G03*
X76200000Y-23812500I-1190625J0D01*
G01*
X71437500Y-28575000D02*
G75*
G03*
X71437500Y-28575000I-1190625J0D01*
G01*
X90487500Y-23812500D02*
G75*
G03*
X90487500Y-23812500I-1190625J0D01*
G01*
X211931250Y-33337500D02*
G75*
G03*
X211931250Y-33337500I-1190625J0D01*
G01*
X230981250Y-23812500D02*
G75*
G03*
X230981250Y-23812500I-1190625J0D01*
G01*
X157162500Y-28575000D02*
G75*
G03*
X157162500Y-28575000I-1190625J0D01*
G01*
D10*
X14275000Y-20250000D02*
X14275000Y-113050000D01*
D11*
X202406250Y-23812500D02*
G75*
G03*
X202406250Y-23812500I-1190625J0D01*
G01*
X247650000Y-26193750D02*
G75*
G03*
X247650000Y-26193750I-1190625J0D01*
G01*
X238125000Y-26193750D02*
G75*
G03*
X238125000Y-26193750I-1190625J0D01*
G01*
X140493750Y-30956250D02*
G75*
G03*
X140493750Y-30956250I-1190625J0D01*
G01*
D10*
X17275000Y-116050000D02*
X325625000Y-116050000D01*
D11*
X252412500Y-30956250D02*
G75*
G03*
X252412500Y-30956250I-1190625J0D01*
G01*
X223837500Y-26193750D02*
G75*
G03*
X223837500Y-26193750I-1190625J0D01*
G01*
X126206250Y-26193750D02*
G75*
G03*
X126206250Y-26193750I-1190625J0D01*
G01*
X80962500Y-28575000D02*
G75*
G03*
X80962500Y-28575000I-1190625J0D01*
G01*
X66675000Y-28575000D02*
G75*
G03*
X66675000Y-28575000I-1190625J0D01*
G01*
X240506250Y-33337500D02*
G75*
G03*
X240506250Y-33337500I-1190625J0D01*
G01*
X202406250Y-28575000D02*
G75*
G03*
X202406250Y-28575000I-1190625J0D01*
G01*
X128587500Y-28575000D02*
G75*
G03*
X128587500Y-28575000I-1190625J0D01*
G01*
D12*
X17175000Y-21550000D02*
G75*
G03*
X17175000Y-21550000I-1100000J0D01*
G01*
X17175000Y-66650000D02*
G75*
G03*
X17175000Y-66650000I-1100000J0D01*
G01*
X17175000Y-111750000D02*
G75*
G03*
X17175000Y-111750000I-1100000J0D01*
G01*
X327925000Y-21550000D02*
G75*
G03*
X327925000Y-21550000I-1100000J0D01*
G01*
X327925000Y-66650000D02*
G75*
G03*
X327925000Y-66650000I-1100000J0D01*
G01*
X327925000Y-111750000D02*
G75*
G03*
X327925000Y-111750000I-1100000J0D01*
G01*
D13*
X245362500Y-54675000D02*
X245362500Y-40575000D01*
X259462500Y-40575000D02*
X259462500Y-54675000D01*
X259462500Y-54675000D02*
X245362500Y-54675000D01*
X245362500Y-40575000D02*
X259462500Y-40575000D01*
X184920385Y-63921841D02*
X174950179Y-53951635D01*
X184920385Y-43981429D02*
X194890591Y-53951635D01*
X174950179Y-53951635D02*
X184920385Y-43981429D01*
X194890591Y-53951635D02*
X184920385Y-63921841D01*
X45337500Y-40575000D02*
X59437500Y-40575000D01*
X45337500Y-54675000D02*
X45337500Y-40575000D01*
X59437500Y-40575000D02*
X59437500Y-54675000D01*
X59437500Y-54675000D02*
X45337500Y-54675000D01*
X283462500Y-54675000D02*
X283462500Y-40575000D01*
X283462500Y-40575000D02*
X297562500Y-40575000D01*
X297562500Y-40575000D02*
X297562500Y-54675000D01*
X297562500Y-54675000D02*
X283462500Y-54675000D01*
X207262500Y-92775000D02*
X207262500Y-78675000D01*
X207262500Y-78675000D02*
X221362500Y-78675000D01*
X221362500Y-92775000D02*
X207262500Y-92775000D01*
X221362500Y-78675000D02*
X221362500Y-92775000D01*
X102487500Y-92775000D02*
X102487500Y-78675000D01*
X116587500Y-78675000D02*
X116587500Y-92775000D01*
X116587500Y-92775000D02*
X102487500Y-92775000D01*
X102487500Y-78675000D02*
X116587500Y-78675000D01*
X40387500Y-78675000D02*
X40387500Y-92775000D01*
X40387500Y-92775000D02*
X26287500Y-92775000D01*
X26287500Y-78675000D02*
X40387500Y-78675000D01*
X26287500Y-92775000D02*
X26287500Y-78675000D01*
X278512500Y-92775000D02*
X264412500Y-92775000D01*
X278512500Y-78675000D02*
X278512500Y-92775000D01*
X264412500Y-92775000D02*
X264412500Y-78675000D01*
X264412500Y-78675000D02*
X278512500Y-78675000D01*
X259462500Y-78675000D02*
X259462500Y-92775000D01*
X245362500Y-92775000D02*
X245362500Y-78675000D01*
X245362500Y-78675000D02*
X259462500Y-78675000D01*
X259462500Y-92775000D02*
X245362500Y-92775000D01*
X78487500Y-73725000D02*
X64387500Y-73725000D01*
X64387500Y-59625000D02*
X78487500Y-59625000D01*
X64387500Y-73725000D02*
X64387500Y-59625000D01*
X78487500Y-59625000D02*
X78487500Y-73725000D01*
X259462500Y-111825000D02*
X245362500Y-111825000D01*
X259462500Y-97725000D02*
X259462500Y-111825000D01*
X245362500Y-111825000D02*
X245362500Y-97725000D01*
X245362500Y-97725000D02*
X259462500Y-97725000D01*
X121537500Y-73725000D02*
X121537500Y-59625000D01*
X135637500Y-73725000D02*
X121537500Y-73725000D01*
X121537500Y-59625000D02*
X135637500Y-59625000D01*
X135637500Y-59625000D02*
X135637500Y-73725000D01*
X97537500Y-111825000D02*
X83437500Y-111825000D01*
X83437500Y-111825000D02*
X83437500Y-97725000D01*
X97537500Y-97725000D02*
X97537500Y-111825000D01*
X83437500Y-97725000D02*
X97537500Y-97725000D01*
X297562500Y-78675000D02*
X297562500Y-92775000D01*
X283462500Y-78675000D02*
X297562500Y-78675000D01*
X283462500Y-92775000D02*
X283462500Y-78675000D01*
X297562500Y-92775000D02*
X283462500Y-92775000D01*
X64387500Y-54675000D02*
X64387500Y-40575000D01*
X78487500Y-40575000D02*
X78487500Y-54675000D01*
X78487500Y-54675000D02*
X64387500Y-54675000D01*
X64387500Y-40575000D02*
X78487500Y-40575000D01*
X240412500Y-54675000D02*
X226312500Y-54675000D01*
X226312500Y-54675000D02*
X226312500Y-40575000D01*
X226312500Y-40575000D02*
X240412500Y-40575000D01*
X240412500Y-40575000D02*
X240412500Y-54675000D01*
X316612500Y-92775000D02*
X302512500Y-92775000D01*
X316612500Y-78675000D02*
X316612500Y-92775000D01*
X302512500Y-78675000D02*
X316612500Y-78675000D01*
X302512500Y-92775000D02*
X302512500Y-78675000D01*
X316612500Y-111825000D02*
X302512500Y-111825000D01*
X316612500Y-97725000D02*
X316612500Y-111825000D01*
X302512500Y-111825000D02*
X302512500Y-97725000D01*
X302512500Y-97725000D02*
X316612500Y-97725000D01*
X240412500Y-73725000D02*
X226312500Y-73725000D01*
X240412500Y-59625000D02*
X240412500Y-73725000D01*
X226312500Y-73725000D02*
X226312500Y-59625000D01*
X226312500Y-59625000D02*
X240412500Y-59625000D01*
X240412500Y-97725000D02*
X240412500Y-111825000D01*
X240412500Y-111825000D02*
X226312500Y-111825000D01*
X226312500Y-111825000D02*
X226312500Y-97725000D01*
X226312500Y-97725000D02*
X240412500Y-97725000D01*
X40387500Y-40575000D02*
X40387500Y-54675000D01*
X26287500Y-40575000D02*
X40387500Y-40575000D01*
X40387500Y-54675000D02*
X26287500Y-54675000D01*
X26287500Y-54675000D02*
X26287500Y-40575000D01*
D14*
X147731250Y-102300000D02*
X147731250Y-88200000D01*
X161831250Y-102300000D02*
X147731250Y-102300000D01*
X161831250Y-88200000D02*
X161831250Y-102300000D01*
X147731250Y-88200000D02*
X161831250Y-88200000D01*
X195168750Y-88200000D02*
X195168750Y-102300000D01*
X195168750Y-102300000D02*
X181068750Y-102300000D01*
X181068750Y-88200000D02*
X195168750Y-88200000D01*
X181068750Y-102300000D02*
X181068750Y-88200000D01*
D13*
X45337500Y-78675000D02*
X59437500Y-78675000D01*
X59437500Y-92775000D02*
X45337500Y-92775000D01*
X59437500Y-78675000D02*
X59437500Y-92775000D01*
X45337500Y-92775000D02*
X45337500Y-78675000D01*
X278512500Y-40575000D02*
X278512500Y-54675000D01*
X264412500Y-54675000D02*
X264412500Y-40575000D01*
X278512500Y-54675000D02*
X264412500Y-54675000D01*
X264412500Y-40575000D02*
X278512500Y-40575000D01*
X302512500Y-59625000D02*
X316612500Y-59625000D01*
X302512500Y-73725000D02*
X302512500Y-59625000D01*
X316612500Y-59625000D02*
X316612500Y-73725000D01*
X316612500Y-73725000D02*
X302512500Y-73725000D01*
X181420206Y-40481250D02*
X171450000Y-50451456D01*
X161479794Y-40481250D02*
X171450000Y-30511044D01*
X171450000Y-50451456D02*
X161479794Y-40481250D01*
X171450000Y-30511044D02*
X181420206Y-40481250D01*
X135637500Y-54675000D02*
X121537500Y-54675000D01*
X121537500Y-54675000D02*
X121537500Y-40575000D01*
X135637500Y-40575000D02*
X135637500Y-54675000D01*
X121537500Y-40575000D02*
X135637500Y-40575000D01*
X102487500Y-111825000D02*
X102487500Y-97725000D01*
X102487500Y-97725000D02*
X116587500Y-97725000D01*
X116587500Y-97725000D02*
X116587500Y-111825000D01*
X116587500Y-111825000D02*
X102487500Y-111825000D01*
X59437500Y-73725000D02*
X45337500Y-73725000D01*
X45337500Y-59625000D02*
X59437500Y-59625000D01*
X59437500Y-59625000D02*
X59437500Y-73725000D01*
X45337500Y-73725000D02*
X45337500Y-59625000D01*
X102487500Y-59625000D02*
X116587500Y-59625000D01*
X116587500Y-73725000D02*
X102487500Y-73725000D01*
X102487500Y-73725000D02*
X102487500Y-59625000D01*
X116587500Y-59625000D02*
X116587500Y-73725000D01*
X148009410Y-53951635D02*
X157979616Y-43981429D01*
X157979616Y-63921841D02*
X148009410Y-53951635D01*
X167949822Y-53951635D02*
X157979616Y-63921841D01*
X157979616Y-43981429D02*
X167949822Y-53951635D01*
X221362500Y-54675000D02*
X207262500Y-54675000D01*
X207262500Y-54675000D02*
X207262500Y-40575000D01*
X221362500Y-40575000D02*
X221362500Y-54675000D01*
X207262500Y-40575000D02*
X221362500Y-40575000D01*
X78487500Y-92775000D02*
X64387500Y-92775000D01*
X78487500Y-78675000D02*
X78487500Y-92775000D01*
X64387500Y-78675000D02*
X78487500Y-78675000D01*
X64387500Y-92775000D02*
X64387500Y-78675000D01*
X245362500Y-59625000D02*
X259462500Y-59625000D01*
X259462500Y-73725000D02*
X245362500Y-73725000D01*
X259462500Y-59625000D02*
X259462500Y-73725000D01*
X245362500Y-73725000D02*
X245362500Y-59625000D01*
X264412500Y-111825000D02*
X264412500Y-97725000D01*
X278512500Y-111825000D02*
X264412500Y-111825000D01*
X278512500Y-97725000D02*
X278512500Y-111825000D01*
X264412500Y-97725000D02*
X278512500Y-97725000D01*
X297562500Y-73725000D02*
X283462500Y-73725000D01*
X283462500Y-59625000D02*
X297562500Y-59625000D01*
X283462500Y-73725000D02*
X283462500Y-59625000D01*
X297562500Y-59625000D02*
X297562500Y-73725000D01*
X297562500Y-111825000D02*
X283462500Y-111825000D01*
X283462500Y-111825000D02*
X283462500Y-97725000D01*
X297562500Y-97725000D02*
X297562500Y-111825000D01*
X283462500Y-97725000D02*
X297562500Y-97725000D01*
X64387500Y-97725000D02*
X78487500Y-97725000D01*
X64387500Y-111825000D02*
X64387500Y-97725000D01*
X78487500Y-111825000D02*
X64387500Y-111825000D01*
X78487500Y-97725000D02*
X78487500Y-111825000D01*
X221362500Y-97725000D02*
X221362500Y-111825000D01*
X221362500Y-111825000D02*
X207262500Y-111825000D01*
X207262500Y-111825000D02*
X207262500Y-97725000D01*
X207262500Y-97725000D02*
X221362500Y-97725000D01*
X316612500Y-54675000D02*
X302512500Y-54675000D01*
X302512500Y-54675000D02*
X302512500Y-40575000D01*
X316612500Y-40575000D02*
X316612500Y-54675000D01*
X302512500Y-40575000D02*
X316612500Y-40575000D01*
X83437500Y-59625000D02*
X97537500Y-59625000D01*
X97537500Y-59625000D02*
X97537500Y-73725000D01*
X83437500Y-73725000D02*
X83437500Y-59625000D01*
X97537500Y-73725000D02*
X83437500Y-73725000D01*
X221362500Y-59625000D02*
X221362500Y-73725000D01*
X207262500Y-59625000D02*
X221362500Y-59625000D01*
X221362500Y-73725000D02*
X207262500Y-73725000D01*
X207262500Y-73725000D02*
X207262500Y-59625000D01*
X102487500Y-40575000D02*
X116587500Y-40575000D01*
X116587500Y-40575000D02*
X116587500Y-54675000D01*
X116587500Y-54675000D02*
X102487500Y-54675000D01*
X102487500Y-54675000D02*
X102487500Y-40575000D01*
X83437500Y-92775000D02*
X83437500Y-78675000D01*
X97537500Y-92775000D02*
X83437500Y-92775000D01*
X83437500Y-78675000D02*
X97537500Y-78675000D01*
X97537500Y-78675000D02*
X97537500Y-92775000D01*
X121537500Y-92775000D02*
X121537500Y-78675000D01*
X135637500Y-92775000D02*
X121537500Y-92775000D01*
X121537500Y-78675000D02*
X135637500Y-78675000D01*
X135637500Y-78675000D02*
X135637500Y-92775000D01*
X40387500Y-59625000D02*
X40387500Y-73725000D01*
X26287500Y-73725000D02*
X26287500Y-59625000D01*
X40387500Y-73725000D02*
X26287500Y-73725000D01*
X26287500Y-59625000D02*
X40387500Y-59625000D01*
X121537500Y-111825000D02*
X121537500Y-97725000D01*
X121537500Y-97725000D02*
X135637500Y-97725000D01*
X135637500Y-111825000D02*
X121537500Y-111825000D01*
X135637500Y-97725000D02*
X135637500Y-111825000D01*
X40387500Y-97725000D02*
X40387500Y-111825000D01*
X26287500Y-111825000D02*
X26287500Y-97725000D01*
X40387500Y-111825000D02*
X26287500Y-111825000D01*
X26287500Y-97725000D02*
X40387500Y-97725000D01*
X97537500Y-40575000D02*
X97537500Y-54675000D01*
X97537500Y-54675000D02*
X83437500Y-54675000D01*
X83437500Y-54675000D02*
X83437500Y-40575000D01*
X83437500Y-40575000D02*
X97537500Y-40575000D01*
X59437500Y-97725000D02*
X59437500Y-111825000D01*
X45337500Y-111825000D02*
X45337500Y-97725000D01*
X45337500Y-97725000D02*
X59437500Y-97725000D01*
X59437500Y-111825000D02*
X45337500Y-111825000D01*
X171450000Y-57451813D02*
X181420206Y-67422019D01*
X171450000Y-77392225D02*
X161479794Y-67422019D01*
X161479794Y-67422019D02*
X171450000Y-57451813D01*
X181420206Y-67422019D02*
X171450000Y-77392225D01*
X226312500Y-78675000D02*
X240412500Y-78675000D01*
X226312500Y-92775000D02*
X226312500Y-78675000D01*
X240412500Y-92775000D02*
X226312500Y-92775000D01*
X240412500Y-78675000D02*
X240412500Y-92775000D01*
X264412500Y-59625000D02*
X278512500Y-59625000D01*
X264412500Y-73725000D02*
X264412500Y-59625000D01*
X278512500Y-59625000D02*
X278512500Y-73725000D01*
X278512500Y-73725000D02*
X264412500Y-73725000D01*
M02*
