M48
; DRILL file {KiCad (6.0.2)} date Thu Feb 24 21:52:38 2022
; FORMAT={-:-/ absolute / metric / decimal}
; #@! TF.CreationDate,2022-02-24T21:52:38+09:00
; #@! TF.GenerationSoftware,Kicad,Pcbnew,(6.0.2)
; #@! TF.FileFunction,NonPlated,1,2,NPTH
FMAT,2
METRIC
; #@! TA.AperFunction,NonPlated,NPTH,ComponentDrill
T1C2.000
; #@! TA.AperFunction,NonPlated,NPTH,ComponentDrill
T2C3.000
; #@! TA.AperFunction,NonPlated,NPTH,ComponentDrill
T3C4.000
%
G90
G05
T1
X28.258Y-47.625
X28.258Y-66.675
X28.258Y-85.725
X28.258Y-104.775
X38.417Y-47.625
X38.417Y-66.675
X38.417Y-85.725
X38.417Y-104.775
X47.307Y-47.625
X47.307Y-66.675
X47.307Y-85.725
X47.307Y-104.775
X57.467Y-47.625
X57.467Y-66.675
X57.467Y-85.725
X57.467Y-104.775
X66.358Y-47.625
X66.358Y-66.675
X66.358Y-85.725
X66.358Y-104.775
X76.517Y-47.625
X76.517Y-66.675
X76.517Y-85.725
X76.517Y-104.775
X85.407Y-47.625
X85.407Y-66.675
X85.407Y-85.725
X85.407Y-104.775
X95.567Y-47.625
X95.567Y-66.675
X95.567Y-85.725
X95.567Y-104.775
X104.457Y-47.625
X104.457Y-66.675
X104.457Y-85.725
X104.457Y-104.775
X114.617Y-47.625
X114.617Y-66.675
X114.617Y-85.725
X114.617Y-104.775
X123.507Y-47.625
X123.507Y-66.675
X123.507Y-85.725
X123.507Y-104.775
X133.667Y-47.625
X133.667Y-66.675
X133.667Y-85.725
X133.667Y-104.775
X154.388Y-57.544
X161.572Y-50.36
X167.858Y-44.073
X167.858Y-71.014
X175.042Y-36.889
X175.042Y-63.83
X181.328Y-57.544
X188.512Y-50.36
X209.232Y-47.625
X209.232Y-66.675
X209.232Y-85.725
X209.232Y-104.775
X219.392Y-47.625
X219.392Y-66.675
X219.392Y-85.725
X219.392Y-104.775
X228.282Y-47.625
X228.282Y-66.675
X228.282Y-85.725
X228.282Y-104.775
X238.442Y-47.625
X238.442Y-66.675
X238.442Y-85.725
X238.442Y-104.775
X247.332Y-47.625
X247.332Y-66.675
X247.332Y-85.725
X247.332Y-104.775
X257.493Y-47.625
X257.493Y-66.675
X257.493Y-85.725
X257.493Y-104.775
X266.382Y-47.625
X266.382Y-66.675
X266.382Y-85.725
X266.382Y-104.775
X276.542Y-47.625
X276.542Y-66.675
X276.542Y-85.725
X276.542Y-104.775
X285.433Y-47.625
X285.433Y-66.675
X285.433Y-85.725
X285.433Y-104.775
X295.592Y-47.625
X295.592Y-66.675
X295.592Y-85.725
X295.592Y-104.775
X304.482Y-47.625
X304.482Y-66.675
X304.482Y-85.725
X304.482Y-104.775
X314.642Y-47.625
X314.642Y-66.675
X314.642Y-85.725
X314.642Y-104.775
T2
X29.527Y-45.085
X29.527Y-64.135
X29.527Y-83.185
X29.527Y-102.235
X35.877Y-42.545
X35.877Y-61.595
X35.877Y-80.645
X35.877Y-99.695
X48.578Y-45.085
X48.578Y-64.135
X48.578Y-83.185
X48.578Y-102.235
X54.927Y-42.545
X54.927Y-61.595
X54.927Y-80.645
X54.927Y-99.695
X67.627Y-45.085
X67.627Y-64.135
X67.627Y-83.185
X67.627Y-102.235
X73.977Y-42.545
X73.977Y-61.595
X73.977Y-80.645
X73.977Y-99.695
X86.677Y-45.085
X86.677Y-64.135
X86.677Y-83.185
X86.677Y-102.235
X93.027Y-42.545
X93.027Y-61.595
X93.027Y-80.645
X93.027Y-99.695
X105.727Y-45.085
X105.727Y-64.135
X105.727Y-83.185
X105.727Y-102.235
X112.078Y-42.545
X112.078Y-61.595
X112.078Y-80.645
X112.078Y-99.695
X124.777Y-45.085
X124.777Y-64.135
X124.777Y-83.185
X124.777Y-102.235
X131.127Y-42.545
X131.127Y-61.595
X131.127Y-80.645
X131.127Y-99.695
X153.489Y-54.85
X156.184Y-48.563
X166.96Y-41.379
X166.96Y-68.32
X169.654Y-35.093
X169.654Y-62.034
X180.43Y-54.85
X183.124Y-48.563
X210.502Y-45.085
X210.502Y-64.135
X210.502Y-83.185
X210.502Y-102.235
X216.852Y-42.545
X216.852Y-61.595
X216.852Y-80.645
X216.852Y-99.695
X229.552Y-45.085
X229.552Y-64.135
X229.552Y-83.185
X229.552Y-102.235
X235.903Y-42.545
X235.903Y-61.595
X235.903Y-80.645
X235.903Y-99.695
X248.602Y-45.085
X248.602Y-64.135
X248.602Y-83.185
X248.602Y-102.235
X254.952Y-42.545
X254.952Y-61.595
X254.952Y-80.645
X254.952Y-99.695
X267.652Y-45.085
X267.652Y-64.135
X267.652Y-83.185
X267.652Y-102.235
X274.002Y-42.545
X274.002Y-61.595
X274.002Y-80.645
X274.002Y-99.695
X286.702Y-45.085
X286.702Y-64.135
X286.702Y-83.185
X286.702Y-102.235
X293.053Y-42.545
X293.053Y-61.595
X293.053Y-80.645
X293.053Y-99.695
X305.752Y-45.085
X305.752Y-64.135
X305.752Y-83.185
X305.752Y-102.235
X312.102Y-42.545
X312.102Y-61.595
X312.102Y-80.645
X312.102Y-99.695
T3
X33.337Y-47.625
X33.337Y-66.675
X33.337Y-85.725
X33.337Y-104.775
X52.387Y-47.625
X52.387Y-66.675
X52.387Y-85.725
X52.387Y-104.775
X71.438Y-47.625
X71.438Y-66.675
X71.438Y-85.725
X71.438Y-104.775
X90.487Y-47.625
X90.487Y-66.675
X90.487Y-85.725
X90.487Y-104.775
X109.537Y-47.625
X109.537Y-66.675
X109.537Y-85.725
X109.537Y-104.775
X128.588Y-47.625
X128.588Y-66.675
X128.588Y-85.725
X128.588Y-104.775
X157.98Y-53.952
X171.45Y-40.481
X171.45Y-67.422
X184.92Y-53.952
X214.312Y-47.625
X214.312Y-66.675
X214.312Y-85.725
X214.312Y-104.775
X233.362Y-47.625
X233.362Y-66.675
X233.362Y-85.725
X233.362Y-104.775
X252.412Y-47.625
X252.412Y-66.675
X252.412Y-85.725
X252.412Y-104.775
X271.462Y-47.625
X271.462Y-66.675
X271.462Y-85.725
X271.462Y-104.775
X290.512Y-47.625
X290.512Y-66.675
X290.512Y-85.725
X290.512Y-104.775
X309.562Y-47.625
X309.562Y-66.675
X309.562Y-85.725
X309.562Y-104.775
T0
M30
