G04 #@! TF.GenerationSoftware,KiCad,Pcbnew,(6.0.2)*
G04 #@! TF.CreationDate,2022-02-25T11:44:51+09:00*
G04 #@! TF.ProjectId,RoSoR,526f536f-522e-46b6-9963-61645f706362,rev?*
G04 #@! TF.SameCoordinates,Original*
G04 #@! TF.FileFunction,Copper,L2,Bot*
G04 #@! TF.FilePolarity,Positive*
%FSLAX46Y46*%
G04 Gerber Fmt 4.6, Leading zero omitted, Abs format (unit mm)*
G04 Created by KiCad (PCBNEW (6.0.2)) date 2022-02-25 11:44:51*
%MOMM*%
%LPD*%
G01*
G04 APERTURE LIST*
G04 Aperture macros list*
%AMRotRect*
0 Rectangle, with rotation*
0 The origin of the aperture is its center*
0 $1 length*
0 $2 width*
0 $3 Rotation angle, in degrees counterclockwise*
0 Add horizontal line*
21,1,$1,$2,0,0,$3*%
G04 Aperture macros list end*
G04 #@! TA.AperFunction,SMDPad,CuDef*
%ADD10R,3.300000X3.000000*%
G04 #@! TD*
G04 #@! TA.AperFunction,SMDPad,CuDef*
%ADD11RotRect,3.300000X3.000000X225.000000*%
G04 #@! TD*
G04 #@! TA.AperFunction,SMDPad,CuDef*
%ADD12R,1.300000X0.950000*%
G04 #@! TD*
G04 #@! TA.AperFunction,ComponentPad*
%ADD13C,2.000000*%
G04 #@! TD*
G04 #@! TA.AperFunction,SMDPad,CuDef*
%ADD14R,0.820000X2.200000*%
G04 #@! TD*
G04 #@! TA.AperFunction,SMDPad,CuDef*
%ADD15RotRect,2.200000X0.820000X45.000000*%
G04 #@! TD*
G04 #@! TA.AperFunction,ComponentPad*
%ADD16R,2.500000X3.200000*%
G04 #@! TD*
G04 #@! TA.AperFunction,ComponentPad*
%ADD17C,1.524000*%
G04 #@! TD*
G04 #@! TA.AperFunction,ComponentPad*
%ADD18O,1.500000X1.500000*%
G04 #@! TD*
G04 #@! TA.AperFunction,ViaPad*
%ADD19C,0.800000*%
G04 #@! TD*
G04 #@! TA.AperFunction,Conductor*
%ADD20C,0.500000*%
G04 #@! TD*
G04 APERTURE END LIST*
D10*
X244962500Y-45045000D03*
X258562500Y-42505000D03*
D11*
X177828104Y-57395245D03*
X185648705Y-45982542D03*
D10*
X44937500Y-45045000D03*
X58537500Y-42505000D03*
D12*
X212537680Y-91678202D03*
X216087680Y-91678202D03*
X88712576Y-72628186D03*
X92262576Y-72628186D03*
D10*
X283062500Y-45045000D03*
X296662500Y-42505000D03*
D13*
X57745458Y-25325072D03*
X57745458Y-31825072D03*
D10*
X206862500Y-83145000D03*
X220462500Y-80605000D03*
D12*
X269687728Y-110728218D03*
X273237728Y-110728218D03*
X69662560Y-110728218D03*
X73212560Y-110728218D03*
D14*
X84975000Y-25625000D03*
X84975000Y-31525000D03*
X86475000Y-31525000D03*
X86475000Y-25625000D03*
D15*
X189748728Y-54610566D03*
X185576798Y-58782496D03*
X186637458Y-59843156D03*
X190809388Y-55671226D03*
D12*
X307787760Y-91678202D03*
X311337760Y-91678202D03*
D10*
X102087500Y-83145000D03*
X115687500Y-80605000D03*
X25887500Y-83145000D03*
X39487500Y-80605000D03*
D12*
X69662560Y-72628186D03*
X73212560Y-72628186D03*
X307787760Y-72628186D03*
X311337760Y-72628186D03*
D10*
X264012500Y-83145000D03*
X277612500Y-80605000D03*
D12*
X250637712Y-72628186D03*
X254187712Y-72628186D03*
X269687728Y-91678202D03*
X273237728Y-91678202D03*
X50612544Y-72628186D03*
X54162544Y-72628186D03*
D10*
X244962500Y-83145000D03*
X258562500Y-80605000D03*
X63987500Y-64095000D03*
X77587500Y-61555000D03*
X244962500Y-102195000D03*
X258562500Y-99655000D03*
D12*
X88712576Y-110728218D03*
X92262576Y-110728218D03*
D10*
X121137500Y-64095000D03*
X134737500Y-61555000D03*
X83037500Y-102195000D03*
X96637500Y-99655000D03*
D12*
X148839442Y-110728218D03*
X152389442Y-110728218D03*
D10*
X283062500Y-83145000D03*
X296662500Y-80605000D03*
X63987500Y-45045000D03*
X77587500Y-42505000D03*
D12*
X50612544Y-53578170D03*
X54162544Y-53578170D03*
D10*
X225912500Y-45045000D03*
X239512500Y-42505000D03*
D12*
X50612544Y-91678202D03*
X54162544Y-91678202D03*
D10*
X302112500Y-83145000D03*
X315712500Y-80605000D03*
X302112500Y-102195000D03*
X315712500Y-99655000D03*
X225912500Y-64095000D03*
X239512500Y-61555000D03*
D12*
X107762592Y-91678202D03*
X111312592Y-91678202D03*
D15*
X162810773Y-54608071D03*
X158638843Y-58780001D03*
X159699503Y-59840661D03*
X163871433Y-55668731D03*
D12*
X138718868Y-72628186D03*
X142268868Y-72628186D03*
X200631420Y-53578170D03*
X204181420Y-53578170D03*
D10*
X225912500Y-102195000D03*
X239512500Y-99655000D03*
D12*
X231587696Y-53578170D03*
X235137696Y-53578170D03*
D10*
X25887500Y-45045000D03*
X39487500Y-42505000D03*
D13*
X157281250Y-87750000D03*
X152281250Y-87750000D03*
X154781250Y-87750000D03*
D16*
X160381250Y-95250000D03*
X149181250Y-95250000D03*
D13*
X152281250Y-102250000D03*
X157281250Y-102250000D03*
D14*
X132600000Y-25625000D03*
X132600000Y-31525000D03*
X134100000Y-31525000D03*
X134100000Y-25625000D03*
D12*
X307787760Y-53578170D03*
X311337760Y-53578170D03*
X212537680Y-110728218D03*
X216087680Y-110728218D03*
D14*
X104025000Y-25625000D03*
X104025000Y-31525000D03*
X105525000Y-31525000D03*
X105525000Y-25625000D03*
D13*
X190618750Y-87750000D03*
X185618750Y-87750000D03*
X188118750Y-87750000D03*
D16*
X182518750Y-95250000D03*
X193718750Y-95250000D03*
D13*
X185618750Y-102250000D03*
X190618750Y-102250000D03*
D12*
X288737744Y-72628186D03*
X292287744Y-72628186D03*
D10*
X44937500Y-83145000D03*
X58537500Y-80605000D03*
X264012500Y-45045000D03*
X277612500Y-42505000D03*
X302112500Y-64095000D03*
X315712500Y-61555000D03*
D12*
X307787760Y-110728218D03*
X311337760Y-110728218D03*
X31562528Y-72628186D03*
X35112528Y-72628186D03*
D15*
X176205293Y-68151419D03*
X172033363Y-72323349D03*
X173094023Y-73384009D03*
X177265953Y-69212079D03*
D14*
X227850000Y-25625000D03*
X227850000Y-31525000D03*
X229350000Y-31525000D03*
X229350000Y-25625000D03*
D12*
X31562528Y-53578170D03*
X35112528Y-53578170D03*
D17*
X290322000Y-36231400D03*
X292862000Y-36231400D03*
X295402000Y-36231400D03*
X297942000Y-36231400D03*
X300482000Y-36231400D03*
X303022000Y-36231400D03*
X305562000Y-36231400D03*
X308102000Y-36231400D03*
X310642000Y-36231400D03*
X313182000Y-36231400D03*
X315722000Y-36231400D03*
X318262000Y-36231400D03*
X318262000Y-21011400D03*
X315722000Y-21011400D03*
X313182000Y-21011400D03*
X310642000Y-21011400D03*
X308102000Y-21011400D03*
X305562000Y-21011400D03*
X303022000Y-21011400D03*
X300482000Y-21011400D03*
X297942000Y-21011400D03*
X295402000Y-21011400D03*
X292862000Y-21011400D03*
X290322000Y-21011400D03*
X287782000Y-21011400D03*
X287782000Y-36231400D03*
D12*
X50612544Y-110728218D03*
X54162544Y-110728218D03*
D11*
X164357719Y-43924860D03*
X172178320Y-32512157D03*
D12*
X88712576Y-53578170D03*
X92262576Y-53578170D03*
D14*
X123075000Y-25625000D03*
X123075000Y-31525000D03*
X124575000Y-31525000D03*
X124575000Y-25625000D03*
D10*
X121137500Y-45045000D03*
X134737500Y-42505000D03*
X102087500Y-102195000D03*
X115687500Y-99655000D03*
D14*
X199275000Y-25625000D03*
X199275000Y-31525000D03*
X200775000Y-31525000D03*
X200775000Y-25625000D03*
D12*
X185748910Y-110728218D03*
X189298910Y-110728218D03*
D10*
X44937500Y-64095000D03*
X58537500Y-61555000D03*
D14*
X75450000Y-25625000D03*
X75450000Y-31525000D03*
X76950000Y-31525000D03*
X76950000Y-25625000D03*
D12*
X69662560Y-91678202D03*
X73212560Y-91678202D03*
X250637712Y-110728218D03*
X254187712Y-110728218D03*
X269687728Y-53578170D03*
X273237728Y-53578170D03*
D10*
X102087500Y-64095000D03*
X115687500Y-61555000D03*
D14*
X142125000Y-25625000D03*
X142125000Y-31525000D03*
X143625000Y-31525000D03*
X143625000Y-25625000D03*
X151650000Y-25625000D03*
X151650000Y-31525000D03*
X153150000Y-31525000D03*
X153150000Y-25625000D03*
D11*
X150887335Y-57395245D03*
X158707936Y-45982542D03*
D10*
X206862500Y-45045000D03*
X220462500Y-42505000D03*
X63987500Y-83145000D03*
X77587500Y-80605000D03*
D14*
X275475000Y-25625000D03*
X275475000Y-31525000D03*
X276975000Y-31525000D03*
X276975000Y-25625000D03*
D12*
X200631420Y-72628186D03*
X204181420Y-72628186D03*
X231587696Y-110728218D03*
X235137696Y-110728218D03*
D10*
X244962500Y-64095000D03*
X258562500Y-61555000D03*
X264012500Y-102195000D03*
X277612500Y-99655000D03*
D12*
X126812608Y-110728218D03*
X130362608Y-110728218D03*
D14*
X237375000Y-25625000D03*
X237375000Y-31525000D03*
X238875000Y-31525000D03*
X238875000Y-25625000D03*
X218325000Y-25625000D03*
X218325000Y-31525000D03*
X219825000Y-31525000D03*
X219825000Y-25625000D03*
X208800000Y-25625000D03*
X208800000Y-31525000D03*
X210300000Y-31525000D03*
X210300000Y-25625000D03*
D15*
X176279707Y-41139137D03*
X172107777Y-45311067D03*
X173168437Y-46371727D03*
X177340367Y-42199797D03*
D14*
X94500000Y-25625000D03*
X94500000Y-31525000D03*
X96000000Y-31525000D03*
X96000000Y-25625000D03*
D12*
X288737744Y-91678202D03*
X292287744Y-91678202D03*
X288737744Y-53578170D03*
X292287744Y-53578170D03*
D10*
X283062500Y-64095000D03*
X296662500Y-61555000D03*
X283062500Y-102195000D03*
X296662500Y-99655000D03*
D14*
X265950000Y-25625000D03*
X265950000Y-31525000D03*
X267450000Y-31525000D03*
X267450000Y-25625000D03*
D10*
X63987500Y-102195000D03*
X77587500Y-99655000D03*
D12*
X126812608Y-72628186D03*
X130362608Y-72628186D03*
X88712576Y-91678202D03*
X92262576Y-91678202D03*
X212537680Y-53578170D03*
X216087680Y-53578170D03*
X138718868Y-53578170D03*
X142268868Y-53578170D03*
X231587500Y-72628186D03*
X235137500Y-72628186D03*
D10*
X206862500Y-102195000D03*
X220462500Y-99655000D03*
X302112500Y-45045000D03*
X315712500Y-42505000D03*
D12*
X31562528Y-91678202D03*
X35112528Y-91678202D03*
X250637712Y-53578170D03*
X254187712Y-53578170D03*
D10*
X83037500Y-64095000D03*
X96637500Y-61555000D03*
D12*
X31562528Y-110728218D03*
X35112528Y-110728218D03*
D10*
X206862500Y-64095000D03*
X220462500Y-61555000D03*
X102087500Y-45045000D03*
X115687500Y-42505000D03*
D14*
X256425000Y-25625000D03*
X256425000Y-31525000D03*
X257925000Y-31525000D03*
X257925000Y-25625000D03*
D12*
X126812608Y-91678202D03*
X130362608Y-91678202D03*
D10*
X83037500Y-83145000D03*
X96637500Y-80605000D03*
D12*
X288737744Y-110728218D03*
X292287744Y-110728218D03*
D10*
X121137500Y-83145000D03*
X134737500Y-80605000D03*
X25887500Y-64095000D03*
X39487500Y-61555000D03*
X121137500Y-102195000D03*
X134737500Y-99655000D03*
D14*
X65925000Y-25625000D03*
X65925000Y-31525000D03*
X67425000Y-31525000D03*
X67425000Y-25625000D03*
X113550000Y-25625000D03*
X113550000Y-31525000D03*
X115050000Y-31525000D03*
X115050000Y-25625000D03*
D10*
X25887500Y-102195000D03*
X39487500Y-99655000D03*
D18*
X171568750Y-19050000D03*
X169068750Y-19050000D03*
X174068750Y-19050000D03*
D12*
X107762500Y-53578170D03*
X111312500Y-53578170D03*
D14*
X246900000Y-25625000D03*
X246900000Y-31525000D03*
X248400000Y-31525000D03*
X248400000Y-25625000D03*
D12*
X231587696Y-91678202D03*
X235137696Y-91678202D03*
D10*
X83037500Y-45045000D03*
X96637500Y-42505000D03*
X44937500Y-102195000D03*
X58537500Y-99655000D03*
D11*
X164357719Y-70865629D03*
X172178320Y-59452926D03*
D12*
X269687500Y-72628186D03*
X273237500Y-72628186D03*
X250637712Y-91678202D03*
X254187712Y-91678202D03*
X107762592Y-110728218D03*
X111312592Y-110728218D03*
X107762592Y-72628186D03*
X111312592Y-72628186D03*
X69662560Y-53578170D03*
X73212560Y-53578170D03*
D10*
X225912500Y-83145000D03*
X239512500Y-80605000D03*
D12*
X212537680Y-72628186D03*
X216087680Y-72628186D03*
D10*
X264012500Y-64095000D03*
X277612500Y-61555000D03*
D14*
X189750000Y-25625000D03*
X189750000Y-31525000D03*
X191250000Y-31525000D03*
X191250000Y-25625000D03*
D12*
X126812608Y-53578170D03*
X130362608Y-53578170D03*
D19*
X31562528Y-54742387D03*
X69662560Y-54742387D03*
X126812608Y-54742387D03*
X107762500Y-54742610D03*
X50612544Y-54742387D03*
X292287744Y-54742387D03*
X138718868Y-54742387D03*
X88701637Y-54768796D03*
X273237728Y-54742387D03*
X216098619Y-54768796D03*
X311348699Y-54768796D03*
X204192359Y-54768796D03*
X254187712Y-54742387D03*
X235148635Y-54768796D03*
X292287744Y-73792403D03*
X138707929Y-73818812D03*
X69662560Y-73792403D03*
X235137500Y-73791930D03*
X204192359Y-73818812D03*
X273237500Y-73791853D03*
X31562528Y-73792403D03*
X311337760Y-73792403D03*
X216098619Y-73818812D03*
X88712576Y-73792403D03*
X50612544Y-73792403D03*
X107762592Y-73792403D03*
X126801669Y-73818812D03*
X254187712Y-73792403D03*
X50612544Y-92842419D03*
X69651621Y-92868828D03*
X292287744Y-92842419D03*
X273237728Y-92842419D03*
X235137696Y-92842419D03*
X88712576Y-92842419D03*
X31562528Y-92842419D03*
X254198651Y-92868828D03*
X107762592Y-92842419D03*
X216087680Y-92842419D03*
X311337760Y-92842419D03*
X126801669Y-92868828D03*
X148839442Y-111892616D03*
X88712576Y-111892435D03*
X107762592Y-111892435D03*
X126812608Y-111892435D03*
X31551589Y-111918844D03*
X69662560Y-111892435D03*
X50612544Y-111892435D03*
X311337760Y-111892435D03*
X292298683Y-111918844D03*
X273237728Y-111892435D03*
X189298910Y-111892616D03*
X235148635Y-111918844D03*
X254187712Y-111892435D03*
X216087680Y-111892435D03*
X157162632Y-40481284D03*
X144666434Y-50596230D03*
X163115708Y-34528208D03*
X147036936Y-50596230D03*
X147042311Y-51792231D03*
X144661059Y-54173483D03*
X194072038Y-47625040D03*
X196453290Y-47625040D03*
X186928282Y-72628186D03*
X179031274Y-65698445D03*
X189309534Y-72628186D03*
X180789175Y-67456346D03*
X196453290Y-34528154D03*
X194072038Y-34528154D03*
X157162632Y-34528154D03*
X160734375Y-34528125D03*
X292894488Y-23812560D03*
X285155406Y-33337584D03*
X194072038Y-29765650D03*
X196453290Y-27384398D03*
X154662500Y-31075000D03*
X159543750Y-28575000D03*
X63103125Y-33337500D03*
X160975744Y-60480506D03*
X171450000Y-75009375D03*
X164073484Y-53345359D03*
X177542419Y-66814294D03*
X184546875Y-65484375D03*
X190500000Y-46434375D03*
X191235897Y-53123397D03*
X207312500Y-42719380D03*
X26337500Y-74865880D03*
X207312500Y-74866336D03*
X45387500Y-76056556D03*
X226362500Y-42719428D03*
X226362500Y-76057012D03*
X245412500Y-77247688D03*
X64437500Y-77247232D03*
X245412500Y-42719476D03*
X264462500Y-93916528D03*
X83487500Y-93916072D03*
X264462500Y-42719524D03*
X283512500Y-95107204D03*
X102537500Y-95106748D03*
X283512500Y-42719572D03*
X121587500Y-96297424D03*
X302562500Y-42719620D03*
X302562500Y-96297880D03*
X168508095Y-74379609D03*
X171450236Y-104774532D03*
X170072219Y-49002965D03*
X156601835Y-62473349D03*
X171450236Y-113109660D03*
X168473579Y-47404324D03*
X171484451Y-77355965D03*
X155113552Y-60985067D03*
X181978479Y-60909225D03*
D20*
X107762500Y-53578170D02*
X107762500Y-54742610D01*
X50612544Y-53578170D02*
X50612544Y-54742387D01*
X311337760Y-53578170D02*
X311337760Y-54742387D01*
X292314245Y-54768888D02*
X296466372Y-54768888D01*
X88712576Y-53578170D02*
X88712576Y-54742387D01*
X204181420Y-53578170D02*
X204181420Y-54742387D01*
X235137696Y-53578170D02*
X235137696Y-54742387D01*
X298847628Y-52387632D02*
X298847628Y-37865772D01*
X126812608Y-53578170D02*
X126812608Y-54742387D01*
X69662560Y-53578170D02*
X69662560Y-54742387D01*
X273237728Y-53578170D02*
X273237728Y-54742387D01*
X31562528Y-53578170D02*
X31562528Y-54742387D01*
X216087680Y-53578170D02*
X216087680Y-54742387D01*
X254187712Y-53578170D02*
X254187712Y-54742387D01*
X138718868Y-53578170D02*
X138718868Y-54742387D01*
X292287744Y-53578170D02*
X292287744Y-54742387D01*
X235148635Y-54768796D02*
G75*
G02*
X235137696Y-54742387I26412J26410D01*
G01*
X298847628Y-52387632D02*
G75*
G02*
X296466372Y-54768888I-2381257J1D01*
G01*
X292298683Y-54768796D02*
G75*
G02*
X292287744Y-54742387I26412J26410D01*
G01*
X292314245Y-54768888D02*
G75*
G02*
X292287744Y-54742387I0J26501D01*
G01*
X88701637Y-54768796D02*
G75*
G03*
X88712576Y-54742387I-26412J26410D01*
G01*
X216098619Y-54768796D02*
G75*
G02*
X216087680Y-54742387I26412J26410D01*
G01*
X204192359Y-54768796D02*
G75*
G02*
X204181420Y-54742387I26412J26410D01*
G01*
X311348699Y-54768796D02*
G75*
G02*
X311337760Y-54742387I26412J26410D01*
G01*
X300482000Y-36231400D02*
G75*
G03*
X298847628Y-37865772I-2J-1634370D01*
G01*
X38100000Y-53578125D02*
X35112573Y-53578125D01*
X39917021Y-43384521D02*
X39917021Y-51761104D01*
X38100000Y-53578125D02*
G75*
G03*
X39917021Y-51761104I0J1817021D01*
G01*
X273237500Y-72628186D02*
X273237500Y-73791853D01*
X299547148Y-39781832D02*
X299547148Y-71928788D01*
X292287744Y-72628186D02*
X292287744Y-73792403D01*
X107762592Y-72628186D02*
X107762592Y-73792403D01*
X88712576Y-72628186D02*
X88712576Y-73792403D01*
X50612544Y-72628186D02*
X50612544Y-73792403D01*
X254187712Y-72628186D02*
X254187712Y-73792403D01*
X31562528Y-72628186D02*
X31562528Y-73792403D01*
X204181420Y-72628186D02*
X204181420Y-73792403D01*
X302419512Y-38100096D02*
X301228884Y-38100096D01*
X69662560Y-72628186D02*
X69662560Y-73792403D01*
X303022000Y-37497608D02*
X303022000Y-36231400D01*
X311337760Y-72628186D02*
X311337760Y-73792403D01*
X138718868Y-72628186D02*
X138718868Y-73792403D01*
X126812608Y-72628186D02*
X126812608Y-73792403D01*
X235137500Y-72628186D02*
X235137500Y-73791930D01*
X216087680Y-72628186D02*
X216087680Y-73792403D01*
X292314277Y-73818936D02*
X297657000Y-73818936D01*
X126801669Y-73818812D02*
G75*
G03*
X126812608Y-73792403I-26412J26410D01*
G01*
X301228884Y-38100096D02*
G75*
G03*
X299547148Y-39781832I0J-1681736D01*
G01*
X216098619Y-73818812D02*
G75*
G02*
X216087680Y-73792403I26412J26410D01*
G01*
X303022000Y-37497608D02*
G75*
G02*
X302419512Y-38100096I-602489J1D01*
G01*
X292298683Y-73818812D02*
G75*
G02*
X292287744Y-73792403I26412J26410D01*
G01*
X204192359Y-73818812D02*
G75*
G02*
X204181420Y-73792403I26412J26410D01*
G01*
X299547148Y-71928788D02*
G75*
G02*
X297657000Y-73818936I-1890150J2D01*
G01*
X292314277Y-73818936D02*
G75*
G02*
X292287744Y-73792403I-1J26532D01*
G01*
X138707929Y-73818812D02*
G75*
G03*
X138718868Y-73792403I-26412J26410D01*
G01*
X38100000Y-72628125D02*
X35112589Y-72628125D01*
X39917021Y-62434521D02*
X39917021Y-70811104D01*
X38100000Y-72628125D02*
G75*
G03*
X39917021Y-70811104I0J1817021D01*
G01*
X216087680Y-91678202D02*
X216087680Y-92842419D01*
X292287744Y-91678202D02*
X292287744Y-92842419D01*
X311337760Y-91678202D02*
X311337760Y-92842419D01*
X126812608Y-91678202D02*
X126812608Y-92842419D01*
X273237728Y-91678202D02*
X273237728Y-92842419D01*
X88712576Y-91678202D02*
X88712576Y-92842419D01*
X69662560Y-91678202D02*
X69662560Y-92842419D01*
X235137696Y-91678202D02*
X235137696Y-92842419D01*
X31562528Y-91678202D02*
X31562528Y-92842419D01*
X254187712Y-91678202D02*
X254187712Y-92842419D01*
X107762592Y-91678202D02*
X107762592Y-92842419D01*
X50612544Y-91678202D02*
X50612544Y-92842419D01*
X69651621Y-92868828D02*
G75*
G03*
X69662560Y-92842419I-26412J26410D01*
G01*
X254198651Y-92868828D02*
G75*
G02*
X254187712Y-92842419I26412J26410D01*
G01*
X126801669Y-92868828D02*
G75*
G03*
X126812608Y-92842419I-26412J26410D01*
G01*
X39917021Y-81484521D02*
X39917021Y-89861104D01*
X38100000Y-91678125D02*
X35112605Y-91678125D01*
X38100000Y-91678125D02*
G75*
G03*
X39917021Y-89861104I0J1817021D01*
G01*
X148839442Y-110728218D02*
X148839442Y-111892616D01*
X235137696Y-110728218D02*
X235137696Y-111892435D01*
X88712576Y-110728218D02*
X88712576Y-111892435D01*
X254187712Y-110728218D02*
X254187712Y-111892435D01*
X31562528Y-110728218D02*
X31562528Y-111892435D01*
X311337760Y-110728218D02*
X311337760Y-111892435D01*
X50612544Y-110728218D02*
X50612544Y-111892435D01*
X292287744Y-110728218D02*
X292287744Y-111892435D01*
X216087680Y-110728218D02*
X216087680Y-111892435D01*
X273237728Y-110728218D02*
X273237728Y-111892435D01*
X69662560Y-110728218D02*
X69662560Y-111892435D01*
X107762592Y-110728218D02*
X107762592Y-111892435D01*
X189298910Y-110728218D02*
X189298910Y-111892616D01*
X126812608Y-110728218D02*
X126812608Y-111892435D01*
X235148635Y-111918844D02*
G75*
G02*
X235137696Y-111892435I26412J26410D01*
G01*
X292298683Y-111918844D02*
G75*
G02*
X292287744Y-111892435I26412J26410D01*
G01*
X31551589Y-111918844D02*
G75*
G03*
X31562528Y-111892435I-26412J26410D01*
G01*
X39917021Y-100534521D02*
X39917021Y-108911104D01*
X38100000Y-110728125D02*
X35112621Y-110728125D01*
X38100000Y-110728125D02*
G75*
G03*
X39917021Y-108911104I0J1817021D01*
G01*
X58967021Y-43384521D02*
X58967021Y-51761104D01*
X57150000Y-53578125D02*
X54162589Y-53578125D01*
X57150000Y-53578125D02*
G75*
G03*
X58967021Y-51761104I0J1817021D01*
G01*
X57150000Y-72628125D02*
X54162605Y-72628125D01*
X58967021Y-62434521D02*
X58967021Y-70811104D01*
X57150000Y-72628125D02*
G75*
G03*
X58967021Y-70811104I0J1817021D01*
G01*
X57150000Y-91678125D02*
X54162621Y-91678125D01*
X58967021Y-81484521D02*
X58967021Y-89861104D01*
X57150000Y-91678125D02*
G75*
G03*
X58967021Y-89861104I0J1817021D01*
G01*
X58967021Y-100534521D02*
X58967021Y-108911104D01*
X57150000Y-110728125D02*
X54162637Y-110728125D01*
X57150000Y-110728125D02*
G75*
G03*
X58967021Y-108911104I0J1817021D01*
G01*
X76200000Y-53578125D02*
X73212605Y-53578125D01*
X78017021Y-43384521D02*
X78017021Y-51761104D01*
X76200000Y-53578125D02*
G75*
G03*
X78017021Y-51761104I0J1817021D01*
G01*
X76200000Y-72628125D02*
X73212621Y-72628125D01*
X78017021Y-62434521D02*
X78017021Y-70811104D01*
X76200000Y-72628125D02*
G75*
G03*
X78017021Y-70811104I0J1817021D01*
G01*
X78017021Y-81484521D02*
X78017021Y-89861104D01*
X76200000Y-91678125D02*
X73212637Y-91678125D01*
X76200000Y-91678125D02*
G75*
G03*
X78017021Y-89861104I0J1817021D01*
G01*
X76200000Y-110728125D02*
X73212653Y-110728125D01*
X78017021Y-100534521D02*
X78017021Y-108911104D01*
X76200000Y-110728125D02*
G75*
G03*
X78017021Y-108911104I0J1817021D01*
G01*
X95250000Y-53578125D02*
X92262621Y-53578125D01*
X97067021Y-43384521D02*
X97067021Y-51761104D01*
X95250000Y-53578125D02*
G75*
G03*
X97067021Y-51761104I0J1817021D01*
G01*
X97067021Y-62434521D02*
X97067021Y-70811104D01*
X95250000Y-72628125D02*
X92262637Y-72628125D01*
X95250000Y-72628125D02*
G75*
G03*
X97067021Y-70811104I0J1817021D01*
G01*
X97067021Y-81484521D02*
X97067021Y-89861104D01*
X95250000Y-91678125D02*
X92262653Y-91678125D01*
X95250000Y-91678125D02*
G75*
G03*
X97067021Y-89861104I0J1817021D01*
G01*
X97067021Y-100534521D02*
X97067021Y-108911104D01*
X95250000Y-110728125D02*
X92262669Y-110728125D01*
X95250000Y-110728125D02*
G75*
G03*
X97067021Y-108911104I0J1817021D01*
G01*
X114300000Y-53578125D02*
X111312545Y-53578125D01*
X116117021Y-43384521D02*
X116117021Y-51761104D01*
X114300000Y-53578125D02*
G75*
G03*
X116117021Y-51761104I0J1817021D01*
G01*
X114300000Y-72628125D02*
X111312653Y-72628125D01*
X116117021Y-62434521D02*
X116117021Y-70811104D01*
X114300000Y-72628125D02*
G75*
G03*
X116117021Y-70811104I0J1817021D01*
G01*
X114300000Y-91678125D02*
X111312669Y-91678125D01*
X116117021Y-81484521D02*
X116117021Y-89861104D01*
X114300000Y-91678125D02*
G75*
G03*
X116117021Y-89861104I0J1817021D01*
G01*
X116117021Y-100534521D02*
X116117021Y-108911104D01*
X114300000Y-110728125D02*
X111312685Y-110728125D01*
X114300000Y-110728125D02*
G75*
G03*
X116117021Y-108911104I0J1817021D01*
G01*
X133350000Y-53578125D02*
X130362653Y-53578125D01*
X135167021Y-43384521D02*
X135167021Y-51761104D01*
X133350000Y-53578125D02*
G75*
G03*
X135167021Y-51761104I0J1817021D01*
G01*
X133350000Y-72628125D02*
X130362669Y-72628125D01*
X135167021Y-62434521D02*
X135167021Y-70811104D01*
X133350000Y-72628125D02*
G75*
G03*
X135167021Y-70811104I0J1817021D01*
G01*
X133350000Y-91678125D02*
X130362685Y-91678125D01*
X135167021Y-81484521D02*
X135167021Y-89861104D01*
X133350000Y-91678125D02*
G75*
G03*
X135167021Y-89861104I0J1817021D01*
G01*
X135167021Y-100534521D02*
X135167021Y-108911104D01*
X133350000Y-110728125D02*
X130362701Y-110728125D01*
X133350000Y-110728125D02*
G75*
G03*
X135167021Y-108911104I0J1817021D01*
G01*
X167282953Y-30956276D02*
X169664205Y-30956276D01*
X170557783Y-31326408D02*
X171860122Y-32628747D01*
X163115708Y-34528208D02*
X166266690Y-31377226D01*
X157162632Y-40481284D02*
X147055288Y-50588628D01*
X142268868Y-53578170D02*
X142268868Y-52993796D01*
X170557783Y-31326408D02*
G75*
G03*
X169664205Y-30956276I-893577J-893576D01*
G01*
X167282953Y-30956276D02*
G75*
G03*
X166266690Y-31377226I-2J-1437207D01*
G01*
X144666434Y-50596230D02*
G75*
G03*
X142268868Y-52993796I1J-2397567D01*
G01*
X147036936Y-50596230D02*
G75*
G03*
X147055288Y-50588628I-2J25957D01*
G01*
X144661059Y-54173483D02*
X144661059Y-70595661D01*
X154360430Y-44474112D02*
X147042311Y-51792231D01*
X158389738Y-46300740D02*
X156683427Y-44594429D01*
X144065746Y-72032873D02*
G75*
G02*
X142628534Y-72628186I-1437212J1437211D01*
G01*
X144065746Y-72032873D02*
G75*
G03*
X144661059Y-70595661I-1437211J1437212D01*
G01*
X154360430Y-44474112D02*
G75*
G02*
X155376693Y-44053162I1016261J-1016257D01*
G01*
X155376693Y-44053163D02*
G75*
G02*
X156683427Y-44594429I5J-1847989D01*
G01*
X152281250Y-102250000D02*
X152281250Y-110467020D01*
X152389442Y-110728218D02*
G75*
G02*
X152281250Y-110467020I261197J261198D01*
G01*
X212537680Y-52971695D02*
X212537680Y-53578170D01*
X219075000Y-51196875D02*
X214312500Y-51196875D01*
X220892021Y-43384521D02*
X220892021Y-49379854D01*
X219075000Y-51196875D02*
G75*
G03*
X220892021Y-49379854I0J1817021D01*
G01*
X212537680Y-52971695D02*
G75*
G02*
X214312500Y-51196875I1774821J-1D01*
G01*
X220892021Y-62434521D02*
X220892021Y-68429854D01*
X219075000Y-70246875D02*
X214312500Y-70246875D01*
X212537680Y-72021695D02*
X212537680Y-72628186D01*
X219075000Y-70246875D02*
G75*
G03*
X220892021Y-68429854I0J1817021D01*
G01*
X212537680Y-72021695D02*
G75*
G02*
X214312500Y-70246875I1774821J-1D01*
G01*
X212537680Y-91071695D02*
X212537680Y-91678202D01*
X219075000Y-89296875D02*
X214312500Y-89296875D01*
X220892021Y-81484521D02*
X220892021Y-87479854D01*
X212537680Y-91071695D02*
G75*
G02*
X214312500Y-89296875I1774821J-1D01*
G01*
X219075000Y-89296875D02*
G75*
G03*
X220892021Y-87479854I0J1817021D01*
G01*
X219075000Y-108346875D02*
X214312500Y-108346875D01*
X220892021Y-100534521D02*
X220892021Y-106529854D01*
X212537680Y-110121695D02*
X212537680Y-110728218D01*
X212537680Y-110121695D02*
G75*
G02*
X214312500Y-108346875I1774821J-1D01*
G01*
X219075000Y-108346875D02*
G75*
G03*
X220892021Y-106529854I0J1817021D01*
G01*
X238125000Y-51196875D02*
X233362500Y-51196875D01*
X231587696Y-52971679D02*
X231587696Y-53578170D01*
X239942021Y-43384521D02*
X239942021Y-49379854D01*
X231587696Y-52971679D02*
G75*
G02*
X233362500Y-51196875I1774804J0D01*
G01*
X238125000Y-51196875D02*
G75*
G03*
X239942021Y-49379854I0J1817021D01*
G01*
X239942021Y-62434569D02*
X239942021Y-68430631D01*
X231587696Y-72628218D02*
X231587696Y-72022444D01*
X238125600Y-70247052D02*
X233363088Y-70247052D01*
X238125600Y-70247052D02*
G75*
G03*
X239942021Y-68430631I1J1816420D01*
G01*
X233363088Y-70247052D02*
G75*
G03*
X231587696Y-72022444I-1J-1775391D01*
G01*
X231587696Y-91678266D02*
X231587696Y-91072492D01*
X239942021Y-81484617D02*
X239942021Y-87480679D01*
X238125600Y-89297100D02*
X233363088Y-89297100D01*
X233363088Y-89297100D02*
G75*
G03*
X231587696Y-91072492I-1J-1775391D01*
G01*
X238125600Y-89297100D02*
G75*
G03*
X239942021Y-87480679I1J1816420D01*
G01*
X238125600Y-108347148D02*
X233363088Y-108347148D01*
X231587696Y-110728314D02*
X231587696Y-110122540D01*
X239942021Y-100534665D02*
X239942021Y-106530727D01*
X233363088Y-108347148D02*
G75*
G03*
X231587696Y-110122540I-1J-1775391D01*
G01*
X238125600Y-108347148D02*
G75*
G03*
X239942021Y-106530727I1J1816420D01*
G01*
X258992021Y-43384521D02*
X258992021Y-49379854D01*
X250637712Y-52971663D02*
X250637712Y-53578170D01*
X257175000Y-51196875D02*
X252412500Y-51196875D01*
X257175000Y-51196875D02*
G75*
G03*
X258992021Y-49379854I0J1817021D01*
G01*
X250637712Y-52971663D02*
G75*
G02*
X252412500Y-51196875I1774787J1D01*
G01*
X250637744Y-72628218D02*
X250637744Y-72022444D01*
X258992069Y-62434569D02*
X258992069Y-68430631D01*
X257175648Y-70247052D02*
X252413136Y-70247052D01*
X252413136Y-70247052D02*
G75*
G03*
X250637744Y-72022444I-1J-1775391D01*
G01*
X257175648Y-70247052D02*
G75*
G03*
X258992069Y-68430631I1J1816420D01*
G01*
X258992069Y-81484617D02*
X258992069Y-87480679D01*
X250637744Y-91678266D02*
X250637744Y-91072492D01*
X257175648Y-89297100D02*
X252413136Y-89297100D01*
X257175648Y-89297100D02*
G75*
G03*
X258992069Y-87480679I1J1816420D01*
G01*
X252413136Y-89297100D02*
G75*
G03*
X250637744Y-91072492I-1J-1775391D01*
G01*
X257175648Y-108347148D02*
X252413136Y-108347148D01*
X250637744Y-110728314D02*
X250637744Y-110122540D01*
X258992069Y-100534665D02*
X258992069Y-106530727D01*
X257175648Y-108347148D02*
G75*
G03*
X258992069Y-106530727I1J1816420D01*
G01*
X252413136Y-108347148D02*
G75*
G03*
X250637744Y-110122540I-1J-1775391D01*
G01*
X269687728Y-52971647D02*
X269687728Y-53578170D01*
X278042021Y-43384521D02*
X278042021Y-49379854D01*
X276225000Y-51196875D02*
X271462500Y-51196875D01*
X276225000Y-51196875D02*
G75*
G03*
X278042021Y-49379854I0J1817021D01*
G01*
X269687728Y-52971647D02*
G75*
G02*
X271462500Y-51196875I1774773J-1D01*
G01*
X276225696Y-70247052D02*
X271463184Y-70247052D01*
X269687792Y-72628218D02*
X269687792Y-72022444D01*
X278042117Y-62434569D02*
X278042117Y-68430631D01*
X276225696Y-70247052D02*
G75*
G03*
X278042117Y-68430631I1J1816420D01*
G01*
X271463184Y-70247052D02*
G75*
G03*
X269687792Y-72022444I-1J-1775391D01*
G01*
X278042117Y-81484617D02*
X278042117Y-87480679D01*
X269687792Y-91678266D02*
X269687792Y-91072492D01*
X276225696Y-89297100D02*
X271463184Y-89297100D01*
X271463184Y-89297100D02*
G75*
G03*
X269687792Y-91072492I-1J-1775391D01*
G01*
X276225696Y-89297100D02*
G75*
G03*
X278042117Y-87480679I1J1816420D01*
G01*
X269687792Y-110728314D02*
X269687792Y-110122540D01*
X276225696Y-108347148D02*
X271463184Y-108347148D01*
X278042117Y-100534665D02*
X278042117Y-106530727D01*
X271463184Y-108347148D02*
G75*
G03*
X269687792Y-110122540I-1J-1775391D01*
G01*
X276225696Y-108347148D02*
G75*
G03*
X278042117Y-106530727I1J1816420D01*
G01*
X295275000Y-51196875D02*
X290512500Y-51196875D01*
X288737744Y-52971631D02*
X288737744Y-53578170D01*
X297092021Y-43384521D02*
X297092021Y-49379854D01*
X288737744Y-52971631D02*
G75*
G02*
X290512500Y-51196875I1774756J0D01*
G01*
X295275000Y-51196875D02*
G75*
G03*
X297092021Y-49379854I0J1817021D01*
G01*
X288737840Y-72628218D02*
X288737840Y-72022444D01*
X297092165Y-62434569D02*
X297092165Y-68430631D01*
X295275744Y-70247052D02*
X290513232Y-70247052D01*
X290513232Y-70247052D02*
G75*
G03*
X288737840Y-72022444I-1J-1775391D01*
G01*
X295275744Y-70247052D02*
G75*
G03*
X297092165Y-68430631I1J1816420D01*
G01*
X295275744Y-89297100D02*
X290513232Y-89297100D01*
X297092165Y-81484617D02*
X297092165Y-87480679D01*
X288737840Y-91678266D02*
X288737840Y-91072492D01*
X295275744Y-89297100D02*
G75*
G03*
X297092165Y-87480679I1J1816420D01*
G01*
X290513232Y-89297100D02*
G75*
G03*
X288737840Y-91072492I-1J-1775391D01*
G01*
X288737840Y-110728314D02*
X288737840Y-110122540D01*
X297092165Y-100534665D02*
X297092165Y-106530727D01*
X295275744Y-108347148D02*
X290513232Y-108347148D01*
X290513232Y-108347148D02*
G75*
G03*
X288737840Y-110122540I-1J-1775391D01*
G01*
X295275744Y-108347148D02*
G75*
G03*
X297092165Y-106530727I1J1816420D01*
G01*
X314325000Y-51196875D02*
X309562500Y-51196875D01*
X316142021Y-43384521D02*
X316142021Y-49379854D01*
X307787760Y-52971615D02*
X307787760Y-53578170D01*
X307787760Y-52971615D02*
G75*
G02*
X309562500Y-51196875I1774739J1D01*
G01*
X314325000Y-51196875D02*
G75*
G03*
X316142021Y-49379854I0J1817021D01*
G01*
X316142213Y-62434569D02*
X316142213Y-68430631D01*
X314325792Y-70247052D02*
X309563280Y-70247052D01*
X307787888Y-72628218D02*
X307787888Y-72022444D01*
X309563280Y-70247052D02*
G75*
G03*
X307787888Y-72022444I-1J-1775391D01*
G01*
X314325792Y-70247052D02*
G75*
G03*
X316142213Y-68430631I1J1816420D01*
G01*
X314325792Y-89297100D02*
X309563280Y-89297100D01*
X307787888Y-91678266D02*
X307787888Y-91072492D01*
X316142213Y-81484617D02*
X316142213Y-87480679D01*
X309563280Y-89297100D02*
G75*
G03*
X307787888Y-91072492I-1J-1775391D01*
G01*
X314325792Y-89297100D02*
G75*
G03*
X316142213Y-87480679I1J1816420D01*
G01*
X307787888Y-110728314D02*
X307787888Y-110122540D01*
X316142213Y-100534665D02*
X316142213Y-106530727D01*
X314325792Y-108347148D02*
X309563280Y-108347148D01*
X314325792Y-108347148D02*
G75*
G03*
X316142213Y-106530727I1J1816420D01*
G01*
X309563280Y-108347148D02*
G75*
G03*
X307787888Y-110122540I-1J-1775391D01*
G01*
X186928282Y-47625040D02*
X194072038Y-47625040D01*
X185330507Y-46300740D02*
X186461431Y-47431664D01*
X198834876Y-47625120D02*
X196453370Y-47625120D01*
X200631420Y-53578170D02*
X200631420Y-49421664D01*
X198834876Y-47625120D02*
G75*
G02*
X200631420Y-49421664I-2J-1796546D01*
G01*
X186928282Y-47625040D02*
G75*
G02*
X186461431Y-47431664I1J660229D01*
G01*
X196453290Y-47625040D02*
G75*
G03*
X196453370Y-47625120I79J-1D01*
G01*
X173103953Y-59771124D02*
X179031274Y-65698445D01*
X186332969Y-72628186D02*
X186928282Y-72628186D01*
X180789175Y-67456346D02*
X185698004Y-72365175D01*
X200631420Y-72628186D02*
X189309534Y-72628186D01*
X186332969Y-72628185D02*
G75*
G02*
X185698005Y-72365174I4J897986D01*
G01*
X185618750Y-102250000D02*
X185618750Y-110413984D01*
X185748910Y-110728218D02*
G75*
G02*
X185618750Y-110413984I314241J314237D01*
G01*
X275475000Y-31075000D02*
X275475000Y-33777400D01*
X133350394Y-34528154D02*
X157162632Y-34528154D01*
X66675226Y-34528154D02*
X76200134Y-34528154D01*
X208800000Y-31075000D02*
X208800000Y-33777568D01*
X227850000Y-31075000D02*
X227850000Y-33777520D01*
X114300346Y-34528154D02*
X123825104Y-34528154D01*
X168179129Y-76177582D02*
X172351561Y-72005151D01*
X158957041Y-58461803D02*
X154828257Y-62590587D01*
X104775088Y-34528154D02*
X114300096Y-34528154D01*
X287782000Y-36231400D02*
X287782000Y-35121618D01*
X161437032Y-44541093D02*
X165996957Y-49101017D01*
X181739996Y-62619297D02*
X185894996Y-58464298D01*
X175022229Y-28574646D02*
X167877771Y-28574646D01*
X218325000Y-31075000D02*
X218325000Y-33777544D01*
X181570313Y-33932812D02*
X177053545Y-29416045D01*
X95250080Y-34528154D02*
X104775088Y-34528154D01*
X123075000Y-31075000D02*
X123075000Y-33778050D01*
X190500538Y-34528154D02*
X183007595Y-34528154D01*
X66675226Y-34528154D02*
X60722086Y-34528154D01*
X133350112Y-34528154D02*
X133350394Y-34528154D01*
X59531400Y-34528212D02*
X60722028Y-34528212D01*
X165996957Y-49101017D02*
X187630891Y-70734951D01*
X75450000Y-31075000D02*
X75450000Y-33778020D01*
X123825104Y-34528154D02*
X133350112Y-34528154D01*
X189750000Y-31075000D02*
X189750000Y-33777616D01*
X265950000Y-31075000D02*
X265950000Y-33777424D01*
X65925000Y-31075000D02*
X65925000Y-33777928D01*
X190500538Y-34528154D02*
X194072038Y-34528154D01*
X154781250Y-87750000D02*
X154781250Y-67763228D01*
X57745458Y-31825072D02*
X57745458Y-32742270D01*
X199274632Y-31075000D02*
X199274632Y-33777616D01*
X295129150Y-35572682D02*
X294679935Y-35123467D01*
X237375000Y-31075000D02*
X237375000Y-33777496D01*
X160734375Y-34528125D02*
X160734375Y-42844729D01*
X76200134Y-34528154D02*
X85725072Y-34528154D01*
X85725072Y-34528154D02*
X95250080Y-34528154D01*
X246900000Y-31075000D02*
X246900000Y-33777472D01*
X104025000Y-31075000D02*
X104025000Y-33778066D01*
X292894488Y-23812560D02*
X292894488Y-33337036D01*
X94500000Y-31075000D02*
X94500000Y-33778074D01*
X132600000Y-31075000D02*
X132600000Y-33777760D01*
X151650000Y-31075000D02*
X151650000Y-33777712D01*
X113550000Y-31075000D02*
X113550000Y-33777808D01*
X291703370Y-34528154D02*
X288131492Y-34528154D01*
X256425000Y-31075000D02*
X256425000Y-33777448D01*
X145851685Y-56406057D02*
X145851685Y-37155992D01*
X188118750Y-87750000D02*
X188118750Y-71912746D01*
X172425975Y-44992869D02*
X168520455Y-48898389D01*
X293242723Y-34528154D02*
X291703370Y-34528154D01*
X196453290Y-34528154D02*
X288131492Y-34528154D01*
X146377766Y-57676128D02*
X164655116Y-75953478D01*
X142125000Y-31075000D02*
X142125000Y-33777736D01*
X84975000Y-31075000D02*
X84975000Y-33778082D01*
X114300096Y-34528154D02*
X114300346Y-34528154D01*
X165846455Y-29416045D02*
X160734375Y-34528125D01*
X287536179Y-34528154D02*
G75*
G02*
X287782000Y-35121618I-593468J-593466D01*
G01*
X104775088Y-34528154D02*
G75*
G02*
X104025000Y-33778066I1J750089D01*
G01*
X276225754Y-34528154D02*
G75*
G02*
X275475000Y-33777400I1J750755D01*
G01*
X145256372Y-35718780D02*
G75*
G02*
X145851685Y-37155992I-1437211J-1437212D01*
G01*
X209550586Y-34528154D02*
G75*
G02*
X208800000Y-33777568I2J750588D01*
G01*
X152400442Y-34528154D02*
G75*
G02*
X151650000Y-33777712I-1J750441D01*
G01*
X76200134Y-34528154D02*
G75*
G02*
X75450000Y-33778020I-1J750133D01*
G01*
X168179129Y-76177582D02*
G75*
G02*
X166687640Y-76795377I-1491491J1491493D01*
G01*
X165846455Y-29416045D02*
G75*
G02*
X167877771Y-28574646I2031317J-2031318D01*
G01*
X181570313Y-33932812D02*
G75*
G03*
X183007595Y-34528154I1437279J1437275D01*
G01*
X153590754Y-64889117D02*
G75*
G02*
X154781250Y-67763228I-2874111J-2874111D01*
G01*
X190500538Y-34528154D02*
G75*
G02*
X189750000Y-33777616I-2J750536D01*
G01*
X66675226Y-34528154D02*
G75*
G02*
X65925000Y-33777928I0J750226D01*
G01*
X295129150Y-35572682D02*
G75*
G02*
X295402000Y-36231400I-658711J-658715D01*
G01*
X145851686Y-56406057D02*
G75*
G03*
X146377767Y-57676127I1796148J-1D01*
G01*
X150541967Y-61840329D02*
G75*
G03*
X153590754Y-63103178I3048787J3048788D01*
G01*
X200025170Y-34528154D02*
G75*
G02*
X199274632Y-33777616I-2J750536D01*
G01*
X266700730Y-34528154D02*
G75*
G02*
X265950000Y-33777424I1J750731D01*
G01*
X167282953Y-49410978D02*
G75*
G03*
X168520455Y-48898389I-1J1750095D01*
G01*
X95250080Y-34528154D02*
G75*
G02*
X94500000Y-33778074I-1J750079D01*
G01*
X142381947Y-34528155D02*
G75*
G02*
X145256372Y-35718780I4J-4065041D01*
G01*
X161437032Y-44541093D02*
G75*
G02*
X160734457Y-42844927I1696176J1696170D01*
G01*
X60722086Y-34528154D02*
G75*
G02*
X60722028Y-34528212I-58J0D01*
G01*
X288131492Y-34528154D02*
G75*
G03*
X287782000Y-35371902I843748J-843748D01*
G01*
X123825104Y-34528154D02*
G75*
G02*
X123075000Y-33778050I-1J750103D01*
G01*
X187630891Y-70734951D02*
G75*
G02*
X188118750Y-71912746I-1177790J-1177793D01*
G01*
X133350394Y-34528154D02*
G75*
G02*
X132600000Y-33777760I-1J750393D01*
G01*
X166687640Y-76795377D02*
G75*
G02*
X164655116Y-75953478I3J2874430D01*
G01*
X180571805Y-63103178D02*
G75*
G03*
X181739996Y-62619297I-3J1652077D01*
G01*
X175022229Y-28574646D02*
G75*
G02*
X177053545Y-29416045I3J-2872705D01*
G01*
X291703370Y-34528154D02*
G75*
G03*
X292894488Y-33337036I1J1191117D01*
G01*
X293242723Y-34528155D02*
G75*
G02*
X294679934Y-35123468I0J-2032523D01*
G01*
X114300346Y-34528154D02*
G75*
G02*
X113550000Y-33777808I-1J750345D01*
G01*
X238125658Y-34528154D02*
G75*
G02*
X237375000Y-33777496I1J750659D01*
G01*
X85725072Y-34528154D02*
G75*
G02*
X84975000Y-33778082I0J750072D01*
G01*
X228600634Y-34528154D02*
G75*
G02*
X227850000Y-33777520I1J750635D01*
G01*
X153590754Y-63103177D02*
G75*
G03*
X154828257Y-62590587I1J1750090D01*
G01*
X257175706Y-34528154D02*
G75*
G02*
X256425000Y-33777448I1J750707D01*
G01*
X219075610Y-34528154D02*
G75*
G02*
X218325000Y-33777544I1J750611D01*
G01*
X142875418Y-34528154D02*
G75*
G02*
X142125000Y-33777736I-1J750417D01*
G01*
X161437032Y-44541093D02*
G75*
G02*
X160734375Y-42844729I1696371J1696367D01*
G01*
X247650682Y-34528154D02*
G75*
G02*
X246900000Y-33777472I1J750683D01*
G01*
X165616758Y-48720819D02*
G75*
G03*
X167282953Y-49410979I1666197J1666201D01*
G01*
X59531400Y-34528212D02*
G75*
G02*
X57745458Y-32742270I-1J1785941D01*
G01*
X171568750Y-20358994D02*
X171568750Y-19050000D01*
X287782000Y-21011400D02*
X172221156Y-21011400D01*
X171568750Y-20358994D02*
G75*
G03*
X172221156Y-21011400I652405J-1D01*
G01*
X285155406Y-33337584D02*
X277416324Y-33337584D01*
X276975000Y-31075000D02*
X276975000Y-32896260D01*
X276975000Y-32896260D02*
G75*
G03*
X277416324Y-33337584I441325J1D01*
G01*
X270032429Y-30005323D02*
X273248667Y-26789085D01*
X274972620Y-26075000D02*
X275475000Y-26075000D01*
X274972620Y-26075001D02*
G75*
G03*
X273248668Y-26789086I1J-2438039D01*
G01*
X270032429Y-30005323D02*
G75*
G02*
X267450000Y-31075000I-2582430J2582432D01*
G01*
X192482286Y-22222911D02*
X159942714Y-22222911D01*
X134100000Y-25975000D02*
X134100000Y-23455197D01*
X219825000Y-25975000D02*
X219825000Y-23455197D01*
X296066891Y-22222911D02*
X278207286Y-22222911D01*
X86475000Y-25975000D02*
X86475000Y-23455197D01*
X210300000Y-25975000D02*
X210300000Y-23455197D01*
X160358868Y-44456830D02*
X168676921Y-52774883D01*
X257925000Y-25975000D02*
X257925000Y-23455197D01*
X97232286Y-22222911D02*
X87707286Y-22222911D01*
X163553235Y-55986929D02*
X165937899Y-53602265D01*
X168681553Y-52774883D02*
X179695048Y-63788378D01*
X249632286Y-22222911D02*
X240107286Y-22222911D01*
X76950000Y-25975000D02*
X76950000Y-23455197D01*
X168676921Y-52774883D02*
X168681553Y-52774883D01*
X116282286Y-22222911D02*
X106757286Y-22222911D01*
X268682286Y-22222911D02*
X259157286Y-22222911D01*
X87707286Y-22222911D02*
X78182286Y-22222911D01*
X135332286Y-22222911D02*
X125807286Y-22222911D01*
X153150000Y-25975000D02*
X153150000Y-23455197D01*
X177022169Y-42517995D02*
X178703098Y-40837066D01*
X278207286Y-22222911D02*
X268682286Y-22222911D01*
X179946438Y-66531594D02*
X176947755Y-69530277D01*
X297942000Y-21011400D02*
X297199723Y-21753676D01*
X179719359Y-40416117D02*
X191354940Y-40416117D01*
X238875000Y-25975000D02*
X238875000Y-23455197D01*
X115050000Y-25975000D02*
X115050000Y-23455197D01*
X191250000Y-25975000D02*
X191250000Y-23455197D01*
X248400000Y-25975000D02*
X248400000Y-23455197D01*
X160358868Y-44456830D02*
X160358868Y-44452198D01*
X106757286Y-22222911D02*
X97232286Y-22222911D01*
X158353258Y-41671910D02*
X158353258Y-23585124D01*
X160358868Y-44452198D02*
X158901038Y-42994368D01*
X202007286Y-22222911D02*
X196852089Y-22222911D01*
X143625000Y-25975000D02*
X143625000Y-23455197D01*
X96000000Y-25975000D02*
X96000000Y-23455197D01*
X195220789Y-36867531D02*
X195220789Y-23854211D01*
X196852089Y-22222911D02*
X192482286Y-22222911D01*
X230582286Y-22222911D02*
X221057286Y-22222911D01*
X124575000Y-25975000D02*
X124575000Y-23455197D01*
X259157286Y-22222911D02*
X249632286Y-22222911D01*
X240107286Y-22222911D02*
X230582286Y-22222911D01*
X267450000Y-25975000D02*
X267450000Y-23455197D01*
X67425000Y-26075000D02*
X67425000Y-23685794D01*
X229350000Y-25975000D02*
X229350000Y-23455197D01*
X194072038Y-39290658D02*
X194319669Y-39043027D01*
X144857286Y-22222911D02*
X135332286Y-22222911D01*
X221057286Y-22222911D02*
X211532286Y-22222911D01*
X78182286Y-22222911D02*
X68887883Y-22222911D01*
X276975000Y-25975000D02*
X276975000Y-23455197D01*
X105525000Y-25975000D02*
X105525000Y-23455197D01*
X159942714Y-22222911D02*
X154382286Y-22222911D01*
X211532286Y-22222911D02*
X202007286Y-22222911D01*
X125807286Y-22222911D02*
X116282286Y-22222911D01*
X154382286Y-22222911D02*
X144857286Y-22222911D01*
X180380142Y-65484540D02*
X180380142Y-65442341D01*
X194304797Y-52175817D02*
X190491190Y-55989424D01*
X200775000Y-25975000D02*
X200775000Y-23455197D01*
X195220789Y-49964417D02*
X195220789Y-36867531D01*
X97232286Y-22222911D02*
G75*
G03*
X96000000Y-23455197I-1J-1232285D01*
G01*
X179719359Y-40416117D02*
G75*
G03*
X178703098Y-40837066I-1J-1437207D01*
G01*
X268682286Y-22222911D02*
G75*
G03*
X267450000Y-23455197I-1J-1232285D01*
G01*
X135332286Y-22222911D02*
G75*
G03*
X134100000Y-23455197I-1J-1232285D01*
G01*
X158353259Y-41671910D02*
G75*
G03*
X158901039Y-42994367I1870233J-2D01*
G01*
X240107286Y-22222911D02*
G75*
G03*
X238875000Y-23455197I-1J-1232285D01*
G01*
X195220789Y-36867531D02*
G75*
G02*
X194319669Y-39043027I-3076610J-2D01*
G01*
X179695048Y-63788378D02*
G75*
G02*
X180380142Y-65442341I-1653963J-1653963D01*
G01*
X78182286Y-22222911D02*
G75*
G03*
X76950000Y-23455197I-1J-1232285D01*
G01*
X194304797Y-52175817D02*
G75*
G03*
X195220789Y-49964417I-2211405J2211402D01*
G01*
X259157286Y-22222911D02*
G75*
G03*
X257925000Y-23455197I-1J-1232285D01*
G01*
X144857286Y-22222911D02*
G75*
G03*
X143625000Y-23455197I-1J-1232285D01*
G01*
X165975847Y-50073809D02*
G75*
G02*
X166687640Y-51792231I-1718426J-1718422D01*
G01*
X192482286Y-22222911D02*
G75*
G03*
X191250000Y-23455197I-1J-1232285D01*
G01*
X194072038Y-39290658D02*
G75*
G02*
X191354940Y-40416117I-2717101J2717105D01*
G01*
X249632286Y-22222911D02*
G75*
G03*
X248400000Y-23455197I-1J-1232285D01*
G01*
X106757286Y-22222911D02*
G75*
G03*
X105525000Y-23455197I-1J-1232285D01*
G01*
X278207286Y-22222911D02*
G75*
G03*
X276975000Y-23455197I-1J-1232285D01*
G01*
X125807286Y-22222911D02*
G75*
G03*
X124575000Y-23455197I-1J-1232285D01*
G01*
X211532286Y-22222911D02*
G75*
G03*
X210300000Y-23455197I-1J-1232285D01*
G01*
X202007286Y-22222911D02*
G75*
G03*
X200775000Y-23455197I-1J-1232285D01*
G01*
X166687639Y-51792231D02*
G75*
G02*
X165937898Y-53602264I-2559771J-1D01*
G01*
X67425000Y-23685794D02*
G75*
G02*
X68887883Y-22222911I1462885J-2D01*
G01*
X154382286Y-22222911D02*
G75*
G03*
X153150000Y-23455197I-1J-1232285D01*
G01*
X221057286Y-22222911D02*
G75*
G03*
X219825000Y-23455197I-1J-1232285D01*
G01*
X116282286Y-22222911D02*
G75*
G03*
X115050000Y-23455197I-1J-1232285D01*
G01*
X179946438Y-66531594D02*
G75*
G03*
X180380142Y-65484540I-1047052J1047053D01*
G01*
X196852089Y-22222911D02*
G75*
G03*
X195220789Y-23854211I1J-1631301D01*
G01*
X230582286Y-22222911D02*
G75*
G03*
X229350000Y-23455197I-1J-1232285D01*
G01*
X87707286Y-22222911D02*
G75*
G03*
X86475000Y-23455197I-1J-1232285D01*
G01*
X159942714Y-22222911D02*
G75*
G03*
X158353258Y-23812367I0J-1589456D01*
G01*
X296066891Y-22222911D02*
G75*
G03*
X297199723Y-21753676I0J1602064D01*
G01*
X260507415Y-30005328D02*
X263723659Y-26789085D01*
X265447612Y-26075000D02*
X265950000Y-26075000D01*
X260507415Y-30005328D02*
G75*
G02*
X257925000Y-31075000I-2582416J2582416D01*
G01*
X265447612Y-26075001D02*
G75*
G03*
X263723660Y-26789086I1J-2438039D01*
G01*
X255922604Y-26075000D02*
X256425000Y-26075000D01*
X250982402Y-30005334D02*
X254198651Y-26789085D01*
X250982402Y-30005334D02*
G75*
G02*
X248400000Y-31075000I-2582401J2582400D01*
G01*
X255922604Y-26075001D02*
G75*
G03*
X254198652Y-26789086I1J-2438039D01*
G01*
X246397596Y-26075000D02*
X246900000Y-26075000D01*
X241457388Y-30005340D02*
X244673643Y-26789085D01*
X246397596Y-26075001D02*
G75*
G03*
X244673644Y-26789086I1J-2438039D01*
G01*
X241457388Y-30005340D02*
G75*
G02*
X238875000Y-31075000I-2582391J2582395D01*
G01*
X236872588Y-26075000D02*
X237375000Y-26075000D01*
X231932374Y-30005345D02*
X235148635Y-26789085D01*
X236872588Y-26075001D02*
G75*
G03*
X235148636Y-26789086I1J-2438039D01*
G01*
X231932374Y-30005345D02*
G75*
G02*
X229350000Y-31075000I-2582372J2582368D01*
G01*
X227347580Y-26075000D02*
X227850000Y-26075000D01*
X222407361Y-30005351D02*
X225623627Y-26789085D01*
X227347580Y-26075001D02*
G75*
G03*
X225623628Y-26789086I1J-2438039D01*
G01*
X222407361Y-30005351D02*
G75*
G02*
X219825000Y-31075000I-2582362J2582363D01*
G01*
X212882348Y-30005357D02*
X216098619Y-26789085D01*
X217822572Y-26075000D02*
X218325000Y-26075000D01*
X217822572Y-26075001D02*
G75*
G03*
X216098620Y-26789086I1J-2438039D01*
G01*
X212882348Y-30005357D02*
G75*
G02*
X210300000Y-31075000I-2582348J2582351D01*
G01*
X208297564Y-26075000D02*
X208800000Y-26075000D01*
X203357333Y-30005362D02*
X206573611Y-26789085D01*
X208297564Y-26075001D02*
G75*
G03*
X206573612Y-26789086I1J-2438039D01*
G01*
X203357333Y-30005362D02*
G75*
G02*
X200775000Y-31075000I-2582333J2582331D01*
G01*
X193832320Y-30005368D02*
X194072038Y-29765650D01*
X196453290Y-27384398D02*
X196693322Y-27144366D01*
X193832320Y-30005368D02*
G75*
G02*
X191250000Y-31075000I-2582318J2582314D01*
G01*
X199275000Y-26075001D02*
G75*
G03*
X196693323Y-27144367I4J-3651053D01*
G01*
X165579283Y-26075000D02*
X189750000Y-26075000D01*
X153150000Y-31075000D02*
X154662500Y-31075000D01*
X165579283Y-26075000D02*
G75*
G03*
X159543750Y-28575000I1J-8535534D01*
G01*
X146207251Y-30005396D02*
X149423563Y-26789085D01*
X151147516Y-26075000D02*
X151650000Y-26075000D01*
X151147516Y-26075001D02*
G75*
G03*
X149423564Y-26789086I1J-2438039D01*
G01*
X146207251Y-30005396D02*
G75*
G02*
X143625000Y-31075000I-2582251J2582250D01*
G01*
X136682238Y-30005402D02*
X139898555Y-26789085D01*
X141622508Y-26075000D02*
X142125000Y-26075000D01*
X136682238Y-30005402D02*
G75*
G02*
X134100000Y-31075000I-2582236J2582233D01*
G01*
X141622508Y-26075001D02*
G75*
G03*
X139898556Y-26789086I1J-2438039D01*
G01*
X127157225Y-30005408D02*
X130373547Y-26789085D01*
X132097500Y-26075000D02*
X132600000Y-26075000D01*
X132097500Y-26075001D02*
G75*
G03*
X130373548Y-26789086I1J-2438039D01*
G01*
X127157225Y-30005408D02*
G75*
G02*
X124575000Y-31075000I-2582225J2582228D01*
G01*
X122572492Y-26075000D02*
X123075000Y-26075000D01*
X117632210Y-30005413D02*
X120848539Y-26789085D01*
X117632210Y-30005413D02*
G75*
G02*
X115050000Y-31075000I-2582207J2582202D01*
G01*
X122572492Y-26075001D02*
G75*
G03*
X120848540Y-26789086I1J-2438039D01*
G01*
X108107197Y-30005419D02*
X110968199Y-27144417D01*
X113550000Y-26075001D02*
G75*
G03*
X110968199Y-27144417I-3J-3651211D01*
G01*
X108107197Y-30005419D02*
G75*
G02*
X105525000Y-31075000I-2582197J2582196D01*
G01*
X103522476Y-26075000D02*
X104025000Y-26075000D01*
X98582184Y-30005425D02*
X101798523Y-26789085D01*
X98582184Y-30005425D02*
G75*
G02*
X96000000Y-31075000I-2582186J2582191D01*
G01*
X103522476Y-26075001D02*
G75*
G03*
X101798524Y-26789086I1J-2438039D01*
G01*
X89057169Y-30005430D02*
X92273515Y-26789085D01*
X93997468Y-26075000D02*
X94500000Y-26075000D01*
X93997468Y-26075001D02*
G75*
G03*
X92273516Y-26789086I1J-2438039D01*
G01*
X89057169Y-30005430D02*
G75*
G02*
X86475000Y-31075000I-2582168J2582164D01*
G01*
X84472460Y-26075000D02*
X84975000Y-26075000D01*
X79532156Y-30005436D02*
X82748507Y-26789085D01*
X84472460Y-26075001D02*
G75*
G03*
X82748508Y-26789086I1J-2438039D01*
G01*
X79532156Y-30005436D02*
G75*
G02*
X76950000Y-31075000I-2582157J2582159D01*
G01*
X70007143Y-30005442D02*
X72868144Y-27144440D01*
X75450000Y-26075001D02*
G75*
G03*
X72868145Y-27144441I-3J-3651287D01*
G01*
X70007143Y-30005442D02*
G75*
G02*
X67425000Y-31075000I-2582144J2582147D01*
G01*
X160017701Y-59522463D02*
X160975744Y-60480506D01*
X65925000Y-26075000D02*
X64412500Y-26075000D01*
X63103125Y-27384375D02*
X63103125Y-33337500D01*
X63103125Y-27384375D02*
G75*
G02*
X64412500Y-26075000I1309375J0D01*
G01*
X173380371Y-73079003D02*
X171450000Y-75009375D01*
X162492575Y-54926269D02*
X164073484Y-53345359D01*
X188094834Y-60664135D02*
X186955656Y-59524958D01*
X175887095Y-68469617D02*
X177542419Y-66814294D01*
X184546875Y-65484375D02*
X187276851Y-62754399D01*
X188094834Y-60664135D02*
G75*
G02*
X188118750Y-60721875I-57750J-57743D01*
G01*
X188118749Y-60721875D02*
G75*
G02*
X187276850Y-62754398I-2874418J-2D01*
G01*
X173486635Y-46053529D02*
X175432451Y-47999345D01*
X189430530Y-54928764D02*
X191235897Y-53123397D01*
X179435649Y-47973726D02*
X183704976Y-43704399D01*
X187770024Y-43704399D02*
X190500000Y-46434375D01*
X177403125Y-48815625D02*
G75*
G02*
X175432451Y-47999345I-1J2786951D01*
G01*
X187770024Y-43704399D02*
G75*
G03*
X185737500Y-42862500I-2032522J-2032520D01*
G01*
X179435649Y-47973726D02*
G75*
G02*
X177403125Y-48815625I-2032522J2032520D01*
G01*
X185737500Y-42862500D02*
G75*
G03*
X183704976Y-43704399I3J-2874430D01*
G01*
X207312500Y-45045000D02*
X207312500Y-42719380D01*
X26337500Y-45045000D02*
X26337500Y-74865880D01*
X26337500Y-74865880D02*
X26337500Y-102195000D01*
X207312500Y-45045000D02*
X207312500Y-74866336D01*
X207312500Y-74866336D02*
X207312500Y-102195000D01*
X226362500Y-76057012D02*
X226362500Y-102195000D01*
X45387500Y-102195000D02*
X45387500Y-76056556D01*
X226362500Y-45045000D02*
X226362500Y-76057012D01*
X45387500Y-76056556D02*
X45387500Y-45045000D01*
X226362500Y-45045000D02*
X226362500Y-42719428D01*
X64437500Y-77247232D02*
X64437500Y-102195000D01*
X245412500Y-102195000D02*
X245412500Y-77247688D01*
X64437500Y-45045000D02*
X64437500Y-77247232D01*
X245412500Y-45045000D02*
X245412500Y-42719476D01*
X245412500Y-77247688D02*
X245412500Y-45045000D01*
X83487500Y-102195000D02*
X83487500Y-93916072D01*
X264462500Y-45045000D02*
X264462500Y-42719524D01*
X83487500Y-93916072D02*
X83487500Y-45045000D01*
X264462500Y-45045000D02*
X264462500Y-93916528D01*
X264462500Y-93916528D02*
X264462500Y-102195000D01*
X102537500Y-95106748D02*
X102537500Y-102195000D01*
X283512500Y-45045000D02*
X283512500Y-42719572D01*
X283512500Y-95107204D02*
X283512500Y-45045000D01*
X102537500Y-45045000D02*
X102537500Y-95106748D01*
X283512500Y-102195000D02*
X283512500Y-95107204D01*
X121587500Y-96297424D02*
X121587500Y-45045000D01*
X302562500Y-96297880D02*
X302562500Y-102195000D01*
X302562500Y-95988542D02*
X302562500Y-96297880D01*
X121587500Y-102195000D02*
X121587500Y-96297424D01*
X302562500Y-45045000D02*
X302562500Y-95988542D01*
X302562500Y-45045000D02*
X302562500Y-42719620D01*
X178146302Y-57077047D02*
X181978479Y-60909225D01*
X164675917Y-43606662D02*
X168473579Y-47404324D01*
X156601835Y-62473349D02*
X164675917Y-70547431D01*
X164675917Y-70547431D02*
X168508095Y-74379609D01*
X171450236Y-104774532D02*
X171450236Y-113109660D01*
X171484451Y-77355965D02*
X171450236Y-77390180D01*
X170072219Y-49002965D02*
X178146302Y-57077047D01*
X151205533Y-57077047D02*
X155113552Y-60985067D01*
X171450236Y-77390180D02*
X171450236Y-104774532D01*
X315722000Y-36231400D02*
X315722000Y-37894516D01*
X165601498Y-114404494D02*
X316602842Y-114404494D01*
X319896267Y-40872491D02*
X319896267Y-111111069D01*
X161568936Y-87750000D02*
X157281250Y-87750000D01*
X163116036Y-111919032D02*
X163116036Y-89297100D01*
X316909796Y-39082312D02*
X318106088Y-39082312D01*
X163116036Y-111919032D02*
G75*
G03*
X165601498Y-114404494I2485462J0D01*
G01*
X319896267Y-40872491D02*
G75*
G03*
X318106088Y-39082312I-1790178J1D01*
G01*
X161568936Y-87750000D02*
G75*
G02*
X163116036Y-89297100I0J-1547100D01*
G01*
X316602842Y-114404494D02*
G75*
G03*
X319896267Y-111111069I-1J3293426D01*
G01*
X316909796Y-39082312D02*
G75*
G02*
X315722000Y-37894516I-1J1187795D01*
G01*
X318262000Y-36231400D02*
X319005550Y-36231400D01*
X152281250Y-87750000D02*
X148021715Y-87750000D01*
X148441598Y-115104014D02*
X316892592Y-115104014D01*
X320595787Y-111400819D02*
X320595787Y-37821637D01*
X146447244Y-89324471D02*
X146447244Y-113109660D01*
X320595787Y-37821637D02*
G75*
G03*
X319005550Y-36231400I-1590238J-1D01*
G01*
X320595787Y-111400819D02*
G75*
G02*
X316892592Y-115104014I-3703196J1D01*
G01*
X146447244Y-89324471D02*
G75*
G02*
X148021715Y-87750000I1574471J0D01*
G01*
X148441598Y-115104014D02*
G75*
G02*
X146447244Y-113109660I1J1994355D01*
G01*
X318492990Y-110810684D02*
X318492990Y-41671980D01*
X195857977Y-88106324D02*
X196032340Y-88280687D01*
X198730670Y-113005454D02*
X316298220Y-113005454D01*
X196453290Y-89296950D02*
X196453290Y-110728074D01*
X190618750Y-87750000D02*
X194997735Y-87750000D01*
X317302362Y-40481352D02*
X311349222Y-40481352D01*
X310642000Y-39774130D02*
X310642000Y-36231400D01*
X310642000Y-39774130D02*
G75*
G03*
X311349222Y-40481352I707224J2D01*
G01*
X196453290Y-89296950D02*
G75*
G03*
X196032340Y-88280687I-1437207J2D01*
G01*
X195857977Y-88106324D02*
G75*
G03*
X194997735Y-87750000I-860245J-860249D01*
G01*
X198730670Y-113005454D02*
G75*
G02*
X196453290Y-110728074I-1J2277379D01*
G01*
X318492990Y-110810684D02*
G75*
G02*
X316298220Y-113005454I-2194769J-1D01*
G01*
X317302362Y-40481352D02*
G75*
G02*
X318492990Y-41671980I0J-1190628D01*
G01*
X317793470Y-39781832D02*
X314221586Y-39781832D01*
X182166084Y-113704974D02*
X316320146Y-113704974D01*
X179784526Y-111323416D02*
X179784526Y-89543536D01*
X181240081Y-87750000D02*
X185618750Y-87750000D01*
X319192510Y-110832610D02*
X319192510Y-41180872D01*
X313182000Y-38742246D02*
X313182000Y-36231400D01*
X182166084Y-113704974D02*
G75*
G02*
X179784526Y-111323416I-1J2381557D01*
G01*
X181240081Y-87750001D02*
G75*
G03*
X180379840Y-88106325I1J-1216568D01*
G01*
X180379839Y-88106324D02*
G75*
G03*
X179784526Y-89543536I1437216J-1437214D01*
G01*
X317793470Y-39781832D02*
G75*
G02*
X319192510Y-41180872I1J-1399039D01*
G01*
X319192510Y-110832610D02*
G75*
G02*
X316320146Y-113704974I-2872364J0D01*
G01*
X313182000Y-38742246D02*
G75*
G03*
X314221586Y-39781832I1039587J1D01*
G01*
M02*
