G04 #@! TF.GenerationSoftware,KiCad,Pcbnew,(6.0.2)*
G04 #@! TF.CreationDate,2022-02-24T21:52:04+09:00*
G04 #@! TF.ProjectId,RoSoR,526f536f-522e-46b6-9963-61645f706362,rev?*
G04 #@! TF.SameCoordinates,Original*
G04 #@! TF.FileFunction,Soldermask,Top*
G04 #@! TF.FilePolarity,Negative*
%FSLAX46Y46*%
G04 Gerber Fmt 4.6, Leading zero omitted, Abs format (unit mm)*
G04 Created by KiCad (PCBNEW (6.0.2)) date 2022-02-24 21:52:04*
%MOMM*%
%LPD*%
G01*
G04 APERTURE LIST*
%ADD10C,4.000000*%
%ADD11C,3.000000*%
%ADD12C,2.000000*%
%ADD13R,2.500000X3.200000*%
%ADD14C,1.524000*%
%ADD15O,1.500000X1.500000*%
G04 APERTURE END LIST*
D10*
X252412500Y-47625000D03*
D11*
X254952500Y-42545000D03*
D12*
X257492500Y-47625000D03*
X247332500Y-47625000D03*
D11*
X248602500Y-45085000D03*
D10*
X184920385Y-53951635D03*
D12*
X188512487Y-50359533D03*
D11*
X180430257Y-54849661D03*
X183124334Y-48563481D03*
D12*
X181328283Y-57543737D03*
D11*
X54927500Y-42545000D03*
D12*
X57467500Y-47625000D03*
D10*
X52387500Y-47625000D03*
D11*
X48577500Y-45085000D03*
D12*
X47307500Y-47625000D03*
X295592500Y-47625000D03*
D10*
X290512500Y-47625000D03*
D11*
X293052500Y-42545000D03*
X286702500Y-45085000D03*
D12*
X285432500Y-47625000D03*
X57745458Y-25325072D03*
X57745458Y-31825072D03*
X209232500Y-85725000D03*
D10*
X214312500Y-85725000D03*
D11*
X210502500Y-83185000D03*
X216852500Y-80645000D03*
D12*
X219392500Y-85725000D03*
X114617500Y-85725000D03*
D11*
X105727500Y-83185000D03*
D10*
X109537500Y-85725000D03*
D12*
X104457500Y-85725000D03*
D11*
X112077500Y-80645000D03*
D12*
X28257500Y-85725000D03*
D11*
X35877500Y-80645000D03*
D12*
X38417500Y-85725000D03*
D10*
X33337500Y-85725000D03*
D11*
X29527500Y-83185000D03*
D12*
X266382500Y-85725000D03*
D11*
X274002500Y-80645000D03*
X267652500Y-83185000D03*
D10*
X271462500Y-85725000D03*
D12*
X276542500Y-85725000D03*
D10*
X252412500Y-85725000D03*
D11*
X254952500Y-80645000D03*
D12*
X247332500Y-85725000D03*
D11*
X248602500Y-83185000D03*
D12*
X257492500Y-85725000D03*
X76517500Y-66675000D03*
D11*
X67627500Y-64135000D03*
D10*
X71437500Y-66675000D03*
D11*
X73977500Y-61595000D03*
D12*
X66357500Y-66675000D03*
D10*
X252412500Y-104775000D03*
D12*
X247332500Y-104775000D03*
X257492500Y-104775000D03*
D11*
X254952500Y-99695000D03*
X248602500Y-102235000D03*
D12*
X133667500Y-66675000D03*
D11*
X131127500Y-61595000D03*
X124777500Y-64135000D03*
D10*
X128587500Y-66675000D03*
D12*
X123507500Y-66675000D03*
X95567500Y-104775000D03*
D11*
X86677500Y-102235000D03*
X93027500Y-99695000D03*
D12*
X85407500Y-104775000D03*
D10*
X90487500Y-104775000D03*
D12*
X285432500Y-85725000D03*
D11*
X286702500Y-83185000D03*
D10*
X290512500Y-85725000D03*
D12*
X295592500Y-85725000D03*
D11*
X293052500Y-80645000D03*
D12*
X66357500Y-47625000D03*
D11*
X73977500Y-42545000D03*
X67627500Y-45085000D03*
D12*
X76517500Y-47625000D03*
D10*
X71437500Y-47625000D03*
D12*
X238442500Y-47625000D03*
X228282500Y-47625000D03*
D11*
X235902500Y-42545000D03*
X229552500Y-45085000D03*
D10*
X233362500Y-47625000D03*
D11*
X305752500Y-83185000D03*
D12*
X304482500Y-85725000D03*
D11*
X312102500Y-80645000D03*
D10*
X309562500Y-85725000D03*
D12*
X314642500Y-85725000D03*
D10*
X309562500Y-104775000D03*
D12*
X304482500Y-104775000D03*
D11*
X312102500Y-99695000D03*
X305752500Y-102235000D03*
D12*
X314642500Y-104775000D03*
X238442500Y-66675000D03*
D11*
X229552500Y-64135000D03*
X235902500Y-61595000D03*
D12*
X228282500Y-66675000D03*
D10*
X233362500Y-66675000D03*
X233362500Y-104775000D03*
D11*
X229552500Y-102235000D03*
D12*
X238442500Y-104775000D03*
D11*
X235902500Y-99695000D03*
D12*
X228282500Y-104775000D03*
X38417500Y-47625000D03*
D11*
X29527500Y-45085000D03*
D12*
X28257500Y-47625000D03*
D10*
X33337500Y-47625000D03*
D11*
X35877500Y-42545000D03*
D12*
X157281250Y-87750000D03*
X152281250Y-87750000D03*
X154781250Y-87750000D03*
D13*
X160381250Y-95250000D03*
X149181250Y-95250000D03*
D12*
X152281250Y-102250000D03*
X157281250Y-102250000D03*
X190618750Y-87750000D03*
X185618750Y-87750000D03*
X188118750Y-87750000D03*
D13*
X182518750Y-95250000D03*
X193718750Y-95250000D03*
D12*
X185618750Y-102250000D03*
X190618750Y-102250000D03*
X47307500Y-85725000D03*
D10*
X52387500Y-85725000D03*
D11*
X48577500Y-83185000D03*
D12*
X57467500Y-85725000D03*
D11*
X54927500Y-80645000D03*
X267652500Y-45085000D03*
D10*
X271462500Y-47625000D03*
D11*
X274002500Y-42545000D03*
D12*
X276542500Y-47625000D03*
X266382500Y-47625000D03*
D11*
X305752500Y-64135000D03*
D12*
X304482500Y-66675000D03*
X314642500Y-66675000D03*
D10*
X309562500Y-66675000D03*
D11*
X312102500Y-61595000D03*
D14*
X290322000Y-36231400D03*
X292862000Y-36231400D03*
X295402000Y-36231400D03*
X297942000Y-36231400D03*
X300482000Y-36231400D03*
X303022000Y-36231400D03*
X305562000Y-36231400D03*
X308102000Y-36231400D03*
X310642000Y-36231400D03*
X313182000Y-36231400D03*
X315722000Y-36231400D03*
X318262000Y-36231400D03*
X318262000Y-21011400D03*
X315722000Y-21011400D03*
X313182000Y-21011400D03*
X310642000Y-21011400D03*
X308102000Y-21011400D03*
X305562000Y-21011400D03*
X303022000Y-21011400D03*
X300482000Y-21011400D03*
X297942000Y-21011400D03*
X295402000Y-21011400D03*
X292862000Y-21011400D03*
X290322000Y-21011400D03*
X287782000Y-21011400D03*
X287782000Y-36231400D03*
D12*
X175042102Y-36889148D03*
D11*
X166959872Y-41379276D03*
X169653949Y-35093096D03*
D12*
X167857898Y-44073352D03*
D10*
X171450000Y-40481250D03*
X128587500Y-47625000D03*
D12*
X133667500Y-47625000D03*
X123507500Y-47625000D03*
D11*
X131127500Y-42545000D03*
X124777500Y-45085000D03*
D12*
X104457500Y-104775000D03*
D11*
X105727500Y-102235000D03*
D12*
X114617500Y-104775000D03*
D11*
X112077500Y-99695000D03*
D10*
X109537500Y-104775000D03*
D11*
X48577500Y-64135000D03*
D12*
X57467500Y-66675000D03*
D11*
X54927500Y-61595000D03*
D12*
X47307500Y-66675000D03*
D10*
X52387500Y-66675000D03*
D11*
X105727500Y-64135000D03*
D12*
X104457500Y-66675000D03*
D11*
X112077500Y-61595000D03*
D12*
X114617500Y-66675000D03*
D10*
X109537500Y-66675000D03*
D12*
X161571718Y-50359533D03*
D11*
X153489488Y-54849661D03*
D12*
X154387514Y-57543737D03*
D11*
X156183565Y-48563481D03*
D10*
X157979616Y-53951635D03*
X214312500Y-47625000D03*
D11*
X210502500Y-45085000D03*
D12*
X219392500Y-47625000D03*
X209232500Y-47625000D03*
D11*
X216852500Y-42545000D03*
D12*
X66357500Y-85725000D03*
X76517500Y-85725000D03*
D11*
X67627500Y-83185000D03*
X73977500Y-80645000D03*
D10*
X71437500Y-85725000D03*
X252412500Y-66675000D03*
D11*
X248602500Y-64135000D03*
D12*
X257492500Y-66675000D03*
D11*
X254952500Y-61595000D03*
D12*
X247332500Y-66675000D03*
X266382500Y-104775000D03*
D11*
X274002500Y-99695000D03*
X267652500Y-102235000D03*
D10*
X271462500Y-104775000D03*
D12*
X276542500Y-104775000D03*
X295592500Y-66675000D03*
D10*
X290512500Y-66675000D03*
D11*
X286702500Y-64135000D03*
X293052500Y-61595000D03*
D12*
X285432500Y-66675000D03*
X285432500Y-104775000D03*
D10*
X290512500Y-104775000D03*
D11*
X293052500Y-99695000D03*
D12*
X295592500Y-104775000D03*
D11*
X286702500Y-102235000D03*
D10*
X71437500Y-104775000D03*
D11*
X73977500Y-99695000D03*
D12*
X66357500Y-104775000D03*
X76517500Y-104775000D03*
D11*
X67627500Y-102235000D03*
D12*
X209232500Y-104775000D03*
D11*
X210502500Y-102235000D03*
D12*
X219392500Y-104775000D03*
D10*
X214312500Y-104775000D03*
D11*
X216852500Y-99695000D03*
X305752500Y-45085000D03*
X312102500Y-42545000D03*
D12*
X304482500Y-47625000D03*
D10*
X309562500Y-47625000D03*
D12*
X314642500Y-47625000D03*
D10*
X90487500Y-66675000D03*
D11*
X86677500Y-64135000D03*
D12*
X95567500Y-66675000D03*
X85407500Y-66675000D03*
D11*
X93027500Y-61595000D03*
D12*
X219392500Y-66675000D03*
D11*
X210502500Y-64135000D03*
D10*
X214312500Y-66675000D03*
D11*
X216852500Y-61595000D03*
D12*
X209232500Y-66675000D03*
X114617500Y-47625000D03*
D11*
X105727500Y-45085000D03*
D10*
X109537500Y-47625000D03*
D11*
X112077500Y-42545000D03*
D12*
X104457500Y-47625000D03*
D11*
X93027500Y-80645000D03*
D12*
X85407500Y-85725000D03*
X95567500Y-85725000D03*
D10*
X90487500Y-85725000D03*
D11*
X86677500Y-83185000D03*
X124777500Y-83185000D03*
D12*
X133667500Y-85725000D03*
D10*
X128587500Y-85725000D03*
D11*
X131127500Y-80645000D03*
D12*
X123507500Y-85725000D03*
D11*
X35877500Y-61595000D03*
D12*
X38417500Y-66675000D03*
D11*
X29527500Y-64135000D03*
D12*
X28257500Y-66675000D03*
D10*
X33337500Y-66675000D03*
X128587500Y-104775000D03*
D11*
X131127500Y-99695000D03*
D12*
X133667500Y-104775000D03*
X123507500Y-104775000D03*
D11*
X124777500Y-102235000D03*
D12*
X38417500Y-104775000D03*
D11*
X29527500Y-102235000D03*
X35877500Y-99695000D03*
D10*
X33337500Y-104775000D03*
D12*
X28257500Y-104775000D03*
D15*
X171568750Y-19050000D03*
X169068750Y-19050000D03*
X174068750Y-19050000D03*
D12*
X85407500Y-47625000D03*
D10*
X90487500Y-47625000D03*
D12*
X95567500Y-47625000D03*
D11*
X86677500Y-45085000D03*
X93027500Y-42545000D03*
X54927500Y-99695000D03*
D12*
X57467500Y-104775000D03*
D11*
X48577500Y-102235000D03*
D12*
X47307500Y-104775000D03*
D10*
X52387500Y-104775000D03*
X171450000Y-67422019D03*
D11*
X166959872Y-68320045D03*
D12*
X175042102Y-63829917D03*
X167857898Y-71014121D03*
D11*
X169653949Y-62033865D03*
X229552500Y-83185000D03*
D12*
X228282500Y-85725000D03*
D10*
X233362500Y-85725000D03*
D11*
X235902500Y-80645000D03*
D12*
X238442500Y-85725000D03*
X276542500Y-66675000D03*
X266382500Y-66675000D03*
D11*
X274002500Y-61595000D03*
D10*
X271462500Y-66675000D03*
D11*
X267652500Y-64135000D03*
M02*
