G04 #@! TF.GenerationSoftware,KiCad,Pcbnew,(6.0.2)*
G04 #@! TF.CreationDate,2022-02-24T21:52:04+09:00*
G04 #@! TF.ProjectId,RoSoR,526f536f-522e-46b6-9963-61645f706362,rev?*
G04 #@! TF.SameCoordinates,Original*
G04 #@! TF.FileFunction,Legend,Top*
G04 #@! TF.FilePolarity,Positive*
%FSLAX46Y46*%
G04 Gerber Fmt 4.6, Leading zero omitted, Abs format (unit mm)*
G04 Created by KiCad (PCBNEW (6.0.2)) date 2022-02-24 21:52:04*
%MOMM*%
%LPD*%
G01*
G04 APERTURE LIST*
%ADD10C,0.150000*%
%ADD11C,0.450000*%
%ADD12C,0.250000*%
%ADD13C,0.500000*%
%ADD14C,0.350000*%
%ADD15C,4.000000*%
%ADD16C,2.000000*%
G04 APERTURE END LIST*
D10*
X40332388Y-53578080D02*
X40332388Y-54619876D01*
X264467356Y-111769828D02*
X264467356Y-110728032D01*
X245417372Y-60721824D02*
X245417372Y-59680028D01*
X171443660Y-30587472D02*
X170706999Y-31324133D01*
X207317404Y-98821792D02*
X207317404Y-97779996D01*
X64442524Y-41671840D02*
X64442524Y-40630044D01*
X259407204Y-97779996D02*
X259407204Y-98821792D01*
X172180321Y-49635421D02*
X171443660Y-50372082D01*
X58340576Y-59680028D02*
X59382372Y-59680028D01*
X239315424Y-40630044D02*
X240357220Y-40630044D01*
X134540512Y-40630044D02*
X135582308Y-40630044D01*
X296465376Y-78730012D02*
X297507172Y-78730012D01*
X277415392Y-40630044D02*
X278457188Y-40630044D01*
X46434336Y-54619876D02*
X45392540Y-54619876D01*
X102542492Y-79771808D02*
X102542492Y-78730012D01*
X180599304Y-66683861D02*
X181335965Y-67420522D01*
X194806338Y-53950150D02*
X194069677Y-54686811D01*
X59382372Y-73669860D02*
X58340576Y-73669860D01*
X45392540Y-97779996D02*
X46434336Y-97779996D01*
X115490528Y-78730012D02*
X116532324Y-78730012D01*
X207317404Y-41671840D02*
X207317404Y-40630044D01*
X207317404Y-97779996D02*
X208359200Y-97779996D01*
X316557156Y-92719844D02*
X315515360Y-92719844D01*
X240357220Y-72628064D02*
X240357220Y-73669860D01*
X26342556Y-91678048D02*
X26342556Y-92719844D01*
X221307236Y-40630044D02*
X221307236Y-41671840D01*
X59382372Y-92719844D02*
X58340576Y-92719844D01*
X226367388Y-98821792D02*
X226367388Y-97779996D01*
X264467356Y-97779996D02*
X265509152Y-97779996D01*
X240357220Y-78730012D02*
X240357220Y-79771808D01*
X220265440Y-97779996D02*
X221307236Y-97779996D01*
X245417372Y-41671840D02*
X245417372Y-40630044D01*
X45392540Y-40630044D02*
X46434336Y-40630044D01*
X97482340Y-91678048D02*
X97482340Y-92719844D01*
X258365408Y-78730012D02*
X259407204Y-78730012D01*
X221307236Y-92719844D02*
X220265440Y-92719844D01*
X315515360Y-97779996D02*
X316557156Y-97779996D01*
X296465376Y-40630044D02*
X297507172Y-40630044D01*
X316557156Y-78730012D02*
X316557156Y-79771808D01*
D11*
X146193029Y-53951634D02*
X171450000Y-28694664D01*
X171450000Y-28694664D02*
X196706970Y-53951634D01*
X196706970Y-53951634D02*
X171450000Y-79208605D01*
X171450000Y-79208605D02*
X146193029Y-53951634D01*
D10*
X265509152Y-92719844D02*
X264467356Y-92719844D01*
X283517340Y-111769828D02*
X283517340Y-110728032D01*
X208359200Y-111769828D02*
X207317404Y-111769828D01*
X135582308Y-53578080D02*
X135582308Y-54619876D01*
X240357220Y-40630044D02*
X240357220Y-41671840D01*
X78432356Y-54619876D02*
X77390560Y-54619876D01*
D12*
X167878125Y-95250000D02*
G75*
G03*
X167878125Y-95250000I-13096875J0D01*
G01*
D10*
X207317404Y-60721824D02*
X207317404Y-59680028D01*
X121592476Y-98821792D02*
X121592476Y-97779996D01*
X277415392Y-97779996D02*
X278457188Y-97779996D01*
X207317404Y-111769828D02*
X207317404Y-110728032D01*
X246459168Y-92719844D02*
X245417372Y-92719844D01*
X297507172Y-72628064D02*
X297507172Y-73669860D01*
X78432356Y-91678048D02*
X78432356Y-92719844D01*
X245417372Y-92719844D02*
X245417372Y-91678048D01*
X259407204Y-91678048D02*
X259407204Y-92719844D01*
X27384352Y-54619876D02*
X26342556Y-54619876D01*
X259407204Y-54619876D02*
X258365408Y-54619876D01*
X97482340Y-111769828D02*
X96440544Y-111769828D01*
X103584288Y-111769828D02*
X102542492Y-111769828D01*
X259407204Y-59680028D02*
X259407204Y-60721824D01*
X65484320Y-92719844D02*
X64442524Y-92719844D01*
X157973287Y-44057845D02*
X158709948Y-44794506D01*
X102542492Y-78730012D02*
X103584288Y-78730012D01*
X297507172Y-40630044D02*
X297507172Y-41671840D01*
X46434336Y-73669860D02*
X45392540Y-73669860D01*
X97482340Y-78730012D02*
X97482340Y-79771808D01*
X226367388Y-92719844D02*
X226367388Y-91678048D01*
X316557156Y-53578080D02*
X316557156Y-54619876D01*
X175758389Y-53213489D02*
X175021728Y-53950150D01*
X115490528Y-40630044D02*
X116532324Y-40630044D01*
X83492508Y-41671840D02*
X83492508Y-40630044D01*
X121592476Y-73669860D02*
X121592476Y-72628064D01*
X122634272Y-54619876D02*
X121592476Y-54619876D01*
X278457188Y-72628064D02*
X278457188Y-73669860D01*
X207317404Y-91678048D02*
X207317404Y-92719844D01*
X135582308Y-73669860D02*
X134540512Y-73669860D01*
X175021728Y-53950150D02*
X175758389Y-54686811D01*
X264467356Y-92719844D02*
X264467356Y-91678048D01*
X278457188Y-78730012D02*
X278457188Y-79771808D01*
X239315424Y-78730012D02*
X240357220Y-78730012D01*
X316557156Y-40630044D02*
X316557156Y-41671840D01*
X135582308Y-92719844D02*
X134540512Y-92719844D01*
X64442524Y-54619876D02*
X64442524Y-53578080D01*
X102542492Y-59680028D02*
X103584288Y-59680028D01*
X64442524Y-40630044D02*
X65484320Y-40630044D01*
X221307236Y-53578080D02*
X221307236Y-54619876D01*
X64442524Y-78730012D02*
X65484320Y-78730012D01*
X302567324Y-98821792D02*
X302567324Y-97779996D01*
X64442524Y-59680028D02*
X65484320Y-59680028D01*
X297507172Y-110728032D02*
X297507172Y-111769828D01*
X58340576Y-40630044D02*
X59382372Y-40630044D01*
X265509152Y-111769828D02*
X264467356Y-111769828D01*
X245417372Y-97779996D02*
X246459168Y-97779996D01*
X59382372Y-110728032D02*
X59382372Y-111769828D01*
X102542492Y-41671840D02*
X102542492Y-40630044D01*
X302567324Y-78730012D02*
X303609120Y-78730012D01*
X45392540Y-73669860D02*
X45392540Y-72628064D01*
X296465376Y-97779996D02*
X297507172Y-97779996D01*
X121592476Y-54619876D02*
X121592476Y-53578080D01*
X148080982Y-53950150D02*
X148817643Y-53213489D01*
X302567324Y-41671840D02*
X302567324Y-40630044D01*
X284559136Y-73669860D02*
X283517340Y-73669860D01*
X84534304Y-73669860D02*
X83492508Y-73669860D01*
X207317404Y-92719844D02*
X208359200Y-92719844D01*
X316557156Y-73669860D02*
X315515360Y-73669860D01*
X316557156Y-72628064D02*
X316557156Y-73669860D01*
X135582308Y-111769828D02*
X134540512Y-111769828D01*
X278457188Y-40630044D02*
X278457188Y-41671840D01*
X78432356Y-53578080D02*
X78432356Y-54619876D01*
X297507172Y-111769828D02*
X296465376Y-111769828D01*
X78432356Y-40630044D02*
X78432356Y-41671840D01*
X315515360Y-59680028D02*
X316557156Y-59680028D01*
X45392540Y-98821792D02*
X45392540Y-97779996D01*
X316557156Y-110728032D02*
X316557156Y-111769828D01*
X246459168Y-54619876D02*
X245417372Y-54619876D01*
X59382372Y-72628064D02*
X59382372Y-73669860D01*
X116532324Y-72628064D02*
X116532324Y-73669860D01*
X121592476Y-40630044D02*
X122634272Y-40630044D01*
X240357220Y-91678048D02*
X240357220Y-92719844D01*
X161551355Y-67420522D02*
X162288016Y-66683861D01*
X77390560Y-78730012D02*
X78432356Y-78730012D01*
X121592476Y-59680028D02*
X122634272Y-59680028D01*
X45392540Y-79771808D02*
X45392540Y-78730012D01*
X102542492Y-92719844D02*
X102542492Y-91678048D01*
X96440544Y-78730012D02*
X97482340Y-78730012D01*
X245417372Y-40630044D02*
X246459168Y-40630044D01*
X297507172Y-59680028D02*
X297507172Y-60721824D01*
X83492508Y-111769828D02*
X83492508Y-110728032D01*
X284559136Y-111769828D02*
X283517340Y-111769828D01*
X264467356Y-98821792D02*
X264467356Y-97779996D01*
X278457188Y-110728032D02*
X278457188Y-111769828D01*
X78432356Y-110728032D02*
X78432356Y-111769828D01*
X116532324Y-111769828D02*
X115490528Y-111769828D01*
X207317404Y-59680028D02*
X208359200Y-59680028D01*
X302567324Y-40630044D02*
X303609120Y-40630044D01*
D11*
X198834375Y-95250000D02*
G75*
G03*
X198834375Y-95250000I-10715625J0D01*
G01*
D10*
X116532324Y-40630044D02*
X116532324Y-41671840D01*
X283517340Y-92719844D02*
X283517340Y-91678048D01*
X167128931Y-53213489D02*
X167865592Y-53950150D01*
X40332388Y-72628064D02*
X40332388Y-73669860D01*
X102542492Y-97779996D02*
X103584288Y-97779996D01*
X96440544Y-40630044D02*
X97482340Y-40630044D01*
X97482340Y-97779996D02*
X97482340Y-98821792D01*
X78432356Y-73669860D02*
X77390560Y-73669860D01*
X116532324Y-97779996D02*
X116532324Y-98821792D01*
X45392540Y-78730012D02*
X46434336Y-78730012D01*
X296465376Y-59680028D02*
X297507172Y-59680028D01*
X284559136Y-54619876D02*
X283517340Y-54619876D01*
X180599304Y-39743116D02*
X181335965Y-40479777D01*
X135582308Y-59680028D02*
X135582308Y-60721824D01*
X64442524Y-97779996D02*
X65484320Y-97779996D01*
X283517340Y-73669860D02*
X283517340Y-72628064D01*
X115490528Y-97779996D02*
X116532324Y-97779996D01*
X226367388Y-40630044D02*
X227409184Y-40630044D01*
X40332388Y-92719844D02*
X39290592Y-92719844D01*
X185650694Y-63105794D02*
X184914033Y-63842455D01*
X259407204Y-78730012D02*
X259407204Y-79771808D01*
X121592476Y-79771808D02*
X121592476Y-78730012D01*
X297507172Y-53578080D02*
X297507172Y-54619876D01*
X59382372Y-78730012D02*
X59382372Y-79771808D01*
X264467356Y-41671840D02*
X264467356Y-40630044D01*
X84534304Y-54619876D02*
X83492508Y-54619876D01*
X226367388Y-79771808D02*
X226367388Y-78730012D01*
X184914033Y-44057845D02*
X185650694Y-44794506D01*
X135582308Y-72628064D02*
X135582308Y-73669860D01*
X58340576Y-97779996D02*
X59382372Y-97779996D01*
X135582308Y-91678048D02*
X135582308Y-92719844D01*
X40332388Y-110728032D02*
X40332388Y-111769828D01*
X258365408Y-59680028D02*
X259407204Y-59680028D01*
X102542492Y-54619876D02*
X102542492Y-53578080D01*
X97482340Y-73669860D02*
X96440544Y-73669860D01*
X258365408Y-97779996D02*
X259407204Y-97779996D01*
X122634272Y-92719844D02*
X121592476Y-92719844D01*
X134540512Y-59680028D02*
X135582308Y-59680028D01*
X40332388Y-73669860D02*
X39290592Y-73669860D01*
X97482340Y-110728032D02*
X97482340Y-111769828D01*
X40332388Y-54619876D02*
X39290592Y-54619876D01*
X259407204Y-73669860D02*
X258365408Y-73669860D01*
X103584288Y-54619876D02*
X102542492Y-54619876D01*
X316557156Y-59680028D02*
X316557156Y-60721824D01*
X59382372Y-53578080D02*
X59382372Y-54619876D01*
X226367388Y-60721824D02*
X226367388Y-59680028D01*
X59382372Y-111769828D02*
X58340576Y-111769828D01*
X45392540Y-60721824D02*
X45392540Y-59680028D01*
X226367388Y-59680028D02*
X227409184Y-59680028D01*
X297507172Y-54619876D02*
X296465376Y-54619876D01*
X302567324Y-92719844D02*
X302567324Y-91678048D01*
X103584288Y-73669860D02*
X102542492Y-73669860D01*
X121592476Y-97779996D02*
X122634272Y-97779996D01*
X64442524Y-92719844D02*
X64442524Y-91678048D01*
X264467356Y-78730012D02*
X265509152Y-78730012D01*
X181335965Y-40479777D02*
X180599304Y-41216438D01*
X221307236Y-110728032D02*
X221307236Y-111769828D01*
X40332388Y-91678048D02*
X40332388Y-92719844D01*
X97482340Y-92719844D02*
X96440544Y-92719844D01*
X245417372Y-79771808D02*
X245417372Y-78730012D01*
X78432356Y-78730012D02*
X78432356Y-79771808D01*
X64442524Y-111769828D02*
X64442524Y-110728032D01*
X162288016Y-41216438D02*
X161551355Y-40479777D01*
X221307236Y-91678048D02*
X221307236Y-92719844D01*
X278457188Y-59680028D02*
X278457188Y-60721824D01*
X46434336Y-111769828D02*
X45392540Y-111769828D01*
X46434336Y-92719844D02*
X45392540Y-92719844D01*
X97482340Y-59680028D02*
X97482340Y-60721824D01*
D13*
X197643750Y-95250000D02*
G75*
G03*
X197643750Y-95250000I-9525000J0D01*
G01*
D10*
X259407204Y-53578080D02*
X259407204Y-54619876D01*
X102542492Y-111769828D02*
X102542492Y-110728032D01*
X115490528Y-59680028D02*
X116532324Y-59680028D01*
X65484320Y-54619876D02*
X64442524Y-54619876D01*
X135582308Y-78730012D02*
X135582308Y-79771808D01*
X77390560Y-40630044D02*
X78432356Y-40630044D01*
X172180321Y-31324133D02*
X171443660Y-30587472D01*
D13*
X164380376Y-95250000D02*
G75*
G03*
X164380376Y-95250000I-9599126J0D01*
G01*
D10*
X171443660Y-77312828D02*
X170706999Y-76576167D01*
X83492508Y-79771808D02*
X83492508Y-78730012D01*
X278457188Y-97779996D02*
X278457188Y-98821792D01*
D11*
X165496875Y-95250000D02*
G75*
G03*
X165496875Y-95250000I-10715625J0D01*
G01*
D10*
X226367388Y-73669860D02*
X226367388Y-72628064D01*
X283517340Y-59680028D02*
X284559136Y-59680028D01*
X208359200Y-54619876D02*
X207317404Y-54619876D01*
D12*
X201215625Y-95250000D02*
G75*
G03*
X201215625Y-95250000I-13096875J0D01*
G01*
D10*
X246459168Y-111769828D02*
X245417372Y-111769828D01*
X78432356Y-72628064D02*
X78432356Y-73669860D01*
X226367388Y-41671840D02*
X226367388Y-40630044D01*
X83492508Y-60721824D02*
X83492508Y-59680028D01*
X116532324Y-92719844D02*
X115490528Y-92719844D01*
X278457188Y-54619876D02*
X277415392Y-54619876D01*
X245417372Y-54619876D02*
X245417372Y-53578080D01*
X26342556Y-111769828D02*
X26342556Y-110728032D01*
X302567324Y-60721824D02*
X302567324Y-59680028D01*
X264467356Y-40630044D02*
X265509152Y-40630044D01*
D12*
X171450000Y-82576200D02*
X200074566Y-53951634D01*
X200074566Y-53951634D02*
X171450000Y-25327068D01*
X171450000Y-25327068D02*
X142825434Y-53951634D01*
X142825434Y-53951634D02*
X171450000Y-82576200D01*
D10*
X83492508Y-59680028D02*
X84534304Y-59680028D01*
X83492508Y-54619876D02*
X83492508Y-53578080D01*
X277415392Y-59680028D02*
X278457188Y-59680028D01*
X259407204Y-111769828D02*
X258365408Y-111769828D01*
X302567324Y-54619876D02*
X302567324Y-53578080D01*
X116532324Y-54619876D02*
X115490528Y-54619876D01*
X59382372Y-97779996D02*
X59382372Y-98821792D01*
X245417372Y-98821792D02*
X245417372Y-97779996D01*
X207317404Y-40630044D02*
X208359200Y-40630044D01*
X64442524Y-60721824D02*
X64442524Y-59680028D01*
X27384352Y-111769828D02*
X26342556Y-111769828D01*
X40332388Y-97779996D02*
X40332388Y-98821792D01*
X278457188Y-92719844D02*
X277415392Y-92719844D01*
X171443660Y-57528217D02*
X170706999Y-58264878D01*
X26342556Y-40630044D02*
X27384352Y-40630044D01*
X122634272Y-111769828D02*
X121592476Y-111769828D01*
X246459168Y-73669860D02*
X245417372Y-73669860D01*
X227409184Y-92719844D02*
X226367388Y-92719844D01*
X84534304Y-111769828D02*
X83492508Y-111769828D01*
X264467356Y-73669860D02*
X264467356Y-72628064D01*
X245417372Y-59680028D02*
X246459168Y-59680028D01*
X78432356Y-59680028D02*
X78432356Y-60721824D01*
X184177372Y-44794506D02*
X184914033Y-44057845D01*
X26342556Y-79771808D02*
X26342556Y-78730012D01*
X302567324Y-59680028D02*
X303609120Y-59680028D01*
X227409184Y-111769828D02*
X226367388Y-111769828D01*
X171443660Y-50372082D02*
X170706999Y-49635421D01*
X121592476Y-41671840D02*
X121592476Y-40630044D01*
X278457188Y-91678048D02*
X278457188Y-92719844D01*
X26342556Y-97779996D02*
X27384352Y-97779996D01*
X207317404Y-79771808D02*
X207317404Y-78730012D01*
X221307236Y-59680028D02*
X221307236Y-60721824D01*
X39290592Y-97779996D02*
X40332388Y-97779996D01*
X84534304Y-92719844D02*
X83492508Y-92719844D01*
X283517340Y-41671840D02*
X283517340Y-40630044D01*
X78432356Y-92719844D02*
X77390560Y-92719844D01*
X45392540Y-41671840D02*
X45392540Y-40630044D01*
X167865592Y-53950150D02*
X167128931Y-54686811D01*
X221307236Y-54619876D02*
X220265440Y-54619876D01*
X116532324Y-110728032D02*
X116532324Y-111769828D01*
X26342556Y-41671840D02*
X26342556Y-40630044D01*
X59382372Y-40630044D02*
X59382372Y-41671840D01*
X240357220Y-92719844D02*
X239315424Y-92719844D01*
X315515360Y-78730012D02*
X316557156Y-78730012D01*
X226367388Y-111769828D02*
X226367388Y-110728032D01*
X135582308Y-110728032D02*
X135582308Y-111769828D01*
D14*
X171450000Y-27010866D02*
X144509232Y-53951634D01*
X144509232Y-53951634D02*
X171450000Y-80892402D01*
X171450000Y-80892402D02*
X198390768Y-53951634D01*
X198390768Y-53951634D02*
X171450000Y-27010866D01*
D10*
X148817643Y-54686811D02*
X148080982Y-53950150D01*
X134540512Y-97779996D02*
X135582308Y-97779996D01*
X240357220Y-110728032D02*
X240357220Y-111769828D01*
X78432356Y-97779996D02*
X78432356Y-98821792D01*
X278457188Y-73669860D02*
X277415392Y-73669860D01*
X121592476Y-111769828D02*
X121592476Y-110728032D01*
X157973287Y-63842455D02*
X157236626Y-63105794D01*
X26342556Y-92719844D02*
X27384352Y-92719844D01*
X283517340Y-54619876D02*
X283517340Y-53578080D01*
X77390560Y-59680028D02*
X78432356Y-59680028D01*
X162288016Y-68157183D02*
X161551355Y-67420522D01*
X259407204Y-92719844D02*
X258365408Y-92719844D01*
X59382372Y-91678048D02*
X59382372Y-92719844D01*
X77390560Y-97779996D02*
X78432356Y-97779996D01*
X121592476Y-92719844D02*
X121592476Y-91678048D01*
X316557156Y-97779996D02*
X316557156Y-98821792D01*
X283517340Y-78730012D02*
X284559136Y-78730012D01*
X172180321Y-58264878D02*
X171443660Y-57528217D01*
X259407204Y-72628064D02*
X259407204Y-73669860D01*
D14*
X200084383Y-95250000D02*
G75*
G03*
X200084383Y-95250000I-11965633J0D01*
G01*
D10*
X207317404Y-73669860D02*
X208359200Y-73669860D01*
X121592476Y-60721824D02*
X121592476Y-59680028D01*
X265509152Y-54619876D02*
X264467356Y-54619876D01*
X259407204Y-40630044D02*
X259407204Y-41671840D01*
X297507172Y-73669860D02*
X296465376Y-73669860D01*
X265509152Y-73669860D02*
X264467356Y-73669860D01*
X302567324Y-79771808D02*
X302567324Y-78730012D01*
X65484320Y-111769828D02*
X64442524Y-111769828D01*
X221307236Y-72628064D02*
X221307236Y-73669860D01*
X83492508Y-97779996D02*
X84534304Y-97779996D01*
X302567324Y-111769828D02*
X302567324Y-110728032D01*
X316557156Y-54619876D02*
X315515360Y-54619876D01*
X264467356Y-59680028D02*
X265509152Y-59680028D01*
X221307236Y-111769828D02*
X220265440Y-111769828D01*
X245417372Y-78730012D02*
X246459168Y-78730012D01*
X316557156Y-111769828D02*
X315515360Y-111769828D01*
X207317404Y-78730012D02*
X208359200Y-78730012D01*
X64442524Y-98821792D02*
X64442524Y-97779996D01*
X103584288Y-92719844D02*
X102542492Y-92719844D01*
X102542492Y-73669860D02*
X102542492Y-72628064D01*
X240357220Y-54619876D02*
X239315424Y-54619876D01*
X278457188Y-53578080D02*
X278457188Y-54619876D01*
X302567324Y-97779996D02*
X303609120Y-97779996D01*
D14*
X166687500Y-95250000D02*
G75*
G03*
X166687500Y-95250000I-11906250J0D01*
G01*
D10*
X297507172Y-97779996D02*
X297507172Y-98821792D01*
X97482340Y-53578080D02*
X97482340Y-54619876D01*
X27384352Y-73669860D02*
X26342556Y-73669860D01*
X26342556Y-60721824D02*
X26342556Y-59680028D01*
X39290592Y-59680028D02*
X40332388Y-59680028D01*
X64442524Y-79771808D02*
X64442524Y-78730012D01*
X58340576Y-78730012D02*
X59382372Y-78730012D01*
X207317404Y-72628064D02*
X207317404Y-73669860D01*
X97482340Y-72628064D02*
X97482340Y-73669860D01*
X316557156Y-91678048D02*
X316557156Y-92719844D01*
X96440544Y-97779996D02*
X97482340Y-97779996D01*
X283517340Y-40630044D02*
X284559136Y-40630044D01*
X297507172Y-92719844D02*
X296465376Y-92719844D01*
X116532324Y-91678048D02*
X116532324Y-92719844D01*
X26342556Y-98821792D02*
X26342556Y-97779996D01*
X278457188Y-111769828D02*
X277415392Y-111769828D01*
X26342556Y-54619876D02*
X26342556Y-53578080D01*
X240357220Y-97779996D02*
X240357220Y-98821792D01*
X97482340Y-40630044D02*
X97482340Y-41671840D01*
X161551355Y-40479777D02*
X162288016Y-39743116D01*
X264467356Y-79771808D02*
X264467356Y-78730012D01*
X96440544Y-59680028D02*
X97482340Y-59680028D01*
X78432356Y-111769828D02*
X77390560Y-111769828D01*
X83492508Y-73669860D02*
X83492508Y-72628064D01*
X45392540Y-59680028D02*
X46434336Y-59680028D01*
X303609120Y-73669860D02*
X302567324Y-73669860D01*
X121592476Y-78730012D02*
X122634272Y-78730012D01*
X172180321Y-76576167D02*
X171443660Y-77312828D01*
X135582308Y-40630044D02*
X135582308Y-41671840D01*
X220265440Y-78730012D02*
X221307236Y-78730012D01*
X264467356Y-54619876D02*
X264467356Y-53578080D01*
X297507172Y-78730012D02*
X297507172Y-79771808D01*
X194069677Y-53213489D02*
X194806338Y-53950150D01*
X39290592Y-78730012D02*
X40332388Y-78730012D01*
X221307236Y-73669860D02*
X220265440Y-73669860D01*
X240357220Y-73669860D02*
X239315424Y-73669860D01*
X283517340Y-97779996D02*
X284559136Y-97779996D01*
X239315424Y-97779996D02*
X240357220Y-97779996D01*
X259407204Y-110728032D02*
X259407204Y-111769828D01*
X102542492Y-98821792D02*
X102542492Y-97779996D01*
X39290592Y-40630044D02*
X40332388Y-40630044D01*
X171450000Y-23643270D02*
X141141636Y-53951634D01*
X141141636Y-53951634D02*
X171450000Y-84259998D01*
X171450000Y-84259998D02*
X201758364Y-53951634D01*
X201758364Y-53951634D02*
X171450000Y-23643270D01*
X45392540Y-111769828D02*
X45392540Y-110728032D01*
X264467356Y-60721824D02*
X264467356Y-59680028D01*
X181335965Y-67420522D02*
X180599304Y-68157183D01*
X184914033Y-63842455D02*
X184177372Y-63105794D01*
X97482340Y-54619876D02*
X96440544Y-54619876D01*
X245417372Y-73669860D02*
X245417372Y-72628064D01*
X315515360Y-40630044D02*
X316557156Y-40630044D01*
X102542492Y-60721824D02*
X102542492Y-59680028D01*
X40332388Y-78730012D02*
X40332388Y-79771808D01*
X45392540Y-54619876D02*
X45392540Y-53578080D01*
X135582308Y-54619876D02*
X134540512Y-54619876D01*
X40332388Y-40630044D02*
X40332388Y-41671840D01*
X258365408Y-40630044D02*
X259407204Y-40630044D01*
X59382372Y-59680028D02*
X59382372Y-60721824D01*
X277415392Y-78730012D02*
X278457188Y-78730012D01*
X227409184Y-54619876D02*
X226367388Y-54619876D01*
X245417372Y-111769828D02*
X245417372Y-110728032D01*
X303609120Y-92719844D02*
X302567324Y-92719844D01*
X227409184Y-73669860D02*
X226367388Y-73669860D01*
X158709948Y-63105794D02*
X157973287Y-63842455D01*
X26342556Y-73669860D02*
X26342556Y-72628064D01*
X283517340Y-98821792D02*
X283517340Y-97779996D01*
X135582308Y-97779996D02*
X135582308Y-98821792D01*
X64442524Y-73669860D02*
X64442524Y-72628064D01*
X220265440Y-40630044D02*
X221307236Y-40630044D01*
X220265440Y-59680028D02*
X221307236Y-59680028D01*
X283517340Y-60721824D02*
X283517340Y-59680028D01*
X65484320Y-73669860D02*
X64442524Y-73669860D01*
X221307236Y-78730012D02*
X221307236Y-79771808D01*
X122634272Y-73669860D02*
X121592476Y-73669860D01*
X83492508Y-40630044D02*
X84534304Y-40630044D01*
X45392540Y-92719844D02*
X45392540Y-91678048D01*
X207317404Y-54619876D02*
X207317404Y-53578080D01*
X303609120Y-54619876D02*
X302567324Y-54619876D01*
X297507172Y-91678048D02*
X297507172Y-92719844D01*
X116532324Y-53578080D02*
X116532324Y-54619876D01*
X26342556Y-59680028D02*
X27384352Y-59680028D01*
X221307236Y-97779996D02*
X221307236Y-98821792D01*
X240357220Y-53578080D02*
X240357220Y-54619876D01*
X283517340Y-79771808D02*
X283517340Y-78730012D01*
X116532324Y-59680028D02*
X116532324Y-60721824D01*
X26342556Y-78730012D02*
X27384352Y-78730012D01*
X239315424Y-59680028D02*
X240357220Y-59680028D01*
X59382372Y-54619876D02*
X58340576Y-54619876D01*
X83492508Y-98821792D02*
X83492508Y-97779996D01*
X226367388Y-54619876D02*
X226367388Y-53578080D01*
X40332388Y-111769828D02*
X39290592Y-111769828D01*
X302567324Y-73669860D02*
X302567324Y-72628064D01*
X240357220Y-111769828D02*
X239315424Y-111769828D01*
X83492508Y-78730012D02*
X84534304Y-78730012D01*
X240357220Y-59680028D02*
X240357220Y-60721824D01*
X116532324Y-73669860D02*
X115490528Y-73669860D01*
X83492508Y-92719844D02*
X83492508Y-91678048D01*
X303609120Y-111769828D02*
X302567324Y-111769828D01*
X226367388Y-78730012D02*
X227409184Y-78730012D01*
X116532324Y-78730012D02*
X116532324Y-79771808D01*
X284559136Y-92719844D02*
X283517340Y-92719844D01*
X134540512Y-78730012D02*
X135582308Y-78730012D01*
X102542492Y-40630044D02*
X103584288Y-40630044D01*
X226367388Y-97779996D02*
X227409184Y-97779996D01*
X157236626Y-44794506D02*
X157973287Y-44057845D01*
X40332388Y-59680028D02*
X40332388Y-60721824D01*
X149225000Y-89693750D02*
X149225000Y-90487500D01*
X160337500Y-90487500D02*
X160337500Y-89693750D01*
X160337500Y-89693750D02*
X159543750Y-89693750D01*
X160337500Y-100012500D02*
X160337500Y-100806250D01*
X149225000Y-100806250D02*
X150018750Y-100806250D01*
X160337500Y-100806250D02*
X159543750Y-100806250D01*
X149225000Y-100012500D02*
X149225000Y-100806250D01*
X150018750Y-89693750D02*
X149225000Y-89693750D01*
X182562500Y-100012500D02*
X182562500Y-100806250D01*
X182562500Y-100806250D02*
X183356250Y-100806250D01*
X183356250Y-89693750D02*
X182562500Y-89693750D01*
X193675000Y-90487500D02*
X193675000Y-89693750D01*
X193675000Y-100806250D02*
X192881250Y-100806250D01*
X182562500Y-89693750D02*
X182562500Y-90487500D01*
X193675000Y-100012500D02*
X193675000Y-100806250D01*
X193675000Y-89693750D02*
X192881250Y-89693750D01*
X176068750Y-17750000D02*
X176068750Y-20500000D01*
X176068750Y-20500000D02*
X167068750Y-20500000D01*
X167068750Y-17750000D02*
X176068750Y-17750000D01*
X167068750Y-20500000D02*
X167068750Y-17750000D01*
G36*
X53032202Y-31124137D02*
G01*
X53105195Y-31296726D01*
X53105281Y-31303699D01*
X53047733Y-31447719D01*
X52919037Y-31596007D01*
X52785115Y-31675241D01*
X52769967Y-31676650D01*
X52659096Y-31623395D01*
X52566384Y-31544920D01*
X52445857Y-31350858D01*
X52489456Y-31183131D01*
X52641742Y-31075729D01*
X52859647Y-31041584D01*
X53032202Y-31124137D01*
G37*
G36*
X33545120Y-25996921D02*
G01*
X33629985Y-26156353D01*
X33616458Y-26307611D01*
X33500619Y-26442722D01*
X33314407Y-26476205D01*
X33124234Y-26403378D01*
X33064465Y-26346521D01*
X32999643Y-26184436D01*
X33041805Y-26074079D01*
X33200493Y-25935247D01*
X33385110Y-25916374D01*
X33545120Y-25996921D01*
G37*
G36*
X37011991Y-25791950D02*
G01*
X37091110Y-25886980D01*
X37165422Y-26048780D01*
X37145985Y-26152992D01*
X37046158Y-26263731D01*
X36847834Y-26385692D01*
X36661786Y-26340882D01*
X36607855Y-26294868D01*
X36513666Y-26105162D01*
X36549951Y-25909565D01*
X36691813Y-25765182D01*
X36856391Y-25724835D01*
X37011991Y-25791950D01*
G37*
G36*
X36352564Y-26486226D02*
G01*
X36481640Y-26628988D01*
X36491054Y-26810671D01*
X36398589Y-26974184D01*
X36222027Y-27062438D01*
X36171947Y-27066089D01*
X35995931Y-27010162D01*
X35937228Y-26965495D01*
X35842598Y-26789396D01*
X35915344Y-26616979D01*
X36017251Y-26529944D01*
X36213635Y-26449782D01*
X36352564Y-26486226D01*
G37*
G36*
X50119672Y-25740364D02*
G01*
X50226128Y-25879302D01*
X50207897Y-26049647D01*
X50177119Y-26095036D01*
X50017812Y-26206247D01*
X49919802Y-26227805D01*
X49746378Y-26167336D01*
X49662485Y-26095036D01*
X49604760Y-25924821D01*
X49680265Y-25772333D01*
X49857725Y-25687659D01*
X49919802Y-25682920D01*
X50119672Y-25740364D01*
G37*
G36*
X34194954Y-26557287D02*
G01*
X34314740Y-26746800D01*
X34292591Y-26957137D01*
X34227129Y-27049323D01*
X34046268Y-27144529D01*
X33870468Y-27073033D01*
X33828095Y-27028202D01*
X33755320Y-26847835D01*
X33792682Y-26670632D01*
X33906539Y-26539778D01*
X34063249Y-26498457D01*
X34194954Y-26557287D01*
G37*
G36*
X26766403Y-30519818D02*
G01*
X26869312Y-30704719D01*
X26842328Y-30874706D01*
X26721722Y-30992548D01*
X26543765Y-31021012D01*
X26360651Y-30936318D01*
X26235260Y-30804867D01*
X26236972Y-30676288D01*
X26271988Y-30602221D01*
X26429766Y-30448449D01*
X26628417Y-30435133D01*
X26766403Y-30519818D01*
G37*
G36*
X27507878Y-27026639D02*
G01*
X27571643Y-27212820D01*
X27511502Y-27367786D01*
X27371197Y-27461786D01*
X27194473Y-27465067D01*
X27028822Y-27352461D01*
X26963937Y-27191076D01*
X27006585Y-27080019D01*
X27170610Y-26936965D01*
X27362597Y-26923308D01*
X27507878Y-27026639D01*
G37*
G36*
X50978489Y-25703823D02*
G01*
X51043848Y-25802164D01*
X51051485Y-25934406D01*
X51025936Y-26118224D01*
X50917308Y-26195845D01*
X50820481Y-26212462D01*
X50615392Y-26190072D01*
X50540949Y-26112573D01*
X50507661Y-25876221D01*
X50610288Y-25727098D01*
X50801148Y-25682920D01*
X50978489Y-25703823D01*
G37*
G36*
X32620073Y-25619994D02*
G01*
X32685432Y-25718336D01*
X32693069Y-25850577D01*
X32667520Y-26034396D01*
X32558892Y-26112017D01*
X32462065Y-26128634D01*
X32256976Y-26106244D01*
X32182533Y-26028745D01*
X32149245Y-25792393D01*
X32251872Y-25643270D01*
X32442732Y-25599092D01*
X32620073Y-25619994D01*
G37*
G36*
X38938643Y-25684140D02*
G01*
X39018383Y-25877849D01*
X39022112Y-25935701D01*
X38956246Y-26125311D01*
X38792571Y-26214754D01*
X38581979Y-26181311D01*
X38532765Y-26154170D01*
X38452898Y-26018622D01*
X38467279Y-25827505D01*
X38564339Y-25655295D01*
X38616901Y-25612514D01*
X38789543Y-25583514D01*
X38938643Y-25684140D01*
G37*
G36*
X23532654Y-31016080D02*
G01*
X23647571Y-31150461D01*
X23676170Y-31334954D01*
X23616118Y-31494139D01*
X23548919Y-31541939D01*
X23369037Y-31588488D01*
X23244580Y-31537645D01*
X23195314Y-31492227D01*
X23101058Y-31310895D01*
X23131964Y-31134022D01*
X23254782Y-31008540D01*
X23436262Y-30981379D01*
X23532654Y-31016080D01*
G37*
G36*
X23566608Y-27548047D02*
G01*
X23631967Y-27646388D01*
X23639604Y-27778630D01*
X23608070Y-27970914D01*
X23494305Y-28049723D01*
X23464612Y-28055118D01*
X23274492Y-28020750D01*
X23185247Y-27954359D01*
X23097137Y-27758170D01*
X23157550Y-27602968D01*
X23347357Y-27528813D01*
X23389267Y-27527145D01*
X23566608Y-27548047D01*
G37*
G36*
X39935744Y-29163722D02*
G01*
X40049954Y-29320325D01*
X40045992Y-29550326D01*
X39919116Y-29696532D01*
X39703540Y-29733636D01*
X39546040Y-29693079D01*
X39459512Y-29581213D01*
X39449691Y-29398058D01*
X39514123Y-29220114D01*
X39562974Y-29165137D01*
X39747583Y-29103749D01*
X39935744Y-29163722D01*
G37*
G36*
X43237524Y-25678273D02*
G01*
X43385257Y-25781663D01*
X43458107Y-25942916D01*
X43413689Y-26123019D01*
X43244526Y-26274870D01*
X43048686Y-26268040D01*
X42930307Y-26184090D01*
X42813066Y-26034893D01*
X42823575Y-25900798D01*
X42904716Y-25773655D01*
X43061734Y-25664890D01*
X43237524Y-25678273D01*
G37*
G36*
X39291821Y-30788559D02*
G01*
X39457819Y-30918739D01*
X39474178Y-30943151D01*
X39521111Y-31124929D01*
X39474178Y-31236551D01*
X39311112Y-31380366D01*
X39119468Y-31400825D01*
X38961020Y-31294912D01*
X38941006Y-31262595D01*
X38893155Y-31047944D01*
X38965200Y-30879697D01*
X39112852Y-30784390D01*
X39291821Y-30788559D01*
G37*
G36*
X42455053Y-26184614D02*
G01*
X42586483Y-26296505D01*
X42620296Y-26474867D01*
X42568206Y-26659068D01*
X42441928Y-26788475D01*
X42333333Y-26814604D01*
X42198030Y-26760841D01*
X42140528Y-26714010D01*
X42045480Y-26527962D01*
X42077701Y-26341537D01*
X42206806Y-26205878D01*
X42402409Y-26172129D01*
X42455053Y-26184614D01*
G37*
G36*
X37895033Y-25515263D02*
G01*
X38039451Y-25632628D01*
X38096094Y-25811985D01*
X38035177Y-26001698D01*
X37999406Y-26043383D01*
X37809237Y-26138083D01*
X37617260Y-26093644D01*
X37516451Y-25982393D01*
X37468918Y-25756523D01*
X37567730Y-25578381D01*
X37692625Y-25511529D01*
X37895033Y-25515263D01*
G37*
G36*
X46766285Y-30084179D02*
G01*
X46866969Y-30233751D01*
X46876478Y-30409678D01*
X46769331Y-30560383D01*
X46599233Y-30657715D01*
X46468793Y-30630712D01*
X46358896Y-30534792D01*
X46253147Y-30339058D01*
X46308649Y-30149648D01*
X46419967Y-30051410D01*
X46606570Y-30007790D01*
X46766285Y-30084179D01*
G37*
G36*
X44090285Y-25485191D02*
G01*
X44276208Y-25589833D01*
X44372824Y-25773498D01*
X44361187Y-25923011D01*
X44243621Y-26032995D01*
X44059203Y-26053762D01*
X43881419Y-25987821D01*
X43806528Y-25904071D01*
X43780222Y-25715513D01*
X43869065Y-25554375D01*
X44032211Y-25480953D01*
X44090285Y-25485191D01*
G37*
G36*
X38250135Y-28265905D02*
G01*
X38262750Y-28277160D01*
X38405478Y-28433685D01*
X38412841Y-28557794D01*
X38303583Y-28694754D01*
X38104926Y-28816117D01*
X37921875Y-28772091D01*
X37851857Y-28704769D01*
X37777645Y-28503337D01*
X37846994Y-28302266D01*
X37948393Y-28210281D01*
X38092048Y-28172290D01*
X38250135Y-28265905D01*
G37*
G36*
X37201880Y-27941639D02*
G01*
X37349613Y-28045029D01*
X37422464Y-28206283D01*
X37378045Y-28386386D01*
X37208882Y-28538236D01*
X37013043Y-28531406D01*
X36894663Y-28447456D01*
X36777422Y-28298259D01*
X36787932Y-28164165D01*
X36869072Y-28037022D01*
X37026091Y-27928256D01*
X37201880Y-27941639D01*
G37*
G36*
X23509839Y-30124548D02*
G01*
X23641269Y-30236439D01*
X23675081Y-30414801D01*
X23622991Y-30599002D01*
X23496713Y-30728409D01*
X23388119Y-30754538D01*
X23252816Y-30700775D01*
X23195314Y-30653944D01*
X23100265Y-30467896D01*
X23132486Y-30281471D01*
X23261591Y-30145812D01*
X23457194Y-30112063D01*
X23509839Y-30124548D01*
G37*
G36*
X31616720Y-25520019D02*
G01*
X31732458Y-25660882D01*
X31745458Y-25847486D01*
X31722845Y-25904071D01*
X31586314Y-26022732D01*
X31397393Y-26056247D01*
X31229569Y-26002108D01*
X31168186Y-25923011D01*
X31169788Y-25724583D01*
X31292304Y-25554097D01*
X31439088Y-25485191D01*
X31616720Y-25520019D01*
G37*
G36*
X36386122Y-30544966D02*
G01*
X36530540Y-30662331D01*
X36587183Y-30841688D01*
X36526266Y-31031401D01*
X36490495Y-31073085D01*
X36300326Y-31167786D01*
X36108349Y-31123347D01*
X36007540Y-31012095D01*
X35960007Y-30786226D01*
X36058819Y-30608084D01*
X36183714Y-30541232D01*
X36386122Y-30544966D01*
G37*
G36*
X49200028Y-31026164D02*
G01*
X49314448Y-31149574D01*
X49332330Y-31322136D01*
X49232409Y-31492227D01*
X49040271Y-31587680D01*
X48846955Y-31535668D01*
X48737995Y-31409824D01*
X48687603Y-31258668D01*
X48755489Y-31137891D01*
X48826658Y-31075728D01*
X49025341Y-30989137D01*
X49200028Y-31026164D01*
G37*
G36*
X26298990Y-29088027D02*
G01*
X26413907Y-29222408D01*
X26442506Y-29406901D01*
X26382455Y-29566086D01*
X26315256Y-29613886D01*
X26135373Y-29660435D01*
X26010917Y-29609592D01*
X25961650Y-29564175D01*
X25867395Y-29382842D01*
X25898301Y-29205970D01*
X26021119Y-29080488D01*
X26202599Y-29053326D01*
X26298990Y-29088027D01*
G37*
G36*
X28992163Y-28769816D02*
G01*
X29137148Y-28885365D01*
X29189601Y-29071436D01*
X29173554Y-29157776D01*
X29059081Y-29295502D01*
X28880490Y-29327060D01*
X28703290Y-29252608D01*
X28624525Y-29156440D01*
X28575882Y-28977888D01*
X28631840Y-28863041D01*
X28806456Y-28752978D01*
X28992163Y-28769816D01*
G37*
G36*
X52693361Y-28643783D02*
G01*
X52759910Y-28723864D01*
X52795775Y-28920679D01*
X52712090Y-29073896D01*
X52556468Y-29152763D01*
X52376522Y-29126526D01*
X52270335Y-29040079D01*
X52210886Y-28866386D01*
X52223806Y-28746679D01*
X52338606Y-28612323D01*
X52519060Y-28577006D01*
X52693361Y-28643783D01*
G37*
G36*
X41656581Y-27829828D02*
G01*
X41718744Y-27900998D01*
X41805334Y-28099681D01*
X41768308Y-28274368D01*
X41644898Y-28388788D01*
X41472335Y-28406669D01*
X41302244Y-28306749D01*
X41206792Y-28114610D01*
X41258804Y-27921294D01*
X41384647Y-27812334D01*
X41535804Y-27761942D01*
X41656581Y-27829828D01*
G37*
G36*
X27316990Y-31088194D02*
G01*
X27417462Y-31232462D01*
X27434318Y-31413937D01*
X27366625Y-31554934D01*
X27254584Y-31657682D01*
X27134292Y-31649201D01*
X27013696Y-31586107D01*
X26886566Y-31431759D01*
X26891132Y-31235601D01*
X26999766Y-31084020D01*
X27166544Y-31024319D01*
X27316990Y-31088194D01*
G37*
G36*
X52962501Y-27794620D02*
G01*
X53108589Y-27923590D01*
X53187579Y-28056510D01*
X53189109Y-28072029D01*
X53125828Y-28199989D01*
X52984882Y-28333665D01*
X52839619Y-28405943D01*
X52822659Y-28407343D01*
X52676970Y-28353024D01*
X52619076Y-28306749D01*
X52530902Y-28124959D01*
X52558433Y-27928306D01*
X52679303Y-27779413D01*
X52822659Y-27736716D01*
X52962501Y-27794620D01*
G37*
G36*
X33444334Y-30639170D02*
G01*
X33590324Y-30765573D01*
X33626589Y-30947898D01*
X33564936Y-31126573D01*
X33417172Y-31242027D01*
X33321782Y-31257508D01*
X33144604Y-31197049D01*
X33073636Y-31135788D01*
X33005649Y-30950173D01*
X33062521Y-30770358D01*
X33207266Y-30645896D01*
X33402893Y-30626339D01*
X33444334Y-30639170D01*
G37*
G36*
X42038043Y-29724348D02*
G01*
X42116417Y-29882843D01*
X42085303Y-30067920D01*
X42023168Y-30150973D01*
X41854071Y-30238746D01*
X41668059Y-30237861D01*
X41592849Y-30195682D01*
X41535585Y-30038551D01*
X41564937Y-29839294D01*
X41664776Y-29688271D01*
X41685828Y-29674826D01*
X41883430Y-29639365D01*
X42038043Y-29724348D01*
G37*
G36*
X51735927Y-29928889D02*
G01*
X51820555Y-30090661D01*
X51807217Y-30247545D01*
X51691244Y-30381512D01*
X51504800Y-30417485D01*
X51317998Y-30348825D01*
X51265503Y-30298840D01*
X51208676Y-30149124D01*
X51258188Y-30005441D01*
X51403620Y-29863734D01*
X51579907Y-29845732D01*
X51735927Y-29928889D01*
G37*
G36*
X43372130Y-30947170D02*
G01*
X43461545Y-31129262D01*
X43465017Y-31180994D01*
X43401097Y-31361868D01*
X43243023Y-31441939D01*
X43041325Y-31405117D01*
X42948873Y-31345371D01*
X42818461Y-31208333D01*
X42816594Y-31086931D01*
X42845289Y-31032232D01*
X43008823Y-30885410D01*
X43202830Y-30861471D01*
X43372130Y-30947170D01*
G37*
G36*
X47149443Y-29202436D02*
G01*
X47280873Y-29314327D01*
X47314685Y-29492689D01*
X47262595Y-29676890D01*
X47136317Y-29806297D01*
X47027723Y-29832425D01*
X46892420Y-29778663D01*
X46834918Y-29731831D01*
X46739869Y-29545784D01*
X46772090Y-29359359D01*
X46901195Y-29223700D01*
X47096798Y-29189951D01*
X47149443Y-29202436D01*
G37*
G36*
X38387274Y-31099135D02*
G01*
X38449437Y-31170305D01*
X38549173Y-31348931D01*
X38517616Y-31511780D01*
X38514976Y-31516777D01*
X38377404Y-31633305D01*
X38179254Y-31679201D01*
X38007804Y-31637235D01*
X37988229Y-31620764D01*
X37927619Y-31458108D01*
X37967072Y-31257434D01*
X38087696Y-31098873D01*
X38115340Y-31081641D01*
X38266497Y-31031249D01*
X38387274Y-31099135D01*
G37*
G36*
X27056640Y-26209405D02*
G01*
X27118375Y-26427659D01*
X27118482Y-26438672D01*
X27053273Y-26627568D01*
X26897262Y-26718619D01*
X26709869Y-26688419D01*
X26632277Y-26630181D01*
X26537001Y-26437484D01*
X26587385Y-26243784D01*
X26704698Y-26141109D01*
X26906431Y-26105032D01*
X27056640Y-26209405D01*
G37*
G36*
X30635251Y-25681644D02*
G01*
X30769158Y-25798222D01*
X30805794Y-25986996D01*
X30735672Y-26177325D01*
X30706337Y-26211039D01*
X30526103Y-26306516D01*
X30345692Y-26234358D01*
X30320726Y-26211039D01*
X30225678Y-26024992D01*
X30257899Y-25838567D01*
X30387004Y-25702908D01*
X30582607Y-25669158D01*
X30635251Y-25681644D01*
G37*
G36*
X46897455Y-26625312D02*
G01*
X46984604Y-26780249D01*
X46985809Y-26800787D01*
X46920353Y-27005745D01*
X46761779Y-27124528D01*
X46566777Y-27135041D01*
X46402349Y-27028197D01*
X46342816Y-26844150D01*
X46398449Y-26648244D01*
X46534016Y-26529249D01*
X46723332Y-26527265D01*
X46897455Y-26625312D01*
G37*
G36*
X25433380Y-29280082D02*
G01*
X25448888Y-29293852D01*
X25584909Y-29447434D01*
X25582082Y-29573835D01*
X25477841Y-29700695D01*
X25279518Y-29822655D01*
X25093469Y-29777846D01*
X25039538Y-29731831D01*
X24944232Y-29539222D01*
X24994893Y-29345582D01*
X25113574Y-29241895D01*
X25279182Y-29195568D01*
X25433380Y-29280082D01*
G37*
G36*
X23509839Y-26603756D02*
G01*
X23643746Y-26720334D01*
X23680381Y-26909108D01*
X23610259Y-27099438D01*
X23580924Y-27133151D01*
X23470360Y-27218571D01*
X23356270Y-27204599D01*
X23241419Y-27143203D01*
X23113741Y-26997151D01*
X23108860Y-26822664D01*
X23201654Y-26670227D01*
X23367001Y-26590330D01*
X23509839Y-26603756D01*
G37*
G36*
X44115876Y-31022793D02*
G01*
X44291795Y-31126598D01*
X44373838Y-31308161D01*
X44335801Y-31488036D01*
X44166638Y-31639886D01*
X43970799Y-31633057D01*
X43852419Y-31549107D01*
X43744668Y-31413171D01*
X43716502Y-31341336D01*
X43783729Y-31203851D01*
X43934573Y-31076692D01*
X44092779Y-31020680D01*
X44115876Y-31022793D01*
G37*
G36*
X36543182Y-27406010D02*
G01*
X36644526Y-27563113D01*
X36649077Y-27752603D01*
X36587747Y-27866485D01*
X36403179Y-27977182D01*
X36196463Y-27949962D01*
X36091461Y-27866485D01*
X36017129Y-27665148D01*
X36087608Y-27463964D01*
X36192904Y-27368902D01*
X36380743Y-27326278D01*
X36543182Y-27406010D01*
G37*
G36*
X49232409Y-26663713D02*
G01*
X49327141Y-26854016D01*
X49282400Y-27046081D01*
X49170858Y-27146968D01*
X49007956Y-27220921D01*
X48907704Y-27193572D01*
X48796859Y-27053128D01*
X48726562Y-26850222D01*
X48778950Y-26678993D01*
X48914221Y-26575028D01*
X49092574Y-26573913D01*
X49232409Y-26663713D01*
G37*
G36*
X24478401Y-29268927D02*
G01*
X24591484Y-29412073D01*
X24603630Y-29483296D01*
X24538366Y-29700067D01*
X24367603Y-29806521D01*
X24128890Y-29779786D01*
X24121617Y-29776907D01*
X24035240Y-29665105D01*
X24025111Y-29482008D01*
X24088955Y-29304456D01*
X24137216Y-29250074D01*
X24303499Y-29203187D01*
X24478401Y-29268927D01*
G37*
G36*
X47193855Y-27363452D02*
G01*
X47325855Y-27498138D01*
X47339993Y-27686984D01*
X47314925Y-27748296D01*
X47182196Y-27863385D01*
X46995763Y-27901611D01*
X46829306Y-27858243D01*
X46766517Y-27783527D01*
X46741804Y-27551827D01*
X46845060Y-27385017D01*
X46981968Y-27330570D01*
X47193855Y-27363452D01*
G37*
G36*
X37279940Y-30956216D02*
G01*
X37445938Y-31086395D01*
X37462297Y-31110808D01*
X37509229Y-31292586D01*
X37462297Y-31404208D01*
X37299231Y-31548022D01*
X37107587Y-31568482D01*
X36949139Y-31462568D01*
X36929125Y-31430252D01*
X36881274Y-31215600D01*
X36953319Y-31047354D01*
X37100971Y-30952047D01*
X37279940Y-30956216D01*
G37*
G36*
X51807275Y-25683830D02*
G01*
X51954841Y-25800016D01*
X52012705Y-25979056D01*
X51950484Y-26169809D01*
X51914918Y-26211039D01*
X51753026Y-26299486D01*
X51538451Y-26258100D01*
X51533498Y-26256115D01*
X51440328Y-26142272D01*
X51427530Y-25959412D01*
X51486589Y-25780672D01*
X51600392Y-25681644D01*
X51807275Y-25683830D01*
G37*
G36*
X29036321Y-27815078D02*
G01*
X29186650Y-27972358D01*
X29197195Y-28171692D01*
X29113597Y-28306749D01*
X28921167Y-28402113D01*
X28727650Y-28350914D01*
X28621927Y-28229473D01*
X28591891Y-28032591D01*
X28683342Y-27868538D01*
X28850603Y-27782993D01*
X29036321Y-27815078D01*
G37*
G36*
X34072215Y-30040720D02*
G01*
X34203645Y-30152611D01*
X34237458Y-30330973D01*
X34185367Y-30515174D01*
X34059089Y-30644581D01*
X33950495Y-30670709D01*
X33815192Y-30616946D01*
X33757690Y-30570115D01*
X33662642Y-30384068D01*
X33694863Y-30197643D01*
X33823967Y-30061984D01*
X34019571Y-30028234D01*
X34072215Y-30040720D01*
G37*
G36*
X27448645Y-27881902D02*
G01*
X27536343Y-28036900D01*
X27537624Y-28058213D01*
X27472359Y-28274985D01*
X27301596Y-28381439D01*
X27062884Y-28354703D01*
X27055611Y-28351825D01*
X26971857Y-28241135D01*
X26953718Y-28056801D01*
X26997409Y-27877794D01*
X27082640Y-27787899D01*
X27273682Y-27784805D01*
X27448645Y-27881902D01*
G37*
G36*
X29353869Y-29685737D02*
G01*
X29400477Y-29729968D01*
X29511296Y-29879719D01*
X29495561Y-30023931D01*
X29471143Y-30073697D01*
X29313863Y-30224025D01*
X29114529Y-30234571D01*
X28979472Y-30150973D01*
X28884108Y-29958543D01*
X28935307Y-29765025D01*
X29056748Y-29659303D01*
X29213795Y-29611556D01*
X29353869Y-29685737D01*
G37*
G36*
X26029564Y-29874610D02*
G01*
X26167255Y-29984908D01*
X26194669Y-30150193D01*
X26122053Y-30308908D01*
X25959655Y-30399496D01*
X25941747Y-30402116D01*
X25758635Y-30399879D01*
X25669305Y-30367187D01*
X25597726Y-30202684D01*
X25648265Y-30031028D01*
X25785072Y-29901236D01*
X25972297Y-29862325D01*
X26029564Y-29874610D01*
G37*
G36*
X52304561Y-30448063D02*
G01*
X52423556Y-30571432D01*
X52450108Y-30753517D01*
X52383999Y-30909234D01*
X52259011Y-31055057D01*
X52138349Y-31070090D01*
X51994554Y-30999308D01*
X51867290Y-30843456D01*
X51869712Y-30643993D01*
X51948449Y-30519818D01*
X52132925Y-30418996D01*
X52304561Y-30448063D01*
G37*
G36*
X49061751Y-25657776D02*
G01*
X49237670Y-25761582D01*
X49319713Y-25943144D01*
X49281675Y-26123019D01*
X49112513Y-26274870D01*
X48916673Y-26268040D01*
X48798294Y-26184090D01*
X48690543Y-26048154D01*
X48662376Y-25976320D01*
X48729603Y-25838835D01*
X48880447Y-25711676D01*
X49038654Y-25655664D01*
X49061751Y-25657776D01*
G37*
G36*
X46155175Y-30745556D02*
G01*
X46230871Y-30939373D01*
X46231353Y-30958089D01*
X46166597Y-31153720D01*
X45995333Y-31241204D01*
X45752065Y-31203083D01*
X45749340Y-31201990D01*
X45660942Y-31090259D01*
X45653609Y-30911746D01*
X45721485Y-30743036D01*
X45789089Y-30681983D01*
X45989261Y-30648114D01*
X46155175Y-30745556D01*
G37*
G36*
X51946018Y-29082832D02*
G01*
X52061160Y-29257394D01*
X52061010Y-29460737D01*
X51950639Y-29600588D01*
X51782164Y-29655359D01*
X51607698Y-29603465D01*
X51507075Y-29486899D01*
X51459112Y-29327793D01*
X51535866Y-29186740D01*
X51572591Y-29148320D01*
X51767409Y-29039413D01*
X51946018Y-29082832D01*
G37*
G36*
X42568886Y-30434281D02*
G01*
X42626733Y-30623215D01*
X42564788Y-30830010D01*
X42413228Y-30940741D01*
X42223463Y-30925225D01*
X42168141Y-30892448D01*
X42060272Y-30727892D01*
X42086679Y-30535783D01*
X42217154Y-30393911D01*
X42415559Y-30344468D01*
X42568886Y-30434281D01*
G37*
G36*
X30780852Y-30968544D02*
G01*
X30806931Y-31133763D01*
X30741598Y-31335977D01*
X30582005Y-31444017D01*
X30382755Y-31423296D01*
X30364667Y-31413891D01*
X30236546Y-31266244D01*
X30225159Y-31080221D01*
X30322910Y-30923859D01*
X30424939Y-30873985D01*
X30658141Y-30859737D01*
X30780852Y-30968544D01*
G37*
G36*
X29380416Y-26953604D02*
G01*
X29508586Y-27089117D01*
X29515913Y-27259970D01*
X29494168Y-27303644D01*
X29331161Y-27439277D01*
X29129173Y-27460274D01*
X28969402Y-27367556D01*
X28900695Y-27183036D01*
X28955345Y-27007758D01*
X29106440Y-26905401D01*
X29167662Y-26898432D01*
X29380416Y-26953604D01*
G37*
G36*
X49227625Y-27551840D02*
G01*
X49292366Y-27656910D01*
X49291742Y-27855425D01*
X49185536Y-28000806D01*
X49023689Y-28068250D01*
X48856143Y-28032955D01*
X48756262Y-27923165D01*
X48724521Y-27720330D01*
X48825751Y-27556745D01*
X49025829Y-27485424D01*
X49038120Y-27485231D01*
X49227625Y-27551840D01*
G37*
G36*
X40007096Y-30051410D02*
G01*
X40157764Y-30224504D01*
X40170787Y-30432901D01*
X40108539Y-30548994D01*
X39923971Y-30659690D01*
X39717255Y-30632470D01*
X39612253Y-30548994D01*
X39538974Y-30362001D01*
X39584590Y-30179540D01*
X39713406Y-30046595D01*
X39889725Y-30008151D01*
X40007096Y-30051410D01*
G37*
G36*
X26221246Y-25698911D02*
G01*
X26367335Y-25827880D01*
X26446325Y-25960801D01*
X26447855Y-25976320D01*
X26384574Y-26104279D01*
X26243628Y-26237955D01*
X26098365Y-26310233D01*
X26081405Y-26311633D01*
X25935716Y-26257315D01*
X25877822Y-26211039D01*
X25789648Y-26029250D01*
X25817179Y-25832596D01*
X25938049Y-25683704D01*
X26081405Y-25641006D01*
X26221246Y-25698911D01*
G37*
G36*
X34558251Y-29213126D02*
G01*
X34706669Y-29379486D01*
X34721915Y-29572097D01*
X34614216Y-29722099D01*
X34473111Y-29810157D01*
X34411551Y-29832425D01*
X34309968Y-29788369D01*
X34208887Y-29722099D01*
X34100121Y-29565080D01*
X34113504Y-29389291D01*
X34216894Y-29241558D01*
X34378148Y-29168707D01*
X34558251Y-29213126D01*
G37*
G36*
X49208764Y-30150498D02*
G01*
X49307129Y-30308731D01*
X49308766Y-30496318D01*
X49198522Y-30650964D01*
X49170858Y-30667760D01*
X49009058Y-30742072D01*
X48904846Y-30722634D01*
X48794107Y-30622807D01*
X48688477Y-30488130D01*
X48662376Y-30419224D01*
X48725657Y-30291265D01*
X48866603Y-30157588D01*
X49011866Y-30085311D01*
X49028826Y-30083911D01*
X49208764Y-30150498D01*
G37*
G36*
X41700436Y-28807698D02*
G01*
X41807834Y-28967640D01*
X41783974Y-29169704D01*
X41778391Y-29180591D01*
X41633423Y-29311132D01*
X41448143Y-29325539D01*
X41290419Y-29230829D01*
X41237270Y-29124649D01*
X41223062Y-28891326D01*
X41331890Y-28768570D01*
X41495831Y-28742656D01*
X41700436Y-28807698D01*
G37*
G36*
X45281093Y-25661608D02*
G01*
X45365959Y-25821039D01*
X45352432Y-25972297D01*
X45236593Y-26107408D01*
X45050381Y-26140891D01*
X44860207Y-26068064D01*
X44800439Y-26011207D01*
X44735616Y-25849122D01*
X44777779Y-25738765D01*
X44936467Y-25599933D01*
X45121084Y-25581060D01*
X45281093Y-25661608D01*
G37*
G36*
X39815472Y-26132639D02*
G01*
X39932363Y-26272242D01*
X39944224Y-26338379D01*
X39889043Y-26556671D01*
X39753070Y-26702614D01*
X39650825Y-26730775D01*
X39515522Y-26677012D01*
X39458020Y-26630181D01*
X39376206Y-26467589D01*
X39364210Y-26268355D01*
X39423941Y-26117041D01*
X39446019Y-26099118D01*
X39629992Y-26063710D01*
X39815472Y-26132639D01*
G37*
G36*
X39191529Y-28558287D02*
G01*
X39270648Y-28653317D01*
X39344960Y-28815117D01*
X39325523Y-28919328D01*
X39225695Y-29030068D01*
X39027372Y-29152028D01*
X38841323Y-29107219D01*
X38787393Y-29061204D01*
X38693204Y-28871499D01*
X38729489Y-28675902D01*
X38871351Y-28531518D01*
X39035929Y-28491171D01*
X39191529Y-28558287D01*
G37*
G36*
X25390299Y-25740364D02*
G01*
X25496756Y-25879302D01*
X25478525Y-26049647D01*
X25447746Y-26095036D01*
X25288440Y-26206247D01*
X25190429Y-26227805D01*
X25017005Y-26167336D01*
X24933112Y-26095036D01*
X24875387Y-25924821D01*
X24950892Y-25772333D01*
X25128352Y-25687659D01*
X25190429Y-25682920D01*
X25390299Y-25740364D01*
G37*
G36*
X26905467Y-28586841D02*
G01*
X27093513Y-28683810D01*
X27178026Y-28846887D01*
X27131346Y-29020181D01*
X27124314Y-29029029D01*
X26943356Y-29147062D01*
X26751258Y-29130790D01*
X26621709Y-29005722D01*
X26595403Y-28817163D01*
X26684246Y-28656026D01*
X26847393Y-28582604D01*
X26905467Y-28586841D01*
G37*
G36*
X53074199Y-26961248D02*
G01*
X53139558Y-27059590D01*
X53147195Y-27191831D01*
X53121646Y-27375650D01*
X53013017Y-27453271D01*
X52916190Y-27469888D01*
X52711101Y-27447498D01*
X52636658Y-27369999D01*
X52603371Y-27133647D01*
X52705997Y-26984524D01*
X52896858Y-26940346D01*
X53074199Y-26961248D01*
G37*
G36*
X32620073Y-31068839D02*
G01*
X32685432Y-31167180D01*
X32693069Y-31299422D01*
X32667520Y-31483241D01*
X32558892Y-31560862D01*
X32462065Y-31577478D01*
X32256976Y-31555089D01*
X32182533Y-31477590D01*
X32149245Y-31241238D01*
X32251872Y-31092114D01*
X32442732Y-31047937D01*
X32620073Y-31068839D01*
G37*
G36*
X45257626Y-31105380D02*
G01*
X45364082Y-31244319D01*
X45345851Y-31414664D01*
X45315073Y-31460052D01*
X45155766Y-31571264D01*
X45057756Y-31592821D01*
X44884332Y-31532352D01*
X44800439Y-31460052D01*
X44742714Y-31289838D01*
X44818219Y-31137349D01*
X44995679Y-31052675D01*
X45057756Y-31047937D01*
X45257626Y-31105380D01*
G37*
G36*
X51086054Y-29300801D02*
G01*
X51167722Y-29457501D01*
X51142094Y-29641883D01*
X51076634Y-29731831D01*
X50914742Y-29820278D01*
X50700167Y-29778892D01*
X50695215Y-29776907D01*
X50606817Y-29665177D01*
X50599483Y-29486664D01*
X50667359Y-29317953D01*
X50734964Y-29256900D01*
X50930623Y-29218396D01*
X51086054Y-29300801D01*
G37*
G36*
X50047366Y-29220297D02*
G01*
X50168964Y-29347421D01*
X50249037Y-29470616D01*
X50255116Y-29497112D01*
X50191834Y-29625071D01*
X50050889Y-29758747D01*
X49905626Y-29831025D01*
X49888666Y-29832425D01*
X49742977Y-29778107D01*
X49685083Y-29731831D01*
X49590351Y-29541528D01*
X49635092Y-29349462D01*
X49746634Y-29248576D01*
X49893244Y-29179056D01*
X49950217Y-29161798D01*
X50047366Y-29220297D01*
G37*
G36*
X23619676Y-29311055D02*
G01*
X23681412Y-29529309D01*
X23681518Y-29540322D01*
X23616309Y-29729218D01*
X23460298Y-29820270D01*
X23272905Y-29790070D01*
X23195314Y-29731831D01*
X23100038Y-29539134D01*
X23150422Y-29345435D01*
X23267735Y-29242759D01*
X23469467Y-29206682D01*
X23619676Y-29311055D01*
G37*
G36*
X49139650Y-28358787D02*
G01*
X49245836Y-28445234D01*
X49305286Y-28618927D01*
X49292366Y-28738634D01*
X49177566Y-28872989D01*
X48997112Y-28908307D01*
X48822811Y-28841530D01*
X48756262Y-28761449D01*
X48720397Y-28564634D01*
X48804082Y-28411417D01*
X48959704Y-28332550D01*
X49139650Y-28358787D01*
G37*
G36*
X49200028Y-29265768D02*
G01*
X49314448Y-29389178D01*
X49332330Y-29561740D01*
X49232409Y-29731831D01*
X49040271Y-29827284D01*
X48846955Y-29775272D01*
X48737995Y-29649428D01*
X48687603Y-29498272D01*
X48755489Y-29377495D01*
X48826658Y-29315331D01*
X49025341Y-29228741D01*
X49200028Y-29265768D01*
G37*
G36*
X29951881Y-26244571D02*
G01*
X30046613Y-26434874D01*
X30001872Y-26626940D01*
X29890330Y-26727826D01*
X29728530Y-26802138D01*
X29624318Y-26782700D01*
X29513579Y-26682873D01*
X29405039Y-26557809D01*
X29399280Y-26450850D01*
X29468626Y-26306122D01*
X29621729Y-26167651D01*
X29820135Y-26162658D01*
X29951881Y-26244571D01*
G37*
G36*
X34634889Y-27422004D02*
G01*
X34719754Y-27581435D01*
X34706227Y-27732693D01*
X34590388Y-27867804D01*
X34404176Y-27901287D01*
X34214003Y-27828460D01*
X34154234Y-27771603D01*
X34089412Y-27609518D01*
X34131574Y-27499161D01*
X34290262Y-27360329D01*
X34474879Y-27341456D01*
X34634889Y-27422004D01*
G37*
G36*
X23412000Y-28339186D02*
G01*
X23575882Y-28386503D01*
X23634801Y-28513191D01*
X23639604Y-28616914D01*
X23613607Y-28801314D01*
X23505231Y-28878910D01*
X23416992Y-28894160D01*
X23231562Y-28882018D01*
X23136658Y-28826525D01*
X23111367Y-28679846D01*
X23131666Y-28523035D01*
X23205804Y-28369585D01*
X23356064Y-28334373D01*
X23412000Y-28339186D01*
G37*
G36*
X47283972Y-28275306D02*
G01*
X47448833Y-28371734D01*
X47488779Y-28531733D01*
X47424006Y-28735742D01*
X47265355Y-28845077D01*
X47066325Y-28825446D01*
X47046515Y-28815211D01*
X46939699Y-28681131D01*
X46903604Y-28489435D01*
X46946771Y-28322019D01*
X46990573Y-28278656D01*
X47133842Y-28255206D01*
X47283972Y-28275306D01*
G37*
G36*
X52512903Y-26100750D02*
G01*
X52586970Y-26135767D01*
X52740742Y-26293545D01*
X52754058Y-26492196D01*
X52669373Y-26630181D01*
X52479620Y-26724784D01*
X52287916Y-26681271D01*
X52187334Y-26570903D01*
X52152297Y-26407498D01*
X52248186Y-26230255D01*
X52252873Y-26224430D01*
X52384324Y-26099039D01*
X52512903Y-26100750D01*
G37*
G36*
X23548749Y-25719003D02*
G01*
X23668536Y-25908516D01*
X23646387Y-26118853D01*
X23580924Y-26211039D01*
X23400063Y-26306245D01*
X23224264Y-26234749D01*
X23181890Y-26189918D01*
X23109115Y-26009551D01*
X23146477Y-25832349D01*
X23260334Y-25701495D01*
X23417044Y-25660174D01*
X23548749Y-25719003D01*
G37*
G36*
X31586263Y-31063927D02*
G01*
X31732352Y-31192897D01*
X31811341Y-31325817D01*
X31812871Y-31341336D01*
X31749590Y-31469296D01*
X31608645Y-31602972D01*
X31463382Y-31675250D01*
X31446422Y-31676650D01*
X31300732Y-31622331D01*
X31242838Y-31576056D01*
X31154664Y-31394266D01*
X31182195Y-31197613D01*
X31303065Y-31048720D01*
X31446422Y-31006023D01*
X31586263Y-31063927D01*
G37*
G36*
X42008852Y-26961248D02*
G01*
X42074211Y-27059590D01*
X42081848Y-27191831D01*
X42056299Y-27375650D01*
X41947671Y-27453271D01*
X41850844Y-27469888D01*
X41645755Y-27447498D01*
X41571312Y-27369999D01*
X41538024Y-27133647D01*
X41640651Y-26984524D01*
X41831511Y-26940346D01*
X42008852Y-26961248D01*
G37*
G36*
X46104086Y-25938370D02*
G01*
X46236086Y-26073056D01*
X46250224Y-26261902D01*
X46225156Y-26323213D01*
X46092427Y-26438302D01*
X45905994Y-26476529D01*
X45739537Y-26433160D01*
X45676748Y-26358444D01*
X45652035Y-26126744D01*
X45755291Y-25959934D01*
X45892199Y-25905487D01*
X46104086Y-25938370D01*
G37*
G36*
X34715304Y-28277319D02*
G01*
X34852660Y-28402678D01*
X34889020Y-28593019D01*
X34876757Y-28645754D01*
X34752720Y-28805993D01*
X34561705Y-28856277D01*
X34376095Y-28778764D01*
X34368162Y-28771121D01*
X34252202Y-28575083D01*
X34303201Y-28387811D01*
X34344488Y-28340280D01*
X34528674Y-28246626D01*
X34715304Y-28277319D01*
G37*
G36*
X29940703Y-30438674D02*
G01*
X30035705Y-30606648D01*
X29998706Y-30758182D01*
X29879748Y-30915907D01*
X29739654Y-31003569D01*
X29717162Y-31006023D01*
X29606884Y-30952707D01*
X29509391Y-30870105D01*
X29403642Y-30674372D01*
X29459145Y-30484962D01*
X29570462Y-30386724D01*
X29761749Y-30350297D01*
X29940703Y-30438674D01*
G37*
G36*
X24488720Y-25703823D02*
G01*
X24554079Y-25802164D01*
X24561716Y-25934406D01*
X24536167Y-26118224D01*
X24427539Y-26195845D01*
X24330712Y-26212462D01*
X24125623Y-26190072D01*
X24051180Y-26112573D01*
X24017892Y-25876221D01*
X24120519Y-25727098D01*
X24311379Y-25682920D01*
X24488720Y-25703823D01*
G37*
D15*
X252412500Y-47625000D03*
D16*
X257492500Y-47625000D03*
X247332500Y-47625000D03*
D15*
X184920385Y-53951635D03*
D16*
X188512487Y-50359533D03*
X181328283Y-57543737D03*
X57467500Y-47625000D03*
D15*
X52387500Y-47625000D03*
D16*
X47307500Y-47625000D03*
X295592500Y-47625000D03*
D15*
X290512500Y-47625000D03*
D16*
X285432500Y-47625000D03*
X57745458Y-25325072D03*
X57745458Y-31825072D03*
X209232500Y-85725000D03*
D15*
X214312500Y-85725000D03*
D16*
X219392500Y-85725000D03*
X114617500Y-85725000D03*
D15*
X109537500Y-85725000D03*
D16*
X104457500Y-85725000D03*
X28257500Y-85725000D03*
X38417500Y-85725000D03*
D15*
X33337500Y-85725000D03*
D16*
X266382500Y-85725000D03*
D15*
X271462500Y-85725000D03*
D16*
X276542500Y-85725000D03*
D15*
X252412500Y-85725000D03*
D16*
X247332500Y-85725000D03*
X257492500Y-85725000D03*
X76517500Y-66675000D03*
D15*
X71437500Y-66675000D03*
D16*
X66357500Y-66675000D03*
D15*
X252412500Y-104775000D03*
D16*
X247332500Y-104775000D03*
X257492500Y-104775000D03*
X133667500Y-66675000D03*
D15*
X128587500Y-66675000D03*
D16*
X123507500Y-66675000D03*
X95567500Y-104775000D03*
X85407500Y-104775000D03*
D15*
X90487500Y-104775000D03*
D16*
X285432500Y-85725000D03*
D15*
X290512500Y-85725000D03*
D16*
X295592500Y-85725000D03*
X66357500Y-47625000D03*
X76517500Y-47625000D03*
D15*
X71437500Y-47625000D03*
D16*
X238442500Y-47625000D03*
X228282500Y-47625000D03*
D15*
X233362500Y-47625000D03*
D16*
X304482500Y-85725000D03*
D15*
X309562500Y-85725000D03*
D16*
X314642500Y-85725000D03*
D15*
X309562500Y-104775000D03*
D16*
X304482500Y-104775000D03*
X314642500Y-104775000D03*
X238442500Y-66675000D03*
X228282500Y-66675000D03*
D15*
X233362500Y-66675000D03*
X233362500Y-104775000D03*
D16*
X238442500Y-104775000D03*
X228282500Y-104775000D03*
X38417500Y-47625000D03*
X28257500Y-47625000D03*
D15*
X33337500Y-47625000D03*
D16*
X47307500Y-85725000D03*
D15*
X52387500Y-85725000D03*
D16*
X57467500Y-85725000D03*
D15*
X271462500Y-47625000D03*
D16*
X276542500Y-47625000D03*
X266382500Y-47625000D03*
X304482500Y-66675000D03*
X314642500Y-66675000D03*
D15*
X309562500Y-66675000D03*
D16*
X175042102Y-36889148D03*
X167857898Y-44073352D03*
D15*
X171450000Y-40481250D03*
X128587500Y-47625000D03*
D16*
X133667500Y-47625000D03*
X123507500Y-47625000D03*
X104457500Y-104775000D03*
X114617500Y-104775000D03*
D15*
X109537500Y-104775000D03*
D16*
X57467500Y-66675000D03*
X47307500Y-66675000D03*
D15*
X52387500Y-66675000D03*
D16*
X104457500Y-66675000D03*
X114617500Y-66675000D03*
D15*
X109537500Y-66675000D03*
D16*
X161571718Y-50359533D03*
X154387514Y-57543737D03*
D15*
X157979616Y-53951635D03*
X214312500Y-47625000D03*
D16*
X219392500Y-47625000D03*
X209232500Y-47625000D03*
X66357500Y-85725000D03*
X76517500Y-85725000D03*
D15*
X71437500Y-85725000D03*
X252412500Y-66675000D03*
D16*
X257492500Y-66675000D03*
X247332500Y-66675000D03*
X266382500Y-104775000D03*
D15*
X271462500Y-104775000D03*
D16*
X276542500Y-104775000D03*
X295592500Y-66675000D03*
D15*
X290512500Y-66675000D03*
D16*
X285432500Y-66675000D03*
X285432500Y-104775000D03*
D15*
X290512500Y-104775000D03*
D16*
X295592500Y-104775000D03*
D15*
X71437500Y-104775000D03*
D16*
X66357500Y-104775000D03*
X76517500Y-104775000D03*
X209232500Y-104775000D03*
X219392500Y-104775000D03*
D15*
X214312500Y-104775000D03*
D16*
X304482500Y-47625000D03*
D15*
X309562500Y-47625000D03*
D16*
X314642500Y-47625000D03*
D15*
X90487500Y-66675000D03*
D16*
X95567500Y-66675000D03*
X85407500Y-66675000D03*
X219392500Y-66675000D03*
D15*
X214312500Y-66675000D03*
D16*
X209232500Y-66675000D03*
X114617500Y-47625000D03*
D15*
X109537500Y-47625000D03*
D16*
X104457500Y-47625000D03*
X85407500Y-85725000D03*
X95567500Y-85725000D03*
D15*
X90487500Y-85725000D03*
D16*
X133667500Y-85725000D03*
D15*
X128587500Y-85725000D03*
D16*
X123507500Y-85725000D03*
X38417500Y-66675000D03*
X28257500Y-66675000D03*
D15*
X33337500Y-66675000D03*
X128587500Y-104775000D03*
D16*
X133667500Y-104775000D03*
X123507500Y-104775000D03*
X38417500Y-104775000D03*
D15*
X33337500Y-104775000D03*
D16*
X28257500Y-104775000D03*
X85407500Y-47625000D03*
D15*
X90487500Y-47625000D03*
D16*
X95567500Y-47625000D03*
X57467500Y-104775000D03*
X47307500Y-104775000D03*
D15*
X52387500Y-104775000D03*
X171450000Y-67422019D03*
D16*
X175042102Y-63829917D03*
X167857898Y-71014121D03*
X228282500Y-85725000D03*
D15*
X233362500Y-85725000D03*
D16*
X238442500Y-85725000D03*
X276542500Y-66675000D03*
X266382500Y-66675000D03*
D15*
X271462500Y-66675000D03*
M02*
