M48
; DRILL file {KiCad (6.0.2)} date Fri Feb 25 11:45:30 2022
; FORMAT={-:-/ absolute / metric / decimal}
; #@! TF.CreationDate,2022-02-25T11:45:30+09:00
; #@! TF.GenerationSoftware,Kicad,Pcbnew,(6.0.2)
; #@! TF.FileFunction,Plated,1,2,PTH
FMAT,2
METRIC
; #@! TA.AperFunction,Plated,PTH,ViaDrill
T1C0.400
; #@! TA.AperFunction,Plated,PTH,ComponentDrill
T2C0.800
; #@! TA.AperFunction,Plated,PTH,ComponentDrill
T3C0.813
; #@! TA.AperFunction,Plated,PTH,ComponentDrill
T4C1.000
; #@! TA.AperFunction,Plated,PTH,ComponentDrill
T5C1.300
; #@! TA.AperFunction,Plated,PTH,ComponentDrill
T6C2.000
%
G90
G05
T1
X26.337Y-74.866
X31.552Y-111.919
X31.563Y-54.742
X31.563Y-73.792
X31.563Y-92.842
X45.387Y-76.057
X50.613Y-54.742
X50.613Y-73.792
X50.613Y-92.842
X50.613Y-111.892
X63.103Y-33.337
X64.438Y-77.247
X69.652Y-92.869
X69.663Y-54.742
X69.663Y-73.792
X69.663Y-111.892
X83.487Y-93.916
X88.702Y-54.769
X88.713Y-73.792
X88.713Y-92.842
X88.713Y-111.892
X102.537Y-95.107
X107.762Y-54.743
X107.763Y-73.792
X107.763Y-92.842
X107.763Y-111.892
X121.587Y-96.297
X126.802Y-73.819
X126.802Y-92.869
X126.813Y-54.742
X126.813Y-111.892
X138.708Y-73.819
X138.719Y-54.742
X144.661Y-54.173
X144.666Y-50.596
X147.037Y-50.596
X147.042Y-51.792
X148.839Y-111.893
X154.662Y-31.075
X155.114Y-60.985
X156.602Y-62.473
X157.163Y-34.528
X157.163Y-40.481
X159.544Y-28.575
X160.734Y-34.528
X160.976Y-60.481
X163.116Y-34.528
X164.073Y-53.345
X168.474Y-47.404
X168.508Y-74.38
X170.072Y-49.003
X171.45Y-75.009
X171.45Y-104.775
X171.45Y-113.11
X171.484Y-77.356
X177.542Y-66.814
X179.031Y-65.698
X180.789Y-67.456
X181.978Y-60.909
X184.547Y-65.484
X186.928Y-72.628
X189.299Y-111.893
X189.31Y-72.628
X190.5Y-46.434
X191.236Y-53.123
X194.072Y-29.766
X194.072Y-34.528
X194.072Y-47.625
X196.453Y-27.384
X196.453Y-34.528
X196.453Y-47.625
X204.192Y-54.769
X204.192Y-73.819
X207.312Y-42.719
X207.312Y-74.866
X216.088Y-92.842
X216.088Y-111.892
X216.099Y-54.769
X216.099Y-73.819
X226.362Y-42.719
X226.362Y-76.057
X235.137Y-73.792
X235.138Y-92.842
X235.149Y-54.769
X235.149Y-111.919
X245.412Y-42.719
X245.412Y-77.248
X254.188Y-54.742
X254.188Y-73.792
X254.188Y-111.892
X254.199Y-92.869
X264.462Y-42.72
X264.462Y-93.917
X273.238Y-73.792
X273.238Y-54.742
X273.238Y-92.842
X273.238Y-111.892
X283.512Y-42.72
X283.512Y-95.107
X285.155Y-33.338
X292.288Y-54.742
X292.288Y-73.792
X292.288Y-92.842
X292.299Y-111.919
X292.894Y-23.813
X302.562Y-42.72
X302.562Y-96.298
X311.338Y-73.792
X311.338Y-92.842
X311.338Y-111.892
X311.349Y-54.769
T3
X287.782Y-21.011
X287.782Y-36.231
X290.322Y-21.011
X290.322Y-36.231
X292.862Y-21.011
X292.862Y-36.231
X295.402Y-21.011
X295.402Y-36.231
X297.942Y-21.011
X297.942Y-36.231
X300.482Y-21.011
X300.482Y-36.231
X303.022Y-21.011
X303.022Y-36.231
X305.562Y-21.011
X305.562Y-36.231
X308.102Y-21.011
X308.102Y-36.231
X310.642Y-21.011
X310.642Y-36.231
X313.182Y-21.011
X313.182Y-36.231
X315.722Y-21.011
X315.722Y-36.231
X318.262Y-21.011
X318.262Y-36.231
T4
X152.281Y-87.75
X152.281Y-102.25
X154.781Y-87.75
X157.281Y-87.75
X157.281Y-102.25
X185.619Y-87.75
X185.619Y-102.25
X188.119Y-87.75
X190.619Y-87.75
X190.619Y-102.25
T5
X57.745Y-25.325
X57.745Y-31.825
T2
G00X169.069Y-19.05
M15
G01X169.069Y-19.05
M16
G05
G00X171.569Y-19.05
M15
G01X171.569Y-19.05
M16
G05
G00X174.069Y-19.05
M15
G01X174.069Y-19.05
M16
G05
T6
G00X149.181Y-94.85
M15
G01X149.181Y-95.65
M16
G05
G00X160.381Y-94.85
M15
G01X160.381Y-95.65
M16
G05
G00X182.519Y-94.85
M15
G01X182.519Y-95.65
M16
G05
G00X193.719Y-94.85
M15
G01X193.719Y-95.65
M16
G05
T0
M30
